<?xml version="1.0" encoding="utf-8"?>
<!-- Generator: Adobe Illustrator 27.5.0, SVG Export Plug-In . SVG Version: 6.00 Build 0)  -->
<svg version="1.1" xmlns="http://www.w3.org/2000/svg" xmlns:xlink="http://www.w3.org/1999/xlink" x="0px" y="0px"
	 viewBox="0 0 750 500" style="enable-background:new 0 0 750 500;" xml:space="preserve">
<g id="Background_Simple">
	<g>
		<path style="fill:#92E3A9;" d="M676.001,431.431c36.216-29.035,57.072-73.116,57.713-119.53
			c0.404-29.257-1.697-66.012-11.524-97.457c-32.417-103.736-124-160-191-172s-136,10-188,45s-47,29-136,16s-162,25-186,95
			s48.991,109.668,56.995,146.334c8.005,36.666-5.995,101.666,133.005,117.666s181-62,250-40
			C516.714,440.148,599.433,492.817,676.001,431.431z"/>
		<path style="opacity:0.7;fill:#FFFFFF;" d="M676.001,431.431c36.216-29.035,57.072-73.116,57.713-119.53
			c0.404-29.257-1.697-66.012-11.524-97.457c-32.417-103.736-124-160-191-172s-136,10-188,45s-47,29-136,16s-162,25-186,95
			s48.991,109.668,56.995,146.334c8.005,36.666-5.995,101.666,133.005,117.666s181-62,250-40
			C516.714,440.148,599.433,492.817,676.001,431.431z"/>
	</g>
</g>
<g id="Clouds">
	<g>
		<path style="fill:none;stroke:#263238;stroke-linecap:round;stroke-linejoin:round;stroke-miterlimit:10;" d="M120.142,78.061
			c-1.412-1.465-3.863-2.813-8.112-2.917c-9.552-0.233-6.99,6.524-9.552,8.155c-2.563,1.631-3.262-0.932-5.825,0.699
			c-2.563,1.631-1.398,4.893-3.495,5.359c-2.097,0.466-4.893-2.097-7.456-0.466c-2.563,1.631-2.563,3.029-3.728,3.029
			c-1.165,0-3.495-0.932-4.893,0c-1.398,0.932-3.029,2.097-3.029,2.097h25.017"/>
		<path style="fill:none;stroke:#263238;stroke-linecap:round;stroke-linejoin:round;stroke-miterlimit:10;" d="M122.773,82.233
			c-0.228-0.11-0.469-0.221-0.724-0.332c0,0-0.08-1.125-0.858-2.457"/>
		<path style="fill:none;stroke:#263238;stroke-linecap:round;stroke-linejoin:round;stroke-miterlimit:10;" d="M102.273,94.017
			h30.726c0,0,0.699-2.097-1.864-3.495c-2.563-1.398-3.728-0.233-4.66-1.398c-0.83-1.037,1.851-3.553-2.488-6.23"/>
	</g>
	<g>
		<path style="fill:none;stroke:#263238;stroke-linecap:round;stroke-linejoin:round;stroke-miterlimit:10;" d="M408.647,153.106
			c-1.412-1.465-3.863-2.813-8.112-2.917c-9.553-0.233-6.99,6.524-9.553,8.155c-2.563,1.631-3.262-0.932-5.825,0.699
			c-2.563,1.631-1.398,4.893-3.495,5.359c-2.097,0.466-4.893-2.097-7.456-0.466c-2.563,1.631-2.563,3.029-3.728,3.029
			c-1.165,0-3.495-0.932-4.893,0c-1.398,0.932-3.029,2.097-3.029,2.097h25.017"/>
		<path style="fill:none;stroke:#263238;stroke-linecap:round;stroke-linejoin:round;stroke-miterlimit:10;" d="M411.277,157.277
			c-0.228-0.11-0.469-0.221-0.724-0.332c0,0-0.08-1.125-0.858-2.457"/>
		<path style="fill:none;stroke:#263238;stroke-linecap:round;stroke-linejoin:round;stroke-miterlimit:10;" d="M390.778,169.061
			h30.726c0,0,0.699-2.097-1.864-3.495c-2.563-1.398-3.728-0.233-4.66-1.398c-0.83-1.037,1.851-3.553-2.488-6.23"/>
	</g>
	<g>
		<path style="fill:none;stroke:#263238;stroke-linecap:round;stroke-linejoin:round;stroke-miterlimit:10;" d="M612.26,49.451
			c-2.545-2.64-6.963-5.07-14.621-5.257c-17.217-0.42-12.598,11.759-17.217,14.698c-4.619,2.939-5.879-1.68-10.498,1.26
			c-4.62,2.939-2.52,8.819-6.299,9.659c-3.779,0.84-8.819-3.779-13.438-0.84c-4.619,2.939-4.619,5.459-6.719,5.459
			c-2.099,0-6.299-1.68-8.818,0c-2.52,1.68-5.459,3.779-5.459,3.779h45.089"/>
		<path style="fill:none;stroke:#263238;stroke-linecap:round;stroke-linejoin:round;stroke-miterlimit:10;" d="M617.002,56.969
			c-0.411-0.199-0.845-0.398-1.305-0.597c0,0-0.145-2.027-1.547-4.428"/>
		<path style="fill:none;stroke:#263238;stroke-linecap:round;stroke-linejoin:round;stroke-miterlimit:10;" d="M580.055,78.209
			h55.379c0,0,1.26-3.779-3.36-6.299c-4.619-2.519-6.719-0.42-8.398-2.519c-1.496-1.87,3.336-6.404-4.485-11.229"/>
	</g>
	<g>
		<path style="fill:none;stroke:#263238;stroke-linecap:round;stroke-linejoin:round;stroke-miterlimit:10;" d="M278.128,94.061
			h60.922c0,0,2.076-6.228-5.536-10.38c-7.612-4.151-11.071-0.692-13.839-4.151c-2.768-3.46,7.612-12.456-13.147-21.451
			c0,0-1.383-19.375-29.754-20.067c-12.243-0.299-17.785,3.269-20.741,7.811"/>
		
			<line style="fill:none;stroke:#263238;stroke-linecap:round;stroke-linejoin:round;stroke-miterlimit:10;" x1="259.537" y1="94.061" x2="269.678" y2="94.061"/>
		<path style="fill:none;stroke:#263238;stroke-linecap:round;stroke-linejoin:round;stroke-miterlimit:10;" d="M252.338,55.379
			c-0.868,2.95-1.806,5.497-3.935,6.852c-7.612,4.844-9.687-2.767-17.299,2.076c-7.612,4.844-4.152,14.531-10.379,15.915
			c-6.228,1.384-14.532-6.228-22.143-1.384c-7.611,4.844-7.611,8.995-11.071,8.995c-3.46,0-10.38-2.768-14.531,0
			c-4.152,2.768-8.995,6.228-8.995,6.228h77.807"/>
	</g>
</g>
<g id="Graphics">
	<g>
		<g>
			<path style="fill:none;stroke:#263238;stroke-miterlimit:10;" d="M410.83,79.5c7.12-16.37,23.43-27.81,42.41-27.81
				c25.53,0,46.23,20.7,46.23,46.23c0,25.54-20.7,46.23-46.23,46.23s-46.23-20.69-46.23-46.23c0-5.75,1.05-11.25,2.97-16.33"/>
			<path style="fill:none;stroke:#263238;stroke-width:0.5;stroke-miterlimit:10;" d="M410.31,79.31
				c7.21-16.57,23.74-28.18,42.93-28.18c25.8,0,46.79,20.99,46.79,46.79c0,25.81-20.99,46.8-46.79,46.8
				c-25.8,0-46.79-20.99-46.79-46.8c0-5.81,1.07-11.38,3.01-16.52"/>
		</g>
		<g>
			<path style="fill:none;stroke:#263238;stroke-miterlimit:10;" d="M422.45,83.89c5.33-11.68,17.11-19.79,30.79-19.79
				c18.68,0,33.83,15.14,33.83,33.82c0,18.69-15.15,33.83-33.83,33.83c-18.68,0-33.83-15.14-33.83-33.83
				c0-4.21,0.77-8.24,2.18-11.95"/>
			<path style="fill:none;stroke:#263238;stroke-width:0.5;stroke-miterlimit:10;" d="M421.93,83.69
				c5.43-11.88,17.42-20.16,31.31-20.16c18.96,0,34.39,15.43,34.39,34.39c0,18.97-15.43,34.39-34.39,34.39
				c-18.96,0-34.39-15.42-34.39-34.39c0-4.28,0.78-8.37,2.22-12.15"/>
		</g>
		<g>
			<path style="fill:none;stroke:#263238;stroke-miterlimit:10;" d="M437.27,89.53c0-0.01,0.01-0.03,0.02-0.04
				c3.03-5.71,9.03-9.61,15.95-9.61c9.96,0,18.04,8.08,18.04,18.04c0,9.97-8.08,18.04-18.04,18.04c-9.96,0-18.04-8.07-18.04-18.04
				c0-2.25,0.41-4.4,1.16-6.38c0.01-0.03,0.03-0.06,0.04-0.09"/>
			<path style="fill:none;stroke:#263238;stroke-width:0.5;stroke-miterlimit:10;" d="M436.55,89.71c0.07-0.14,0.14-0.28,0.21-0.42
				h0.01c3.11-5.92,9.33-9.97,16.47-9.97c10.26,0,18.6,8.35,18.6,18.6c0,10.26-8.34,18.61-18.6,18.61c-10.26,0-18.6-8.35-18.6-18.61
				c0-2.31,0.42-4.52,1.2-6.57"/>
		</g>
		<path style="fill:none;stroke:#263238;stroke-miterlimit:10;" d="M437.57,89.59c-0.05-0.02-0.1-0.03-0.15-0.05l-0.13-0.05
			l-0.52-0.2h-0.01l-14.31-5.4l-0.52-0.2l-11.1-4.19l-0.52-0.19l-17.88-6.75l0.88-6.6c0.03-0.25-0.1-0.49-0.33-0.59l-14.14-6.34
			c-0.21-0.09-0.45-0.05-0.61,0.1c-0.17,0.15-0.23,0.38-0.16,0.6l2.87,8.5l-2.11-0.8c-0.59-0.22-1.24,0.08-1.46,0.66
			c-0.22,0.58,0.08,1.23,0.66,1.45l2.2,0.83l-6.6,5.07c-0.18,0.14-0.26,0.37-0.2,0.59c0.05,0.21,0.23,0.38,0.46,0.41l15.85,2.44
			c0.03,0.01,0.06,0.01,0.08,0.01c0.23,0,0.44-0.14,0.53-0.36l1.49-3.78l17.62,6.65l0.52,0.19l11.09,4.18l0.52,0.2l14.25,5.38
			l0.52,0.19l0.42,0.16"/>
		<path style="fill:none;stroke:#263238;stroke-miterlimit:10;" d="M437.27,89.53c0.05,0,0.1,0.01,0.15,0.01
			c0.05,0.02,0.1,0.03,0.15,0.05l10.19,3.85l1.12-3.36c0.15-0.46,0.58-0.77,1.06-0.77c0.01,0,0.01,0,0.02,0
			c0.49,0.01,0.92,0.33,1.06,0.8l2.04,6.62c0.16,0.52-0.08,1.09-0.57,1.34l-5.1,2.54c-0.16,0.08-0.33,0.12-0.5,0.12
			c-0.27,0-0.53-0.09-0.74-0.27c-0.34-0.3-0.47-0.78-0.33-1.21l1.22-3.67l-10.26-3.88c-0.15-0.06-0.28-0.14-0.38-0.25"/>
	</g>
	<g>
		<path style="fill:none;stroke:#263238;stroke-linecap:round;stroke-linejoin:round;stroke-miterlimit:10;" d="M152.384,208.46
			l8.986,2.051l2.081-9.118l-8.633-1.97c0.009-0.258,0.039-0.51,0.039-0.77c0-2.86-0.582-5.585-1.633-8.062l7.002-5.584
			l-5.831-7.312l-6.696,5.34c-2.316-2.006-5.081-3.495-8.126-4.316v-8.719h-9.352v8.376c-3.147,0.612-6.027,1.949-8.488,3.814
			l-6.771-5.399l-5.831,7.312l6.61,5.271c-1.358,2.693-2.147,5.717-2.202,8.926l-8.612,1.966l2.081,9.118l8.496-1.939
			c1.296,2.749,3.162,5.174,5.471,7.098l-3.952,8.206l8.426,4.058l3.891-8.079c1.558,0.375,3.176,0.596,4.849,0.596
			c1.342,0,2.652-0.138,3.923-0.383l4.03,8.369l8.426-4.058l-3.918-8.136C149.002,213.331,150.973,211.074,152.384,208.46z
			 M125.014,198.653c0-5.068,4.108-9.176,9.176-9.176c5.068,0,9.176,4.108,9.176,9.176c0,5.068-4.108,9.176-9.176,9.176
			C129.122,207.829,125.014,203.721,125.014,198.653z"/>
		<path style="fill:none;stroke:#263238;stroke-linecap:round;stroke-linejoin:round;stroke-miterlimit:10;" d="M698.125,301.596
			l6.091,1.39l1.411-6.18l-5.852-1.335c0.006-0.175,0.026-0.346,0.026-0.522c0-1.939-0.394-3.785-1.107-5.465l4.746-3.785
			l-3.952-4.956l-4.539,3.62c-1.57-1.359-3.444-2.369-5.508-2.926v-5.91h-6.339v5.677c-2.133,0.415-4.085,1.321-5.753,2.585
			l-4.589-3.66l-3.952,4.956l4.48,3.573c-0.92,1.825-1.456,3.875-1.492,6.05l-5.837,1.332l1.41,6.18l5.759-1.314
			c0.878,1.863,2.143,3.507,3.709,4.811l-2.679,5.562l5.711,2.75l2.637-5.476c1.056,0.254,2.153,0.404,3.287,0.404
			c0.91,0,1.797-0.094,2.659-0.259l2.732,5.673l5.711-2.75l-2.656-5.514C695.833,304.897,697.169,303.367,698.125,301.596z
			 M679.574,294.948c0-3.435,2.784-6.219,6.219-6.219c3.435,0,6.219,2.784,6.219,6.219c0,3.435-2.784,6.22-6.219,6.22
			C682.358,301.168,679.574,298.383,679.574,294.948z"/>
		<path style="fill:none;stroke:#263238;stroke-linecap:round;stroke-linejoin:round;stroke-miterlimit:10;" d="M169.615,163.641
			l7.373,1.683l1.707-7.48l-7.083-1.617c0.008-0.211,0.032-0.418,0.032-0.632c0-2.347-0.477-4.582-1.34-6.615l5.745-4.581
			l-4.784-5.999l-5.494,4.381c-1.9-1.645-4.168-2.868-6.667-3.541v-7.154h-7.673v6.872c-2.582,0.502-4.945,1.599-6.964,3.129
			l-5.555-4.43l-4.784,5.999l5.423,4.324c-1.114,2.21-1.762,4.691-1.806,7.324l-7.066,1.613l1.707,7.48l6.971-1.591
			c1.063,2.255,2.594,4.245,4.489,5.823l-3.242,6.733l6.913,3.329l3.192-6.629c1.278,0.308,2.605,0.489,3.978,0.489
			c1.101,0,2.176-0.113,3.219-0.314l3.307,6.866l6.913-3.329l-3.215-6.675C166.84,167.637,168.457,165.785,169.615,163.641z
			 M147.159,155.595c0-4.158,3.37-7.528,7.528-7.528c4.158,0,7.528,3.37,7.528,7.528c0,4.158-3.37,7.528-7.528,7.528
			C150.529,163.124,147.159,159.753,147.159,155.595z"/>
	</g>
	<polyline style="fill:none;stroke:#263238;stroke-linecap:round;stroke-linejoin:round;stroke-miterlimit:10;" points="
		658.359,266.994 694.034,194.947 704.739,200.247 702.192,160.445 668.992,182.547 679.696,187.847 644.021,259.895 	"/>
	<polyline style="fill:none;stroke:#263238;stroke-linecap:round;stroke-linejoin:round;stroke-miterlimit:10;" points="
		640.962,157.592 663.444,112.187 670.19,115.528 668.586,90.444 647.663,104.373 654.408,107.713 631.927,153.117 	"/>
</g>
<g id="Character_3">
	<g>
		<path style="fill:#FFFFFF;stroke:#263238;stroke-linecap:round;stroke-linejoin:round;stroke-miterlimit:10;" d="M569.748,419.551
			c0,0-6.204,3.97-7.445,4.963c-1.241,0.993-6.948,2.233-6.204,3.971c0.744,1.737,7.941,2.73,9.926,2.73
			c1.985,0,9.678-3.971,11.664-4.467c1.985-0.496,1.985-2.73,1.241-4.467c-0.744-1.737-2.978-4.219-2.978-4.219l-5.211,1.489
			H569.748z"/>
		<path style="fill:#FFFFFF;stroke:#263238;stroke-linecap:round;stroke-linejoin:round;stroke-miterlimit:10;" d="M640.225,418.868
			c0,0-4.715,5.708-5.46,6.948c-0.745,1.241-4.963,3.226-4.963,5.211s7.197,0.993,9.43,0.745c2.234-0.248,5.211-1.985,6.452-4.467
			c1.241-2.482,2.233-7.693,0.745-9.678C644.94,415.642,640.225,418.868,640.225,418.868z"/>
		<path style="fill:#263238;stroke:#263238;stroke-linecap:round;stroke-linejoin:round;stroke-miterlimit:10;" d="M580.667,308.933
			l-0.194,1.496l-1.543,11.905c0,0-13.798,19.482-18.852,29.633c-2.581,5.184-6.177,11.329-5.681,13.066
			c0.496,1.737,15.351,54.518,15.351,54.518s1.985,0.993,3.722,0.993s3.474-0.745,3.474-0.745l-0.708-50.461l21.306-23.429
			l2.73,3.474c0,0,7.073,25.074,10.051,29.045c2.978,3.971,28.662,41.184,28.662,41.184s1.985,0.993,4.219,0.993
			c2.233,0,3.226-2.978,3.226-2.978s-18.487-45.651-18.984-47.14c-0.496-1.489-0.125-37.979-0.125-37.979l-2.978-17.619
			l-3.474-11.167c0,0-6.452,1.737-17.371,1.241c-10.919-0.496-21.342-1.241-21.342-1.241L580.667,308.933z"/>
		<path style="fill:#263238;stroke:#263238;stroke-linecap:round;stroke-linejoin:round;stroke-miterlimit:10;" d="M551.384,189.32
			c0,0-3.474,5.211-3.971,8.438c-0.496,3.226,1.737,5.956,1.737,5.956l-1.985,4.219c0,0,6.7,13.649,10.671,19.853
			c3.971,6.204,10.423,16.627,14.393,18.612c3.971,1.985,11.663,10.174,11.663,10.174l4.467-9.678c0,0-13.152-16.379-21.342-27.794
			c-8.189-11.415-13.649-21.59-13.649-21.59s0-4.219,0.496-6.452c0.496-2.234,0.496-5.708,0.496-5.708L551.384,189.32z"/>
		<path style="fill:#FFFFFF;stroke:#263238;stroke-linecap:round;stroke-linejoin:round;stroke-miterlimit:10;" d="M591.586,243.171
			c0,0-10.175,12.16-12.16,20.101c-1.985,7.941,0.496,32.509,0.496,35.983c0,3.474-1.985,7.197,0.745,9.678
			c2.73,2.482,10.919,1.241,13.897,0.993c2.978-0.248,17.123,0,21.342-1.241c4.219-1.241,6.204-2.978,6.204-5.956
			c0-2.978-5.211-26.553-5.956-30.524c-0.745-3.971,1.985-17.619-1.737-24.071C610.694,241.682,598.782,240.689,591.586,243.171z"/>
		<path style="fill:#263238;stroke:#263238;stroke-linecap:round;stroke-linejoin:round;stroke-miterlimit:10;" d="M589.849,244.908
			c0,0-12.408,12.656-14.145,19.356c-1.737,6.7-7.941,19.605-9.926,25.312c-1.985,5.708-5.956,13.153-5.956,13.153l2.234,8.934
			l5.708-6.204c0,0,5.708-19.605,8.685-27.794c2.978-8.189,3.474-15.882,3.971-18.116
			C580.915,257.316,589.849,244.908,589.849,244.908z"/>
		<g>
			<path style="fill:#92E3A9;stroke:#263238;stroke-linecap:round;stroke-linejoin:round;stroke-miterlimit:10;" d="
				M591.586,244.163c0,0-7.445,20.349-7.197,21.838c0.248,1.489,3.722,56.58,3.722,56.58s3.474,8.437,19.108,7.197
				c15.634-1.241,27.794-3.474,27.794-3.474s-4.715-18.612-8.934-27.049c-4.219-8.437-6.452-13.401-6.452-17.371
				c0-3.971-1.737-30.524-2.73-34.742c-0.993-4.219-2.233-6.204-2.233-6.204l-1.489-1.241L591.586,244.163z"/>
			<path style="fill:#92E3A9;stroke:#263238;stroke-linecap:round;stroke-linejoin:round;stroke-miterlimit:10;" d="M585.63,286.35
				l12.16,29.779c0,0-4.963,1.985-6.7,3.722c-1.737,1.737-2.978,2.73-2.978,2.73L585.63,286.35z"/>
		</g>
		<g>
			<g>
				<path style="fill:#FFFFFF;stroke:#263238;stroke-linecap:round;stroke-linejoin:round;stroke-miterlimit:10;" d="M601.76,204.21
					c0,0-7.693,6.204-7.693,7.941c0,1.737-1.985,4.219-1.985,4.219s-3.971,0.496-4.219,1.985c-0.248,1.489,1.241,4.467,1.241,4.467
					s-2.482,8.437-1.489,10.423c0.993,1.985,8.189,2.233,8.189,2.233l0.248,5.46l17.123-2.73l-0.248-4.219
					c0,0,9.182-9.926,13.649-14.145s-1.241-11.663-6.7-17.371c-5.459-5.708-18.364-5.708-19.357-2.73
					C599.527,202.721,601.76,204.21,601.76,204.21z"/>
				<path style="fill:none;stroke:#263238;stroke-linecap:round;stroke-linejoin:round;stroke-miterlimit:10;" d="M595.308,213.143
					c0,0,1.985-0.993,3.474,0.248"/>
				<path style="fill:#263238;" d="M595.573,216.723c-0.189,0.8-0.072,1.513,0.261,1.592c0.333,0.079,0.757-0.506,0.946-1.306
					c0.189-0.8,0.072-1.513-0.261-1.592C596.186,215.338,595.762,215.923,595.573,216.723z"/>
			</g>
			<path style="fill:#263238;stroke:#263238;stroke-linecap:round;stroke-linejoin:round;stroke-miterlimit:10;" d="
				M619.876,202.472c-5.459-5.708-18.364-5.708-19.357-2.73c-0.993,2.978,1.241,4.467,1.241,4.467s8.437,0.993,7.197,3.226
				c-1.241,2.233-5.46,2.233-4.467,3.722c0.993,1.489,4.467,4.715,3.226,5.459c-1.241,0.744-1.985,2.233-1.241,2.73
				c0.745,0.496,1.985-0.744,4.963-0.248c2.978,0.496,2.233,7.445-0.496,8.437c-2.73,0.993-3.971-0.248,0.993,4.219
				c0.594,0.534,1.26,0.916,1.972,1.18c2.481-2.663,9.089-9.709,12.67-13.092C631.043,215.625,625.336,208.18,619.876,202.472z"/>
			<polyline style="fill:none;stroke:#263238;stroke-linecap:round;stroke-linejoin:round;stroke-miterlimit:10;" points="
				608.957,228.281 604.49,227.288 601.512,229.522 			"/>
		</g>
		<polygon style="fill:#92E3A9;stroke:#263238;stroke-linecap:round;stroke-linejoin:round;stroke-miterlimit:10;" points="
			614.168,235.23 591.338,241.434 589.849,246.148 616.898,241.185 		"/>
		<path style="fill:#FFFFFF;stroke:#263238;stroke-linecap:round;stroke-linejoin:round;stroke-miterlimit:10;" d="M556.595,196.765
			l-0.745-5.211c0,0,2.233-7.197,2.233-8.934c0-1.737-1.737-5.708-1.737-6.7c0-0.993-1.489-2.482-1.985-0.496
			c-0.496,1.985-1.489,9.43-1.489,9.43s-3.226,5.46-2.978,8.189c0.248,2.73,2.73,8.438,2.73,8.438l4.467-2.73L556.595,196.765z"/>
		<polygon style="fill:#FFFFFF;stroke:#263238;stroke-linecap:round;stroke-linejoin:round;stroke-miterlimit:10;" points="
			559.821,200.735 556.595,196.765 550.639,201.48 554.114,207.436 		"/>
		<path style="fill:#92E3A9;stroke:#263238;stroke-linecap:round;stroke-linejoin:round;stroke-miterlimit:10;" d="M613.92,251.856
			c0,0-2.233-6.452-8.686-9.678c-6.452-3.226-13.152-4.963-13.152-4.963l-33.75-38.465l-6.7,6.7c0,0,14.145,29.531,16.875,34.494
			c2.73,4.963,34.246,38.961,34.246,38.961"/>
	</g>
</g>
<g id="Character_2">
	<g>
		<path style="fill:#FFFFFF;stroke:#263238;stroke-linecap:round;stroke-linejoin:round;stroke-miterlimit:10;" d="M319.69,414.444
			c0,0-4.75,6.75-5.75,10.5s-0.75,8.75,1.75,8.25s8.25-6.75,8.75-8.5s2.25-9.75,2.25-9.75l-6-0.5H319.69z"/>
		<path style="fill:#FFFFFF;stroke:#263238;stroke-linecap:round;stroke-linejoin:round;stroke-miterlimit:10;" d="M405.44,418.694
			c0,0,0,7,1.5,8s11.75,5.25,14.75,5.5s4-0.25,2.25-3.75s-11.75-10.25-11.75-10.25L405.44,418.694z"/>
		<path style="fill:#263238;stroke:#263238;stroke-linecap:round;stroke-linejoin:round;stroke-miterlimit:10;" d="M343.94,300.444
			l-5.75,24.25l-3,45.5c0,0-11,19-12,26s-4.25,21.25-4.25,21.25s4.5,2,5.25,2s9.75-13,14.75-18s16.25-26.5,16.75-27.5
			s8.5-32.75,9-33.75s3.5-2.25,3.5-2.25s15.064,21.646,16.884,23.466c2.907,2.907,7.616,10.284,7.616,10.284s10.25,40.75,11,42.75
			s1,5.75,1,5.75l9.25,2c0,0,0.75-27.25,0.25-33.75s-2.5-20.5-2.5-20.5s-15.25-41.75-16-42.75s-5.25-11-5.25-11l-1.5-9.5
			c0,0-12,4-27,1S343.94,300.444,343.94,300.444z"/>
		<path style="fill:#FFFFFF;stroke:#263238;stroke-linecap:round;stroke-linejoin:round;stroke-miterlimit:10;" d="M358.068,232.654
			c0,0-9.211,6.123-16.878,9.79c-7.667,3.667-9.5,7.333-9.5,9.167s-6.667,32.167-6.167,33.833c0.5,1.667,5,4.167,7.833,4.833
			c2.833,0.667,6.833-0.167,7.667-0.833c0.833-0.667,3.5-12,3.5-12s-1.5,20.5-2.167,23.167c-0.667,2.667,5.5,9.5,11.5,10.667
			c6,1.167,22.167,1.167,26.333-0.167c4.167-1.333,7-1.667,8.333-4.167c1.333-2.5,2.167-20.333,2.333-21.5
			c0.167-1.167,1.5-11.833,1.5-11.833l4.333,14.667l1.667,3c0,0,0.833-1.833,6-4.833c5.167-3,6.833-3.333,6.833-3.333
			s-3-9.833-4.833-15.5c-1.833-5.667-3.667-16-6-20.167c-2.333-4.167-6.5-6-12.167-9.5c-5.667-3.5-14-5.5-15-6
			S363.28,230.698,358.068,232.654z"/>
		
			<line style="fill:none;stroke:#263238;stroke-linecap:round;stroke-linejoin:round;stroke-miterlimit:10;" x1="344.524" y1="277.444" x2="348.043" y2="265.252"/>
		
			<line style="fill:none;stroke:#263238;stroke-linecap:round;stroke-linejoin:round;stroke-miterlimit:10;" x1="394.802" y1="262.232" x2="395.396" y2="259.468"/>
		
			<line style="fill:none;stroke:#263238;stroke-linecap:round;stroke-linejoin:round;stroke-miterlimit:10;" x1="392.357" y1="273.611" x2="394.266" y2="264.725"/>
		<g>
			<polygon style="fill:#92E3A9;stroke:#263238;stroke-linecap:round;stroke-linejoin:round;stroke-miterlimit:10;" points="
				362.44,251.944 365.94,256.944 367.94,261.444 362.94,302.944 369.94,309.444 375.44,302.194 370.44,261.944 373.44,256.194 
				377.434,249.658 370.19,245.444 			"/>
			<path style="fill:#FFFFFF;stroke:#263238;stroke-linecap:round;stroke-linejoin:round;stroke-miterlimit:10;" d="
				M359.983,230.864c0,0-3.477,0.907-4.233,3.023c-0.756,2.117,0.302,14.815,1.361,17.536c1.058,2.721,2.967,5.929,2.967,5.929
				s9.278-5.929,10.941-6.231c1.663-0.302,11.187,4.686,11.187,4.686s0.302-5.896-3.024-14.211
				c-3.326-8.315-11.036-13.001-14.362-13.304C361.494,227.991,359.983,230.864,359.983,230.864z"/>
			<g>
				<path style="fill:#FFFFFF;stroke:#263238;stroke-linecap:round;stroke-linejoin:round;stroke-miterlimit:10;" d="
					M358.622,229.805c0,0,0.453,5.291,0.907,8.919c0.454,3.628,6.047,15.571,8.012,17.234c1.965,1.663,6.047-3.779,7.408-6.198
					c1.361-2.419,1.965-3.175,1.965-3.175s-9.675-4.686-12.699-10.129c-3.023-5.442-2.721-8.012-4.082-8.164
					C358.773,228.142,358.622,229.805,358.622,229.805z"/>
				<path style="fill:#263238;stroke:#263238;stroke-linecap:round;stroke-linejoin:round;stroke-miterlimit:10;" d="M363.5,242.809
					l7.433,11.989c0,0,3.42-3.159,4.016-5.038C375.545,247.882,363.5,242.809,363.5,242.809z"/>
			</g>
			<g>
				<path style="fill:#FFFFFF;stroke:#263238;stroke-linecap:round;stroke-linejoin:round;stroke-miterlimit:10;" d="
					M355.707,221.319c0,0-0.945,2.125-0.708,5.432c0.236,3.306,2.125,5.668,3.07,5.904c0.945,0.236,2.598,0.236,2.598,0.236
					s0.236,5.904,2.834,9.919c2.598,4.015,11.336,9.683,13.934,6.849c2.598-2.834,5.904-14.17,7.085-19.601
					c1.181-5.432,1.653-10.627,1.653-10.627s-14.406-3.306-17.476-4.015c-3.07-0.708-8.266-1.889-8.266-1.889L355.707,221.319z"/>
				<path style="fill:#263238;stroke:#263238;stroke-linecap:round;stroke-linejoin:round;stroke-miterlimit:10;" d="
					M365.862,218.957c0,0,0.945,3.07-0.945,4.959c-1.889,1.889-2.598,1.889-2.598,1.889s0.472,3.07-0.236,3.07
					c-0.708,0-2.362-0.472-2.362-2.362s-1.181-3.542-1.181-3.542l-2.834-1.653c0,0-1.181-4.959,0.236-10.391
					c1.417-5.432,11.572-7.557,20.074-7.321c8.502,0.236,10.627,11.1,10.627,11.1s4.487,2.125,5.195,2.834
					c0.708,0.708,1.417,2.362-2.598,4.487c-4.015,2.125-11.1,2.834-15.35,1.181C369.64,221.555,365.862,218.957,365.862,218.957z"/>
				<path style="fill:#263238;" d="M371.586,231.564c-0.272,0.877-0.848,1.478-1.287,1.342c-0.439-0.136-0.573-0.958-0.301-1.835
					c0.272-0.877,0.848-1.478,1.287-1.342C371.723,229.865,371.858,230.686,371.586,231.564z"/>
				<path style="fill:#263238;" d="M381.412,232.32c-0.272,0.877-0.848,1.478-1.287,1.342c-0.439-0.136-0.573-0.957-0.301-1.835
					c0.272-0.877,0.848-1.478,1.287-1.342C381.55,230.621,381.684,231.442,381.412,232.32z"/>
				<path style="fill:none;stroke:#263238;stroke-linecap:round;stroke-linejoin:round;stroke-miterlimit:10;" d="M367.995,228.596
					c0,0,1.512-2.268,4.989-1.361"/>
				<path style="fill:none;stroke:#263238;stroke-linecap:round;stroke-linejoin:round;stroke-miterlimit:10;" d="M378.728,228.294
					c0,0,2.116-2.116,4.535,0.302"/>
				<path style="fill:#263238;stroke:#263238;stroke-linecap:round;stroke-linejoin:round;stroke-miterlimit:10;" d="
					M374.042,239.178c0,0-1.965,0-4.233,0.756c-2.268,0.756-5.594-0.151-4.082,1.814c1.512,1.965,4.384,2.57,7.408,2.57
					s5.745-0.151,6.652-1.512c0.907-1.361,2.268-2.721,1.21-2.872c-1.058-0.151-5.14-0.454-5.594-0.454
					C374.949,239.481,374.042,239.178,374.042,239.178z"/>
				<path style="fill:#FFFFFF;stroke:#263238;stroke-linecap:round;stroke-linejoin:round;stroke-miterlimit:10;" d="
					M377.973,230.41c0,0-0.302,8.315-0.605,9.826c-0.302,1.512-2.268,2.57-3.628,0.907s-2.419-4.082-2.419-4.082"/>
			</g>
		</g>
		<path style="fill:#FFFFFF;stroke:#263238;stroke-linecap:round;stroke-linejoin:round;stroke-miterlimit:10;" d="M410.19,279.444
			c0,0-7.199,1.175-10.199,3.175s-4.051,3.742-3.301,5.658c0.75,1.917,1.25,3.417,2.5,5.417s3.5,0.5,3.5,0.5s-1.5-1.5,0.25-3.25
			s8.25-4.25,8.25-4.25s1.25,0,2.25,0s0-2.75-0.75-4S411.94,278.944,410.19,279.444z"/>
		<path style="fill:#FFFFFF;stroke:#263238;stroke-linecap:round;stroke-linejoin:round;stroke-miterlimit:10;" d="M325.44,291.444
			c0,0,0,7.25,0.5,14.5s6.5,27.5,6.5,27.5l6-1.5c0,0-0.25-19-0.25-25s-0.25-13.25-0.25-13.25L325.44,291.444z"/>
		<path style="fill:#FFFFFF;stroke:#263238;stroke-linecap:round;stroke-linejoin:round;stroke-miterlimit:10;" d="M324.349,286.393
			c0.151-1.376,1.724-2.044,2.859-1.252c1.189,0.829,2.944,1.647,5.482,2.053c3.23,0.517,5.659,0.433,7.252,0.231
			c1.05-0.133,1.891,0.847,1.586,1.861c-0.624,2.076-1.574,4.894-2.338,5.658c-1.25,1.25-7.25,1.25-10.25,0.25s-3.75-1.75-4.5-4.25
			C324.102,289.814,324.171,288.02,324.349,286.393z"/>
		<path style="fill:#FFFFFF;stroke:#263238;stroke-linecap:round;stroke-linejoin:round;stroke-miterlimit:10;" d="M440.94,310.944
			c0,0,0.75-2.75,3-4.75s3.25-2.5,1-2.75s-5,3.25-5,3.25L440.94,310.944z"/>
		<path style="fill:#FFFFFF;stroke:#263238;stroke-linecap:round;stroke-linejoin:round;stroke-miterlimit:10;" d="M402.69,294.194
			c0,0,1.5,1.75,5.25,3.75s22.5,12.25,22.5,12.25l6.75-4c0,0-10.5-4.75-15.25-9.75s-8.5-9.75-8.5-9.75
			S400.94,287.444,402.69,294.194z"/>
		<path style="fill:#FFFFFF;stroke:#263238;stroke-linecap:round;stroke-linejoin:round;stroke-miterlimit:10;" d="M427.19,307.444
			c0,0,1,5.25,2.75,5.5s10.25-0.5,11-2s1.25-6.75,0-7S427.19,307.444,427.19,307.444z"/>
		<path style="fill:#FFFFFF;stroke:#263238;stroke-linecap:round;stroke-linejoin:round;stroke-miterlimit:10;" d="M333.197,339.516
			c0,0-1.673-2.308-4.484-3.384c-2.811-1.077-3.923-1.191-1.907-2.22c2.017-1.028,5.826,1.275,5.826,1.275L333.197,339.516z"/>
		<path style="fill:#FFFFFF;stroke:#263238;stroke-linecap:round;stroke-linejoin:round;stroke-miterlimit:10;" d="M344.825,331.386
			c0,0,0.919,5.265-0.63,6.117c-1.549,0.852-9.766,3.152-10.997,2.014c-1.231-1.139-3.553-5.874-2.472-6.549
			C331.806,332.292,344.825,331.386,344.825,331.386z"/>
	</g>
</g>
<g id="Plants">
	<g>
		<path style="fill:#263238;" d="M92.044,370.902c0.042,0.026,0.861-3.147,0.89-3.354c0.332-2.386-0.429-7.193-2.858-8.366
			c-1.75-0.845-3.707,0.172-4.345,1.924c-0.651,1.79,0.175,3.986,1.152,5.497C88.032,368.376,92.041,370.9,92.044,370.902z"/>
		<path style="fill:#263238;" d="M44.141,369.86c1.936,0.846,6.672,0.739,6.676,0.739c0.049-0.001-1.018-3.1-1.107-3.288
			c-1.04-2.174-4.325-5.763-6.999-5.402c-1.926,0.26-2.997,2.188-2.562,4.002C40.591,367.763,42.492,369.139,44.141,369.86z"/>
		<path style="fill:#263238;" d="M45.776,383.578c2.008,0.293,6.235-0.933,6.571-1.032c0.667,2.366,1.544,4.74,2.563,7.093
			c0.581,1.346,1.209,2.684,1.855,4.017c-0.386-0.565-0.735-1.067-0.791-1.132c-1.577-1.822-5.694-4.416-8.177-3.361
			c-1.789,0.76-2.313,2.902-1.415,4.536c0.917,1.669,3.114,2.495,4.895,2.754c1.807,0.263,5.431-0.709,6.387-0.98
			c0.253,0.509,0.5,1.02,0.755,1.528c1.224,2.437,2.456,4.864,3.591,7.281c0.401,0.852,0.764,1.705,1.13,2.558
			c-0.343-0.501-0.636-0.921-0.687-0.98c-1.576-1.822-5.694-4.416-8.177-3.362c-1.789,0.76-2.313,2.902-1.415,4.536
			c0.918,1.669,3.114,2.495,4.895,2.754c1.724,0.251,5.078-0.616,6.215-0.932c0.349,0.884,0.7,1.769,0.998,2.642
			c0.19,0.601,0.415,1.166,0.572,1.779c0.169,0.605,0.336,1.203,0.501,1.795c0.276,1.153,0.569,2.341,0.81,3.472
			c0.174,0.786,0.325,1.538,0.48,2.294c-0.389-0.852-1.185-2.505-1.267-2.635c-1.282-2.04-4.959-5.228-7.573-4.561
			c-1.884,0.48-2.726,2.518-2.086,4.27c0.654,1.789,2.7,2.938,4.421,3.464c1.895,0.579,6.09,0.05,6.613-0.02
			c0.251,1.254,0.484,2.475,0.685,3.631c0.426,2.414,0.752,4.589,1.004,6.456h1.763c-0.302-1.935-0.692-4.214-1.196-6.749
			c-0.25-1.274-0.543-2.63-0.857-4.02c0.315-0.125,2.104-0.849,3.69-1.735c1.381,1.496,4.92,3.246,5.378,3.469
			c-0.482,1.184-0.962,2.331-1.432,3.406c-0.919,2.115-1.793,4-2.576,5.629h1.902c0.667-1.488,1.392-3.164,2.146-5.007
			c0.494-1.2,0.998-2.493,1.503-3.826c0.508,0.106,4.66,0.95,6.596,0.513c1.755-0.397,3.881-1.39,4.667-3.125
			c0.769-1.699,0.081-3.794-1.762-4.413c-2.558-0.859-6.462,2.046-7.892,3.984c-0.084,0.114-0.861,1.457-1.338,2.313
			c0.204-0.546,0.407-1.073,0.61-1.637c0.408-1.113,0.783-2.235,1.19-3.441c0.176-0.589,0.354-1.185,0.534-1.786
			c0.191-0.592,0.318-1.242,0.481-1.869c0.347-1.46,0.629-2.957,0.879-4.472c0.975,0.355,4.456,1.566,6.26,1.439
			c1.795-0.126,4.047-0.786,5.086-2.382c1.018-1.563,0.655-3.738-1.073-4.629c-2.398-1.237-6.697,1.043-8.405,2.743
			c-0.107,0.106-1.195,1.463-1.778,2.22c0.143-0.911,0.291-1.82,0.406-2.747c0.332-2.675,0.585-5.394,0.849-8.104
			c0.08-0.831,0.171-1.657,0.258-2.484c0.345,0.13,4.452,1.659,6.472,1.517c1.795-0.126,4.047-0.786,5.086-2.382
			c1.018-1.563,0.655-3.738-1.073-4.629c-2.398-1.237-6.697,1.043-8.405,2.743c-0.129,0.128-1.692,2.083-2.065,2.6
			c0.193-1.823,0.401-3.637,0.68-5.417c0.381-2.457,0.891-4.847,1.555-7.126c0.161,0.061,4.44,1.676,6.508,1.531
			c1.795-0.126,4.047-0.786,5.086-2.382c1.018-1.563,0.655-3.738-1.073-4.629c-2.398-1.237-6.697,1.043-8.405,2.743
			c-0.112,0.112-1.304,1.599-1.855,2.321c-0.076-0.039-0.062-0.032-0.137-0.071c0.742-2.432,1.767-4.695,2.83-6.766
			c0.614-1.201,1.267-2.314,1.928-3.383c0.766,0.383,4.286,2.092,6.163,2.167c1.798,0.072,4.109-0.336,5.317-1.809
			c1.183-1.442,1.061-3.644-0.558-4.719c-2.248-1.493-6.771,0.301-8.655,1.803c-0.102,0.082-1.052,1.027-1.734,1.726
			c0.306-0.478,0.612-0.977,0.914-1.429c1.129-1.7,2.267-3.187,3.286-4.495c0.585-0.739,1.129-1.397,1.645-2.006
			c0.948-0.017,4.765-0.133,6.435-0.916c1.629-0.765,3.491-2.192,3.885-4.055c0.386-1.825-0.737-3.723-2.67-3.931
			c-2.683-0.289-5.87,3.388-6.851,5.589c-0.084,0.19-1.068,3.317-1.018,3.317c0,0,0.046-0.001,0.057-0.001
			c-0.508,0.576-1.045,1.2-1.619,1.894c-1.049,1.289-2.223,2.756-3.393,4.437c-1.174,1.677-2.402,3.534-3.518,5.605
			c-1.122,2.075-2.197,4.315-3.006,6.766c-0.009,0.028-0.015,0.058-0.024,0.086c0.014-0.79-0.021-3.001-0.043-3.171
			c-0.31-2.389-2.313-6.824-4.966-7.315c-1.912-0.353-3.53,1.144-3.683,3.003c-0.156,1.898,1.221,3.798,2.563,4.997
			c1.514,1.352,5.715,2.661,6.05,2.764c-0.749,2.341-1.327,4.805-1.775,7.33c-0.258,1.443-0.472,2.905-0.669,4.374
			c-0.01-0.684-0.024-1.295-0.035-1.38c-0.31-2.389-2.313-6.824-4.966-7.315c-1.912-0.353-3.53,1.144-3.683,3.003
			c-0.156,1.898,1.221,3.798,2.563,4.997c1.362,1.216,4.921,2.405,5.867,2.706c-0.069,0.564-0.145,1.127-0.212,1.691
			c-0.324,2.708-0.635,5.411-1.021,8.054c-0.136,0.931-0.304,1.844-0.468,2.757c-0.01-0.607-0.023-1.119-0.033-1.197
			c-0.31-2.389-2.312-6.824-4.966-7.314c-1.911-0.354-3.53,1.144-3.683,3.003c-0.156,1.898,1.221,3.798,2.563,4.997
			c1.299,1.161,4.575,2.287,5.698,2.651c-0.197,0.93-0.392,1.862-0.625,2.754c-0.173,0.606-0.297,1.201-0.504,1.8
			c-0.193,0.597-0.384,1.188-0.572,1.774c-0.406,1.114-0.817,2.266-1.24,3.343c-0.288,0.751-0.577,1.462-0.866,2.178
			c0.146-0.925,0.394-2.743,0.397-2.897c0.037-1.601-0.532-4.203-1.663-6.032c0.007-0.236-0.007-0.472-0.044-0.706
			c-0.296-1.841-2.026-3.209-3.904-2.709c-2.607,0.694-4.261,5.271-4.385,7.677c-0.007,0.142,0.086,1.691,0.16,2.667
			c-0.131-0.567-0.252-1.119-0.395-1.702c-0.273-1.153-0.58-2.296-0.906-3.527c-0.178-0.589-0.358-1.183-0.54-1.784
			c-0.167-0.6-0.421-1.211-0.63-1.824c-0.516-1.41-1.107-2.814-1.734-4.215c1.009-0.242,4.581-1.152,6.015-2.253
			c1.428-1.095,2.942-2.888,2.928-4.792c-0.013-1.865-1.516-3.479-3.449-3.269c-2.682,0.291-5.01,4.564-5.497,6.924
			c-0.03,0.147-0.189,1.88-0.258,2.833c-0.384-0.839-0.762-1.679-1.177-2.515c-1.199-2.414-2.487-4.821-3.763-7.228
			c-0.391-0.737-0.771-1.476-1.156-2.214c0.36-0.082,4.629-1.073,6.235-2.305c1.428-1.095,2.942-2.888,2.928-4.792
			c-0.013-1.865-1.516-3.479-3.449-3.269c-2.683,0.292-5.01,4.565-5.497,6.924c-0.036,0.178-0.262,2.671-0.288,3.308
			c-0.845-1.626-1.672-3.255-2.422-4.894c-1.038-2.26-1.931-4.534-2.634-6.801c0.168-0.038,4.628-1.051,6.273-2.314
			c1.428-1.095,2.942-2.888,2.928-4.792c-0.013-1.865-1.516-3.479-3.449-3.269c-2.683,0.291-5.01,4.565-5.497,6.924
			c-0.032,0.155-0.206,2.055-0.267,2.96c-0.084,0.009-0.069,0.007-0.153,0.016c-0.723-2.438-1.117-4.891-1.372-7.206
			c-0.151-1.34-0.22-2.629-0.258-3.885c0.85-0.104,4.729-0.62,6.335-1.592c1.539-0.932,3.241-2.547,3.437-4.442
			c0.191-1.855-1.125-3.625-3.069-3.628c-2.698-0.005-5.481,3.987-6.224,6.279c-0.041,0.124-0.311,1.437-0.495,2.396
			c-0.009-0.567-0.028-1.152-0.026-1.695c0.004-2.04,0.133-3.909,0.26-5.562c0.08-0.94,0.172-1.788,0.265-2.581
			c0.781-0.537,3.902-2.74,4.861-4.314c0.937-1.536,1.703-3.754,1.004-5.526c-0.685-1.735-2.669-2.698-4.396-1.806
			c-2.397,1.239-3.027,6.064-2.631,8.441c0.035,0.205,0.94,3.356,0.981,3.328c0,0,0.038-0.026,0.047-0.032
			c-0.105,0.761-0.209,1.578-0.306,2.473c-0.164,1.654-0.334,3.525-0.382,5.573c-0.053,2.047-0.054,4.272,0.158,6.616
			c0.209,2.35,0.548,4.811,1.225,7.301c0.008,0.028,0.019,0.056,0.027,0.084c-0.424-0.667-1.674-2.492-1.785-2.621
			c-1.577-1.822-5.694-4.416-8.177-3.362c-1.789,0.76-2.313,2.902-1.415,4.537C41.799,382.493,43.995,383.319,45.776,383.578z"/>
		<path style="opacity:0.3;fill:#263238;" d="M44.141,369.86c1.936,0.846,6.672,0.739,6.676,0.739
			c0.049-0.001-1.018-3.1-1.107-3.288c-1.04-2.174-4.325-5.763-6.999-5.402c-1.926,0.26-2.997,2.188-2.562,4.002
			C40.591,367.763,42.492,369.139,44.141,369.86z"/>
		<path style="opacity:0.3;fill:#263238;" d="M92.044,370.902c0.042,0.026,0.861-3.147,0.89-3.354
			c0.332-2.386-0.429-7.193-2.858-8.366c-1.75-0.845-3.707,0.172-4.345,1.924c-0.651,1.79,0.175,3.986,1.152,5.497
			C88.032,368.376,92.041,370.9,92.044,370.902z"/>
		<path style="opacity:0.3;fill:#263238;" d="M45.776,383.578c2.008,0.293,6.235-0.933,6.571-1.032
			c0.667,2.366,1.544,4.74,2.563,7.093c0.581,1.346,1.209,2.684,1.855,4.017c-0.386-0.565-0.735-1.067-0.791-1.132
			c-1.577-1.822-5.694-4.416-8.177-3.361c-1.789,0.76-2.313,2.902-1.415,4.536c0.917,1.669,3.114,2.495,4.895,2.754
			c1.807,0.263,5.431-0.709,6.387-0.98c0.253,0.509,0.5,1.02,0.755,1.528c1.224,2.437,2.456,4.864,3.591,7.281
			c0.401,0.852,0.764,1.705,1.13,2.558c-0.343-0.501-0.636-0.921-0.687-0.98c-1.576-1.822-5.694-4.416-8.177-3.362
			c-1.789,0.76-2.313,2.902-1.415,4.536c0.918,1.669,3.114,2.495,4.895,2.754c1.724,0.251,5.078-0.616,6.215-0.932
			c0.349,0.884,0.7,1.769,0.998,2.642c0.19,0.601,0.415,1.166,0.572,1.779c0.169,0.605,0.336,1.203,0.501,1.795
			c0.276,1.153,0.569,2.341,0.81,3.472c0.174,0.786,0.325,1.538,0.48,2.294c-0.389-0.852-1.185-2.505-1.267-2.635
			c-1.282-2.04-4.959-5.228-7.573-4.561c-1.884,0.48-2.726,2.518-2.086,4.27c0.654,1.789,2.7,2.938,4.421,3.464
			c1.895,0.579,6.09,0.05,6.613-0.02c0.251,1.254,0.484,2.475,0.685,3.631c0.426,2.414,0.752,4.589,1.004,6.456h1.763
			c-0.302-1.935-0.692-4.214-1.196-6.749c-0.25-1.274-0.543-2.63-0.857-4.02c0.315-0.125,2.104-0.849,3.69-1.735
			c1.381,1.496,4.92,3.246,5.378,3.469c-0.482,1.184-0.962,2.331-1.432,3.406c-0.919,2.115-1.793,4-2.576,5.629h1.902
			c0.667-1.488,1.392-3.164,2.146-5.007c0.494-1.2,0.998-2.493,1.503-3.826c0.508,0.106,4.66,0.95,6.596,0.513
			c1.755-0.397,3.881-1.39,4.667-3.125c0.769-1.699,0.081-3.794-1.762-4.413c-2.558-0.859-6.462,2.046-7.892,3.984
			c-0.084,0.114-0.861,1.457-1.338,2.313c0.204-0.546,0.407-1.073,0.61-1.637c0.408-1.113,0.783-2.235,1.19-3.441
			c0.176-0.589,0.354-1.185,0.534-1.786c0.191-0.592,0.318-1.242,0.481-1.869c0.347-1.46,0.629-2.957,0.879-4.472
			c0.975,0.355,4.456,1.566,6.26,1.439c1.795-0.126,4.047-0.786,5.086-2.382c1.018-1.563,0.655-3.738-1.073-4.629
			c-2.398-1.237-6.697,1.043-8.405,2.743c-0.107,0.106-1.195,1.463-1.778,2.22c0.143-0.911,0.291-1.82,0.406-2.747
			c0.332-2.675,0.585-5.394,0.849-8.104c0.08-0.831,0.171-1.657,0.258-2.484c0.345,0.13,4.452,1.659,6.472,1.517
			c1.795-0.126,4.047-0.786,5.086-2.382c1.018-1.563,0.655-3.738-1.073-4.629c-2.398-1.237-6.697,1.043-8.405,2.743
			c-0.129,0.128-1.692,2.083-2.065,2.6c0.193-1.823,0.401-3.637,0.68-5.417c0.381-2.457,0.891-4.847,1.555-7.126
			c0.161,0.061,4.44,1.676,6.508,1.531c1.795-0.126,4.047-0.786,5.086-2.382c1.018-1.563,0.655-3.738-1.073-4.629
			c-2.398-1.237-6.697,1.043-8.405,2.743c-0.112,0.112-1.304,1.599-1.855,2.321c-0.076-0.039-0.062-0.032-0.137-0.071
			c0.742-2.432,1.767-4.695,2.83-6.766c0.614-1.201,1.267-2.314,1.928-3.383c0.766,0.383,4.286,2.092,6.163,2.167
			c1.798,0.072,4.109-0.336,5.317-1.809c1.183-1.442,1.061-3.644-0.558-4.719c-2.248-1.493-6.771,0.301-8.655,1.803
			c-0.102,0.082-1.052,1.027-1.734,1.726c0.306-0.478,0.612-0.977,0.914-1.429c1.129-1.7,2.267-3.187,3.286-4.495
			c0.585-0.739,1.129-1.397,1.645-2.006c0.948-0.017,4.765-0.133,6.435-0.916c1.629-0.765,3.491-2.192,3.885-4.055
			c0.386-1.825-0.737-3.723-2.67-3.931c-2.683-0.289-5.87,3.388-6.851,5.589c-0.084,0.19-1.068,3.317-1.018,3.317
			c0,0,0.046-0.001,0.057-0.001c-0.508,0.576-1.045,1.2-1.619,1.894c-1.049,1.289-2.223,2.756-3.393,4.437
			c-1.174,1.677-2.402,3.534-3.518,5.605c-1.122,2.075-2.197,4.315-3.006,6.766c-0.009,0.028-0.015,0.058-0.024,0.086
			c0.014-0.79-0.021-3.001-0.043-3.171c-0.31-2.389-2.313-6.824-4.966-7.315c-1.912-0.353-3.53,1.144-3.683,3.003
			c-0.156,1.898,1.221,3.798,2.563,4.997c1.514,1.352,5.715,2.661,6.05,2.764c-0.749,2.341-1.327,4.805-1.775,7.33
			c-0.258,1.443-0.472,2.905-0.669,4.374c-0.01-0.684-0.024-1.295-0.035-1.38c-0.31-2.389-2.313-6.824-4.966-7.315
			c-1.912-0.353-3.53,1.144-3.683,3.003c-0.156,1.898,1.221,3.798,2.563,4.997c1.362,1.216,4.921,2.405,5.867,2.706
			c-0.069,0.564-0.145,1.127-0.212,1.691c-0.324,2.708-0.635,5.411-1.021,8.054c-0.136,0.931-0.304,1.844-0.468,2.757
			c-0.01-0.607-0.023-1.119-0.033-1.197c-0.31-2.389-2.312-6.824-4.966-7.314c-1.911-0.354-3.53,1.144-3.683,3.003
			c-0.156,1.898,1.221,3.798,2.563,4.997c1.299,1.161,4.575,2.287,5.698,2.651c-0.197,0.93-0.392,1.862-0.625,2.754
			c-0.173,0.606-0.297,1.201-0.504,1.8c-0.193,0.597-0.384,1.188-0.572,1.774c-0.406,1.114-0.817,2.266-1.24,3.343
			c-0.288,0.751-0.577,1.462-0.866,2.178c0.146-0.925,0.394-2.743,0.397-2.897c0.037-1.601-0.532-4.203-1.663-6.032
			c0.007-0.236-0.007-0.472-0.044-0.706c-0.296-1.841-2.026-3.209-3.904-2.709c-2.607,0.694-4.261,5.271-4.385,7.677
			c-0.007,0.142,0.086,1.691,0.16,2.667c-0.131-0.567-0.252-1.119-0.395-1.702c-0.273-1.153-0.58-2.296-0.906-3.527
			c-0.178-0.589-0.358-1.183-0.54-1.784c-0.167-0.6-0.421-1.211-0.63-1.824c-0.516-1.41-1.107-2.814-1.734-4.215
			c1.009-0.242,4.581-1.152,6.015-2.253c1.428-1.095,2.942-2.888,2.928-4.792c-0.013-1.865-1.516-3.479-3.449-3.269
			c-2.682,0.291-5.01,4.564-5.497,6.924c-0.03,0.147-0.189,1.88-0.258,2.833c-0.384-0.839-0.762-1.679-1.177-2.515
			c-1.199-2.414-2.487-4.821-3.763-7.228c-0.391-0.737-0.771-1.476-1.156-2.214c0.36-0.082,4.629-1.073,6.235-2.305
			c1.428-1.095,2.942-2.888,2.928-4.792c-0.013-1.865-1.516-3.479-3.449-3.269c-2.683,0.292-5.01,4.565-5.497,6.924
			c-0.036,0.178-0.262,2.671-0.288,3.308c-0.845-1.626-1.672-3.255-2.422-4.894c-1.038-2.26-1.931-4.534-2.634-6.801
			c0.168-0.038,4.628-1.051,6.273-2.314c1.428-1.095,2.942-2.888,2.928-4.792c-0.013-1.865-1.516-3.479-3.449-3.269
			c-2.683,0.291-5.01,4.565-5.497,6.924c-0.032,0.155-0.206,2.055-0.267,2.96c-0.084,0.009-0.069,0.007-0.153,0.016
			c-0.723-2.438-1.117-4.891-1.372-7.206c-0.151-1.34-0.22-2.629-0.258-3.885c0.85-0.104,4.729-0.62,6.335-1.592
			c1.539-0.932,3.241-2.547,3.437-4.442c0.191-1.855-1.125-3.625-3.069-3.628c-2.698-0.005-5.481,3.987-6.224,6.279
			c-0.041,0.124-0.311,1.437-0.495,2.396c-0.009-0.567-0.028-1.152-0.026-1.695c0.004-2.04,0.133-3.909,0.26-5.562
			c0.08-0.94,0.172-1.788,0.265-2.581c0.781-0.537,3.902-2.74,4.861-4.314c0.937-1.536,1.703-3.754,1.004-5.526
			c-0.685-1.735-2.669-2.698-4.396-1.806c-2.397,1.239-3.027,6.064-2.631,8.441c0.035,0.205,0.94,3.356,0.981,3.328
			c0,0,0.038-0.026,0.047-0.032c-0.105,0.761-0.209,1.578-0.306,2.473c-0.164,1.654-0.334,3.525-0.382,5.573
			c-0.053,2.047-0.054,4.272,0.158,6.616c0.209,2.35,0.548,4.811,1.225,7.301c0.008,0.028,0.019,0.056,0.027,0.084
			c-0.424-0.667-1.674-2.492-1.785-2.621c-1.577-1.822-5.694-4.416-8.177-3.362c-1.789,0.76-2.313,2.902-1.415,4.537
			C41.799,382.493,43.995,383.319,45.776,383.578z"/>
	</g>
	<g>
		<path style="fill:#263238;" d="M699.316,370.902c0.042,0.026,0.861-3.147,0.89-3.354c0.332-2.386-0.428-7.193-2.858-8.366
			c-1.75-0.845-3.707,0.172-4.345,1.924c-0.651,1.79,0.175,3.986,1.153,5.497C695.303,368.376,699.313,370.9,699.316,370.902z"/>
		<path style="fill:#263238;" d="M651.412,369.86c1.936,0.846,6.672,0.739,6.676,0.739c0.049-0.001-1.018-3.1-1.107-3.288
			c-1.039-2.174-4.325-5.763-6.999-5.402c-1.926,0.26-2.997,2.188-2.562,4.002C647.863,367.763,649.763,369.139,651.412,369.86z"/>
		<path style="fill:#263238;" d="M653.047,383.578c2.008,0.293,6.235-0.933,6.571-1.032c0.667,2.366,1.544,4.74,2.563,7.093
			c0.581,1.346,1.209,2.684,1.855,4.017c-0.385-0.565-0.734-1.067-0.791-1.132c-1.577-1.822-5.694-4.416-8.177-3.361
			c-1.789,0.76-2.313,2.902-1.415,4.536c0.917,1.669,3.114,2.495,4.895,2.754c1.807,0.263,5.432-0.709,6.387-0.98
			c0.253,0.509,0.5,1.02,0.755,1.528c1.224,2.437,2.456,4.864,3.591,7.281c0.401,0.852,0.764,1.705,1.13,2.558
			c-0.343-0.501-0.636-0.921-0.687-0.98c-1.576-1.822-5.693-4.416-8.177-3.362c-1.789,0.76-2.313,2.902-1.415,4.536
			c0.918,1.669,3.114,2.495,4.895,2.754c1.724,0.251,5.078-0.616,6.215-0.932c0.349,0.884,0.7,1.769,0.998,2.642
			c0.19,0.601,0.415,1.166,0.572,1.779c0.169,0.605,0.336,1.203,0.501,1.795c0.276,1.153,0.569,2.341,0.81,3.472
			c0.174,0.786,0.325,1.538,0.48,2.294c-0.389-0.852-1.185-2.505-1.267-2.635c-1.282-2.04-4.959-5.228-7.573-4.561
			c-1.884,0.48-2.726,2.518-2.086,4.27c0.654,1.789,2.7,2.938,4.421,3.464c1.895,0.579,6.09,0.05,6.613-0.02
			c0.251,1.254,0.484,2.475,0.685,3.631c0.426,2.414,0.752,4.589,1.004,6.456h1.763c-0.302-1.935-0.692-4.214-1.196-6.749
			c-0.25-1.274-0.543-2.63-0.857-4.02c0.315-0.125,2.104-0.849,3.69-1.735c1.381,1.496,4.92,3.246,5.378,3.469
			c-0.482,1.184-0.962,2.331-1.432,3.406c-0.919,2.115-1.793,4-2.576,5.629h1.903c0.667-1.488,1.392-3.164,2.146-5.007
			c0.494-1.2,0.998-2.493,1.503-3.826c0.508,0.106,4.661,0.95,6.596,0.513c1.755-0.397,3.881-1.39,4.667-3.125
			c0.769-1.699,0.081-3.794-1.762-4.413c-2.558-0.859-6.462,2.046-7.892,3.984c-0.084,0.114-0.861,1.457-1.338,2.313
			c0.204-0.546,0.407-1.073,0.61-1.637c0.408-1.113,0.783-2.235,1.19-3.441c0.176-0.589,0.354-1.185,0.534-1.786
			c0.191-0.592,0.318-1.242,0.481-1.869c0.347-1.46,0.629-2.957,0.879-4.472c0.975,0.355,4.456,1.566,6.26,1.439
			c1.795-0.126,4.047-0.786,5.086-2.382c1.018-1.563,0.655-3.738-1.073-4.629c-2.398-1.237-6.697,1.043-8.405,2.743
			c-0.107,0.106-1.195,1.463-1.778,2.22c0.143-0.911,0.291-1.82,0.406-2.747c0.332-2.675,0.585-5.394,0.849-8.104
			c0.081-0.831,0.171-1.657,0.258-2.484c0.346,0.13,4.452,1.659,6.472,1.517c1.795-0.126,4.047-0.786,5.086-2.382
			c1.018-1.563,0.655-3.738-1.073-4.629c-2.398-1.237-6.697,1.043-8.405,2.743c-0.129,0.128-1.692,2.083-2.065,2.6
			c0.193-1.823,0.401-3.637,0.68-5.417c0.381-2.457,0.891-4.847,1.555-7.126c0.161,0.061,4.44,1.676,6.508,1.531
			c1.795-0.126,4.047-0.786,5.086-2.382c1.018-1.563,0.655-3.738-1.073-4.629c-2.398-1.237-6.697,1.043-8.405,2.743
			c-0.112,0.112-1.304,1.599-1.855,2.321c-0.076-0.039-0.062-0.032-0.137-0.071c0.742-2.432,1.766-4.695,2.83-6.766
			c0.614-1.201,1.268-2.314,1.928-3.383c0.766,0.383,4.286,2.092,6.162,2.167c1.798,0.072,4.109-0.336,5.317-1.809
			c1.183-1.442,1.061-3.644-0.558-4.719c-2.248-1.493-6.771,0.301-8.655,1.803c-0.102,0.082-1.052,1.027-1.734,1.726
			c0.305-0.478,0.612-0.977,0.914-1.429c1.129-1.7,2.267-3.187,3.286-4.495c0.586-0.739,1.129-1.397,1.645-2.006
			c0.948-0.017,4.765-0.133,6.435-0.916c1.629-0.765,3.491-2.192,3.885-4.055c0.385-1.825-0.737-3.723-2.67-3.931
			c-2.683-0.289-5.87,3.388-6.851,5.589c-0.084,0.19-1.068,3.317-1.018,3.317c0,0,0.046-0.001,0.057-0.001
			c-0.508,0.576-1.045,1.2-1.619,1.894c-1.049,1.289-2.223,2.756-3.393,4.437c-1.174,1.677-2.402,3.534-3.518,5.605
			c-1.122,2.075-2.197,4.315-3.006,6.766c-0.009,0.028-0.015,0.058-0.024,0.086c0.014-0.79-0.021-3.001-0.043-3.171
			c-0.31-2.389-2.313-6.824-4.966-7.315c-1.912-0.353-3.53,1.144-3.683,3.003c-0.156,1.898,1.221,3.798,2.563,4.997
			c1.513,1.352,5.715,2.661,6.05,2.764c-0.749,2.341-1.327,4.805-1.775,7.33c-0.258,1.443-0.472,2.905-0.669,4.374
			c-0.01-0.684-0.024-1.295-0.035-1.38c-0.31-2.389-2.313-6.824-4.966-7.315c-1.912-0.353-3.53,1.144-3.683,3.003
			c-0.156,1.898,1.221,3.798,2.563,4.997c1.362,1.216,4.921,2.405,5.867,2.706c-0.069,0.564-0.145,1.127-0.212,1.691
			c-0.324,2.708-0.635,5.411-1.021,8.054c-0.136,0.931-0.304,1.844-0.468,2.757c-0.01-0.607-0.023-1.119-0.033-1.197
			c-0.31-2.389-2.312-6.824-4.966-7.314c-1.911-0.354-3.53,1.144-3.683,3.003c-0.156,1.898,1.221,3.798,2.563,4.997
			c1.299,1.161,4.575,2.287,5.698,2.651c-0.197,0.93-0.392,1.862-0.625,2.754c-0.173,0.606-0.297,1.201-0.504,1.8
			c-0.193,0.597-0.384,1.188-0.572,1.774c-0.406,1.114-0.817,2.266-1.24,3.343c-0.288,0.751-0.577,1.462-0.866,2.178
			c0.146-0.925,0.393-2.743,0.397-2.897c0.037-1.601-0.531-4.203-1.663-6.032c0.007-0.236-0.007-0.472-0.044-0.706
			c-0.296-1.841-2.026-3.209-3.904-2.709c-2.607,0.694-4.261,5.271-4.385,7.677c-0.008,0.142,0.086,1.691,0.16,2.667
			c-0.131-0.567-0.252-1.119-0.395-1.702c-0.273-1.153-0.58-2.296-0.906-3.527c-0.178-0.589-0.358-1.183-0.54-1.784
			c-0.167-0.6-0.421-1.211-0.63-1.824c-0.516-1.41-1.107-2.814-1.734-4.215c1.009-0.242,4.581-1.152,6.015-2.253
			c1.428-1.095,2.942-2.888,2.928-4.792c-0.013-1.865-1.516-3.479-3.449-3.269c-2.682,0.291-5.01,4.564-5.497,6.924
			c-0.03,0.147-0.189,1.88-0.258,2.833c-0.384-0.839-0.762-1.679-1.177-2.515c-1.199-2.414-2.487-4.821-3.763-7.228
			c-0.391-0.737-0.771-1.476-1.156-2.214c0.36-0.082,4.629-1.073,6.235-2.305c1.428-1.095,2.942-2.888,2.929-4.792
			c-0.014-1.865-1.516-3.479-3.449-3.269c-2.683,0.292-5.01,4.565-5.497,6.924c-0.036,0.178-0.262,2.671-0.288,3.308
			c-0.845-1.626-1.672-3.255-2.422-4.894c-1.038-2.26-1.932-4.534-2.634-6.801c0.168-0.038,4.628-1.051,6.273-2.314
			c1.428-1.095,2.942-2.888,2.928-4.792c-0.013-1.865-1.516-3.479-3.448-3.269c-2.683,0.291-5.01,4.565-5.497,6.924
			c-0.032,0.155-0.206,2.055-0.267,2.96c-0.084,0.009-0.069,0.007-0.153,0.016c-0.724-2.438-1.117-4.891-1.372-7.206
			c-0.15-1.34-0.219-2.629-0.258-3.885c0.85-0.104,4.729-0.62,6.335-1.592c1.539-0.932,3.241-2.547,3.437-4.442
			c0.191-1.855-1.125-3.625-3.069-3.628c-2.698-0.005-5.481,3.987-6.224,6.279c-0.041,0.124-0.311,1.437-0.495,2.396
			c-0.009-0.567-0.028-1.152-0.026-1.695c0.004-2.04,0.133-3.909,0.26-5.562c0.08-0.94,0.172-1.788,0.265-2.581
			c0.781-0.537,3.901-2.74,4.862-4.314c0.937-1.536,1.703-3.754,1.004-5.526c-0.685-1.735-2.669-2.698-4.396-1.806
			c-2.397,1.239-3.027,6.064-2.631,8.441c0.034,0.205,0.94,3.356,0.981,3.328c0,0,0.038-0.026,0.047-0.032
			c-0.105,0.761-0.21,1.578-0.305,2.473c-0.164,1.654-0.334,3.525-0.382,5.573c-0.053,2.047-0.054,4.272,0.158,6.616
			c0.208,2.35,0.548,4.811,1.225,7.301c0.008,0.028,0.019,0.056,0.027,0.084c-0.424-0.667-1.674-2.492-1.785-2.621
			c-1.577-1.822-5.694-4.416-8.177-3.362c-1.789,0.76-2.314,2.902-1.415,4.537C649.07,382.493,651.266,383.319,653.047,383.578z"/>
		<path style="opacity:0.3;fill:#263238;" d="M651.412,369.86c1.936,0.846,6.672,0.739,6.676,0.739
			c0.049-0.001-1.018-3.1-1.107-3.288c-1.039-2.174-4.325-5.763-6.999-5.402c-1.926,0.26-2.997,2.188-2.562,4.002
			C647.863,367.763,649.763,369.139,651.412,369.86z"/>
		<path style="opacity:0.3;fill:#263238;" d="M699.316,370.902c0.042,0.026,0.861-3.147,0.89-3.354
			c0.332-2.386-0.428-7.193-2.858-8.366c-1.75-0.845-3.707,0.172-4.345,1.924c-0.651,1.79,0.175,3.986,1.153,5.497
			C695.303,368.376,699.313,370.9,699.316,370.902z"/>
		<path style="opacity:0.3;fill:#263238;" d="M653.047,383.578c2.008,0.293,6.235-0.933,6.571-1.032
			c0.667,2.366,1.544,4.74,2.563,7.093c0.581,1.346,1.209,2.684,1.855,4.017c-0.385-0.565-0.734-1.067-0.791-1.132
			c-1.577-1.822-5.694-4.416-8.177-3.361c-1.789,0.76-2.313,2.902-1.415,4.536c0.917,1.669,3.114,2.495,4.895,2.754
			c1.807,0.263,5.432-0.709,6.387-0.98c0.253,0.509,0.5,1.02,0.755,1.528c1.224,2.437,2.456,4.864,3.591,7.281
			c0.401,0.852,0.764,1.705,1.13,2.558c-0.343-0.501-0.636-0.921-0.687-0.98c-1.576-1.822-5.693-4.416-8.177-3.362
			c-1.789,0.76-2.313,2.902-1.415,4.536c0.918,1.669,3.114,2.495,4.895,2.754c1.724,0.251,5.078-0.616,6.215-0.932
			c0.349,0.884,0.7,1.769,0.998,2.642c0.19,0.601,0.415,1.166,0.572,1.779c0.169,0.605,0.336,1.203,0.501,1.795
			c0.276,1.153,0.569,2.341,0.81,3.472c0.174,0.786,0.325,1.538,0.48,2.294c-0.389-0.852-1.185-2.505-1.267-2.635
			c-1.282-2.04-4.959-5.228-7.573-4.561c-1.884,0.48-2.726,2.518-2.086,4.27c0.654,1.789,2.7,2.938,4.421,3.464
			c1.895,0.579,6.09,0.05,6.613-0.02c0.251,1.254,0.484,2.475,0.685,3.631c0.426,2.414,0.752,4.589,1.004,6.456h1.763
			c-0.302-1.935-0.692-4.214-1.196-6.749c-0.25-1.274-0.543-2.63-0.857-4.02c0.315-0.125,2.104-0.849,3.69-1.735
			c1.381,1.496,4.92,3.246,5.378,3.469c-0.482,1.184-0.962,2.331-1.432,3.406c-0.919,2.115-1.793,4-2.576,5.629h1.903
			c0.667-1.488,1.392-3.164,2.146-5.007c0.494-1.2,0.998-2.493,1.503-3.826c0.508,0.106,4.661,0.95,6.596,0.513
			c1.755-0.397,3.881-1.39,4.667-3.125c0.769-1.699,0.081-3.794-1.762-4.413c-2.558-0.859-6.462,2.046-7.892,3.984
			c-0.084,0.114-0.861,1.457-1.338,2.313c0.204-0.546,0.407-1.073,0.61-1.637c0.408-1.113,0.783-2.235,1.19-3.441
			c0.176-0.589,0.354-1.185,0.534-1.786c0.191-0.592,0.318-1.242,0.481-1.869c0.347-1.46,0.629-2.957,0.879-4.472
			c0.975,0.355,4.456,1.566,6.26,1.439c1.795-0.126,4.047-0.786,5.086-2.382c1.018-1.563,0.655-3.738-1.073-4.629
			c-2.398-1.237-6.697,1.043-8.405,2.743c-0.107,0.106-1.195,1.463-1.778,2.22c0.143-0.911,0.291-1.82,0.406-2.747
			c0.332-2.675,0.585-5.394,0.849-8.104c0.081-0.831,0.171-1.657,0.258-2.484c0.346,0.13,4.452,1.659,6.472,1.517
			c1.795-0.126,4.047-0.786,5.086-2.382c1.018-1.563,0.655-3.738-1.073-4.629c-2.398-1.237-6.697,1.043-8.405,2.743
			c-0.129,0.128-1.692,2.083-2.065,2.6c0.193-1.823,0.401-3.637,0.68-5.417c0.381-2.457,0.891-4.847,1.555-7.126
			c0.161,0.061,4.44,1.676,6.508,1.531c1.795-0.126,4.047-0.786,5.086-2.382c1.018-1.563,0.655-3.738-1.073-4.629
			c-2.398-1.237-6.697,1.043-8.405,2.743c-0.112,0.112-1.304,1.599-1.855,2.321c-0.076-0.039-0.062-0.032-0.137-0.071
			c0.742-2.432,1.766-4.695,2.83-6.766c0.614-1.201,1.268-2.314,1.928-3.383c0.766,0.383,4.286,2.092,6.162,2.167
			c1.798,0.072,4.109-0.336,5.317-1.809c1.183-1.442,1.061-3.644-0.558-4.719c-2.248-1.493-6.771,0.301-8.655,1.803
			c-0.102,0.082-1.052,1.027-1.734,1.726c0.305-0.478,0.612-0.977,0.914-1.429c1.129-1.7,2.267-3.187,3.286-4.495
			c0.586-0.739,1.129-1.397,1.645-2.006c0.948-0.017,4.765-0.133,6.435-0.916c1.629-0.765,3.491-2.192,3.885-4.055
			c0.385-1.825-0.737-3.723-2.67-3.931c-2.683-0.289-5.87,3.388-6.851,5.589c-0.084,0.19-1.068,3.317-1.018,3.317
			c0,0,0.046-0.001,0.057-0.001c-0.508,0.576-1.045,1.2-1.619,1.894c-1.049,1.289-2.223,2.756-3.393,4.437
			c-1.174,1.677-2.402,3.534-3.518,5.605c-1.122,2.075-2.197,4.315-3.006,6.766c-0.009,0.028-0.015,0.058-0.024,0.086
			c0.014-0.79-0.021-3.001-0.043-3.171c-0.31-2.389-2.313-6.824-4.966-7.315c-1.912-0.353-3.53,1.144-3.683,3.003
			c-0.156,1.898,1.221,3.798,2.563,4.997c1.513,1.352,5.715,2.661,6.05,2.764c-0.749,2.341-1.327,4.805-1.775,7.33
			c-0.258,1.443-0.472,2.905-0.669,4.374c-0.01-0.684-0.024-1.295-0.035-1.38c-0.31-2.389-2.313-6.824-4.966-7.315
			c-1.912-0.353-3.53,1.144-3.683,3.003c-0.156,1.898,1.221,3.798,2.563,4.997c1.362,1.216,4.921,2.405,5.867,2.706
			c-0.069,0.564-0.145,1.127-0.212,1.691c-0.324,2.708-0.635,5.411-1.021,8.054c-0.136,0.931-0.304,1.844-0.468,2.757
			c-0.01-0.607-0.023-1.119-0.033-1.197c-0.31-2.389-2.312-6.824-4.966-7.314c-1.911-0.354-3.53,1.144-3.683,3.003
			c-0.156,1.898,1.221,3.798,2.563,4.997c1.299,1.161,4.575,2.287,5.698,2.651c-0.197,0.93-0.392,1.862-0.625,2.754
			c-0.173,0.606-0.297,1.201-0.504,1.8c-0.193,0.597-0.384,1.188-0.572,1.774c-0.406,1.114-0.817,2.266-1.24,3.343
			c-0.288,0.751-0.577,1.462-0.866,2.178c0.146-0.925,0.393-2.743,0.397-2.897c0.037-1.601-0.531-4.203-1.663-6.032
			c0.007-0.236-0.007-0.472-0.044-0.706c-0.296-1.841-2.026-3.209-3.904-2.709c-2.607,0.694-4.261,5.271-4.385,7.677
			c-0.008,0.142,0.086,1.691,0.16,2.667c-0.131-0.567-0.252-1.119-0.395-1.702c-0.273-1.153-0.58-2.296-0.906-3.527
			c-0.178-0.589-0.358-1.183-0.54-1.784c-0.167-0.6-0.421-1.211-0.63-1.824c-0.516-1.41-1.107-2.814-1.734-4.215
			c1.009-0.242,4.581-1.152,6.015-2.253c1.428-1.095,2.942-2.888,2.928-4.792c-0.013-1.865-1.516-3.479-3.449-3.269
			c-2.682,0.291-5.01,4.564-5.497,6.924c-0.03,0.147-0.189,1.88-0.258,2.833c-0.384-0.839-0.762-1.679-1.177-2.515
			c-1.199-2.414-2.487-4.821-3.763-7.228c-0.391-0.737-0.771-1.476-1.156-2.214c0.36-0.082,4.629-1.073,6.235-2.305
			c1.428-1.095,2.942-2.888,2.929-4.792c-0.014-1.865-1.516-3.479-3.449-3.269c-2.683,0.292-5.01,4.565-5.497,6.924
			c-0.036,0.178-0.262,2.671-0.288,3.308c-0.845-1.626-1.672-3.255-2.422-4.894c-1.038-2.26-1.932-4.534-2.634-6.801
			c0.168-0.038,4.628-1.051,6.273-2.314c1.428-1.095,2.942-2.888,2.928-4.792c-0.013-1.865-1.516-3.479-3.448-3.269
			c-2.683,0.291-5.01,4.565-5.497,6.924c-0.032,0.155-0.206,2.055-0.267,2.96c-0.084,0.009-0.069,0.007-0.153,0.016
			c-0.724-2.438-1.117-4.891-1.372-7.206c-0.15-1.34-0.219-2.629-0.258-3.885c0.85-0.104,4.729-0.62,6.335-1.592
			c1.539-0.932,3.241-2.547,3.437-4.442c0.191-1.855-1.125-3.625-3.069-3.628c-2.698-0.005-5.481,3.987-6.224,6.279
			c-0.041,0.124-0.311,1.437-0.495,2.396c-0.009-0.567-0.028-1.152-0.026-1.695c0.004-2.04,0.133-3.909,0.26-5.562
			c0.08-0.94,0.172-1.788,0.265-2.581c0.781-0.537,3.901-2.74,4.862-4.314c0.937-1.536,1.703-3.754,1.004-5.526
			c-0.685-1.735-2.669-2.698-4.396-1.806c-2.397,1.239-3.027,6.064-2.631,8.441c0.034,0.205,0.94,3.356,0.981,3.328
			c0,0,0.038-0.026,0.047-0.032c-0.105,0.761-0.21,1.578-0.305,2.473c-0.164,1.654-0.334,3.525-0.382,5.573
			c-0.053,2.047-0.054,4.272,0.158,6.616c0.208,2.35,0.548,4.811,1.225,7.301c0.008,0.028,0.019,0.056,0.027,0.084
			c-0.424-0.667-1.674-2.492-1.785-2.621c-1.577-1.822-5.694-4.416-8.177-3.362c-1.789,0.76-2.314,2.902-1.415,4.537
			C649.07,382.493,651.266,383.319,653.047,383.578z"/>
	</g>
</g>
<g id="Character_1">
	<g>
		<g>
			<path style="fill:#92E3A9;stroke:#263238;stroke-linecap:round;stroke-linejoin:round;stroke-miterlimit:10;" d="
				M177.941,341.444c0,0,1.25-0.25,11.5-3.25s17.5-10.5,17.5-10.5l-3.25-20.5l-20.75,3L177.941,341.444z"/>
			<path style="fill:#FFFFFF;stroke:#263238;stroke-linecap:round;stroke-linejoin:round;stroke-miterlimit:10;" d="M126.94,410.944
				c0,0-3.5,7-4,13.5s3.25,8.75,4.5,7c1.25-1.75,3.25-8,3.5-10.75s0.75-8.25,0.75-8.25L126.94,410.944z"/>
			<path style="fill:#FFFFFF;stroke:#263238;stroke-linecap:round;stroke-linejoin:round;stroke-miterlimit:10;" d="
				M218.956,415.439c0,0-1.013,8.999-1.269,13.248c-0.256,4.25,4.988,8.257,5.738,8.508c0.75,0.251,1.5,0.002,2.754-2.996
				c1.254-2.998,1.265-10.248,0.518-12.499s-2.242-5.753-2.242-5.753L218.956,415.439z"/>
			<path style="fill:#263238;stroke:#263238;stroke-linecap:round;stroke-linejoin:round;stroke-miterlimit:10;" d="
				M183.941,283.694c0,0-10.091,12.034-13.591,22.034s-6.294,22.377-8.659,28.966c-3.036,8.459-5,17.25-5,17.25s-6.5,6.5-8.25,12.25
				s-22.25,48.25-22.25,48.25s1.25,1.75,2.25,2c1,0.25,3.25-1,3.25-1s36.25-47.5,38.5-51s9.35-11.609,10.1-12.859
				s6.4-18.641,8.4-21.141s3.88-6.342,3.88-6.342l1.5,1l1.75,0.25c0,0,7.87,15.842,9.87,22.342s7.75,42,9.25,48.5s3.5,23.5,3.5,23.5
				s1.5,0.5,2.75,0.75s4.5-0.75,4.5-0.75s5.75-26,6-35s-1.5-29-1.5-32s-4.5-44.25-6.75-49.75c-2.25-5.5-9.75-15.25-9.75-15.25
				L183.941,283.694z"/>
			<path style="fill:#FFFFFF;stroke:#263238;stroke-linecap:round;stroke-linejoin:round;stroke-miterlimit:10;" d="
				M198.691,236.444l-15,4.75c0,0,0,29,0.25,32.75s-1.75,10-0.5,11.5s7.25,7.5,18.25,7.75s14-3.25,14-3.25l2.25-9.75
				c0,0,7.25-19.5,7.25-22.5s-7.25-11.75-11.5-15.25S198.691,236.444,198.691,236.444z"/>
			<path style="fill:#FFFFFF;stroke:#263238;stroke-linecap:round;stroke-linejoin:round;stroke-miterlimit:10;" d="
				M159.941,270.694c0,0-3.5,2.5-10,5.75s-20,10-20,10l2.25,4.75c0,0,8.25-1.5,14.75-1.75s17.5-4.5,18.25-5.75s3.25-8,3.25-8
				L159.941,270.694z"/>
			<path style="fill:#92E3A9;stroke:#263238;stroke-linecap:round;stroke-linejoin:round;stroke-miterlimit:10;" d="
				M196.691,236.694c0,0-10.75,29.5-11.25,33.75s-4.75,15-5,16.5s-7.25,16.75-7.25,16.75s7.5-23.5,8.25-28.25s-1-9-1-9
				s-5.072,10.753-5.822,11.503s-5.836,9.338-5.836,9.338l-8.842-16.591c0,0,9.75-17,11.75-19.75s6.25-10.25,9.25-11.75
				S196.691,236.694,196.691,236.694z"/>
			<path style="fill:#92E3A9;stroke:#263238;stroke-linecap:round;stroke-linejoin:round;stroke-miterlimit:10;" d="
				M211.441,240.444c0,0-7.75,32.5-7.75,37.75s-0.75,21.5-1.5,30.5s-2.25,37.75-2.25,37.75s7.5,1.25,14.5,0.5s19-5.5,19-5.5
				s-6.25-31.5-8.75-39c-2.5-7.5-5.25-19-5.25-19.75s6.75-22.75,6.75-25.75S214.191,241.194,211.441,240.444z"/>
			<path style="fill:#FFFFFF;stroke:#263238;stroke-linecap:round;stroke-linejoin:round;stroke-miterlimit:10;" d="
				M123.277,288.324c0,0,0.313-2.833-1.046-5.52c-1.358-2.687-2.105-3.519,0.08-2.925c2.185,0.594,3.457,4.859,3.457,4.859
				L123.277,288.324z"/>
			<path style="fill:#FFFFFF;stroke:#263238;stroke-linecap:round;stroke-linejoin:round;stroke-miterlimit:10;" d="M137.352,290.12
				c0,0-2.858,4.516-4.578,4.105c-1.719-0.41-9.35-4.23-9.496-5.901c-0.147-1.671,1.317-6.737,2.571-6.511
				C127.103,282.04,137.352,290.12,137.352,290.12z"/>
			<g>
				<g>
					<path style="fill:#FFFFFF;stroke:#263238;stroke-linecap:round;stroke-linejoin:round;stroke-miterlimit:10;" d="
						M221.964,209.77c0,0,1.468,4.585,1.468,5.948s-0.682,3.635-0.682,3.635s4.09,3.635,4.317,4.544
						c0.227,0.909-2.272,2.272-2.272,2.272s0.227,9.543,0.227,10.225c0,0.682-11.133,1.136-11.133,1.136l-11.588,13.633
						l-5.453-13.406l2.499-7.498c0,0-7.498-4.317-4.771-10.906c2.727-6.589,8.861-10.225,14.996-11.133
						c6.135-0.909,11.951,0.449,11.951,0.449L221.964,209.77z"/>
					<polygon style="fill:#263238;stroke:#263238;stroke-linecap:round;stroke-linejoin:round;stroke-miterlimit:10;" points="
						213.889,237.531 208.191,236.444 207.857,244.111 					"/>
					<path style="fill:#263238;" d="M220.422,220.235c0,0.791-0.296,1.432-0.661,1.432c-0.365,0-0.661-0.641-0.661-1.432
						c0-0.791,0.296-1.432,0.661-1.432C220.126,218.803,220.422,219.444,220.422,220.235z"/>
					<path style="fill:none;stroke:#263238;stroke-linecap:round;stroke-linejoin:round;stroke-miterlimit:10;" d="M218.219,217.921
						c0,0,0.661-1.322,3.084-0.661"/>
					<path style="fill:none;stroke:#263238;stroke-linecap:round;stroke-linejoin:round;stroke-miterlimit:10;" d="M223.727,228.496
						c0,0-2.864,0.441-3.965-1.102"/>
				</g>
				<path style="fill:#263238;stroke:#263238;stroke-linecap:round;stroke-linejoin:round;stroke-miterlimit:10;" d="
					M222.524,212.537c0,0-7.498-1.818-8.861,0.909c-1.363,2.727-0.227,4.09-1.363,6.589c-1.136,2.499-5.453,5.68-5.453,5.68
					s-4.09-4.544-5.453-2.272c-1.363,2.272-0.909,5.68,0.454,6.816c1.363,1.136,5.226,0.454,5.226,0.454l-5.908,2.727
					c0,0,0.227,3.408-5.226,4.771c-5.453,1.363-12.042-2.272-11.133-6.816c0.909-4.544,8.407-7.271,8.407-7.271
					s-7.952-9.77-1.363-17.041c6.589-7.271,19.54-3.863,19.54-3.863s1.818-2.045,7.044-2.499c5.226-0.454,7.498,4.771,7.498,7.725
					C225.932,211.401,222.524,212.537,222.524,212.537z"/>
			</g>
		</g>
		<g>
			<path style="fill:#263238;stroke:#263238;stroke-linecap:round;stroke-linejoin:round;stroke-miterlimit:10;" d="
				M599.864,137.025l-2.671-51.58l-44.339,24.097l1,4l16.768,8.558l-78.914,154.622l-250.442,68.093L68.136,226.663
				c-3.193-2.18-7.549-1.357-9.728,1.836c-2.179,3.193-1.357,7.548,1.836,9.728l175.796,119.973
				c1.175,0.802,2.552,1.218,3.946,1.218c0.614,0,1.231-0.081,1.836-0.245l256.548-69.753c1.903-0.518,3.501-1.815,4.398-3.572
				l80.323-157.381L599.864,137.025z"/>
			<path style="fill:#92E3A9;stroke:#263238;stroke-linecap:round;stroke-linejoin:round;stroke-miterlimit:10;" d="
				M598.864,133.025l-2.671-51.58l-43.339,28.097l16.768,8.558l-78.914,154.622l-250.442,68.093L67.136,222.663
				c-3.193-2.18-7.549-1.357-9.728,1.836c-2.179,3.193-1.357,7.548,1.836,9.728l175.796,119.973
				c1.175,0.802,2.552,1.218,3.946,1.218c0.614,0,1.231-0.081,1.836-0.245l256.548-69.753c1.903-0.518,3.501-1.815,4.398-3.572
				l80.323-157.381L598.864,133.025z"/>
			<path style="fill:#FFFFFF;" d="M591.646,90.351l-28.806,18.676l13.508,6.894l-82.193,161.046l-254.803,69.278L64.317,226.792
				c-0.339-0.232-0.716-0.349-1.121-0.349c-0.665,0-1.284,0.326-1.658,0.874c-0.622,0.911-0.386,2.158,0.524,2.779l175.796,119.973
				c0.334,0.228,0.724,0.348,1.128,0.348c0.177,0,0.354-0.023,0.524-0.07l256.548-69.753c0.542-0.147,1.001-0.52,1.257-1.021
				l82.596-161.834l13.51,6.896L591.646,90.351z"/>
		</g>
		<g>
			<path style="fill:#FFFFFF;stroke:#263238;stroke-linecap:round;stroke-linejoin:round;stroke-miterlimit:10;" d="
				M216.818,294.729l-1.368,5.31c0,0-2.073,4.163-5.378,8.538s-15.156,16.566-15.156,16.566l-3.347,4.129l-0.391,3.619l2.718,1.053
				c0,0,1.359,0.527,2.472,1.096c1.113,0.569,3.993,1.088,4.893,0.425c0.9-0.663,3.008-6.1,3.008-6.1l0.799-4.197
				c0,0,14.077-11.052,17.305-14.399c3.228-3.347,6.006-6.363,6.941-8.3c0.935-1.937,0.162-7.892,0.162-7.892L216.818,294.729z"/>
			<path style="fill:#92E3A9;stroke:#263238;stroke-linecap:round;stroke-linejoin:round;stroke-miterlimit:10;" d="
				M216.471,269.167l-2.524,26.565c0,0,3.254,1.215,7.204,2.056c3.95,0.841,12.199-1.342,12.199-1.342s-1.274-22.105-2.922-30.193
				c-1.648-8.088-6.244-14.145-9.209-15.156"/>
		</g>
	</g>
</g>
<g id="Flor">
	<g>
		
			<line style="fill:none;stroke:#263238;stroke-linecap:round;stroke-linejoin:round;stroke-miterlimit:10;" x1="533.19" y1="431.444" x2="714.19" y2="431.444"/>
		
			<line style="fill:none;stroke:#263238;stroke-linecap:round;stroke-linejoin:round;stroke-miterlimit:10;" x1="511.19" y1="431.444" x2="524.19" y2="431.444"/>
		
			<line style="fill:none;stroke:#263238;stroke-linecap:round;stroke-linejoin:round;stroke-miterlimit:10;" x1="184.191" y1="431.444" x2="500.19" y2="431.444"/>
		
			<line style="fill:none;stroke:#263238;stroke-linecap:round;stroke-linejoin:round;stroke-miterlimit:10;" x1="33.19" y1="431.444" x2="175.191" y2="431.444"/>
	</g>
</g>
</svg>
