<?xml version="1.0" encoding="utf-8"?>
<!-- Generator: Adobe Illustrator 27.5.0, SVG Export Plug-In . SVG Version: 6.00 Build 0)  -->
<svg version="1.1" xmlns="http://www.w3.org/2000/svg" xmlns:xlink="http://www.w3.org/1999/xlink" x="0px" y="0px"
	 viewBox="0 0 3710 3710" style="enable-background:new 0 0 3710 3710;" xml:space="preserve">
<g id="Background">
	<g>
		<g>
			<rect style="fill:#FFFFFF;" width="3710" height="3710"/>
		</g>
	</g>
</g>
<g id="Illustration">
	<g>
		<g style="opacity:0.3;">
			<linearGradient id="SVGID_1_" gradientUnits="userSpaceOnUse" x1="3253.1375" y1="3257.0347" x2="1049.3213" y2="1084.7019">
				<stop  offset="0" style="stop-color:#B37CFF"/>
				<stop  offset="1" style="stop-color:#F895E7"/>
			</linearGradient>
			<path style="fill:url(#SVGID_1_);" d="M3100.006,2378.118c-161.523,303.065-418.811,448.319-558.535,524.822
				c-60.694,33.231-1079.581,571.862-1719.525-20.611c-494.606-457.916-429.179-1282.593-84.71-1789.584
				c261.132-384.335,725.634-649.41,1207.295-637.349c96.838,2.425,476.065,17.35,807.932,291.743
				c41.92,34.66,152.874,131.164,253.12,287.194C3221.876,1370.989,3345.318,1917.839,3100.006,2378.118z"/>
		</g>
		<g>
			<g>
				
					<linearGradient id="SVGID_00000005244474416690388070000004130622472812324227_" gradientUnits="userSpaceOnUse" x1="1591.3666" y1="2640.1318" x2="2257.4897" y2="641.7568">
					<stop  offset="0" style="stop-color:#2B3582"/>
					<stop  offset="1" style="stop-color:#150E42"/>
				</linearGradient>
				<path style="fill:url(#SVGID_00000005244474416690388070000004130622472812324227_);" d="M3218.741,2740.351
					c0,29.591-22.003,53.802-48.895,53.802H525.81c-26.892,0-48.895-24.211-48.895-53.802l-22.001-1673.574
					c0-29.591,31.653-87.362,89.663-83.02l2584.043-73.644c33.741-0.961,66.366,13.343,90.26,39.575
					c23.894,26.232,36.968,62.098,36.171,99.227L3218.741,2740.351z"/>
				
					<linearGradient id="SVGID_00000168105035117111773300000009756867880027054525_" gradientUnits="userSpaceOnUse" x1="581.1046" y1="2737.3164" x2="3550.1189" y2="795.0844">
					<stop  offset="0" style="stop-color:#A737D5"/>
					<stop  offset="1" style="stop-color:#EF497A"/>
				</linearGradient>
				<path style="fill:url(#SVGID_00000168105035117111773300000009756867880027054525_);" d="M3170.469,2688.734
					c0,28.022-20.816,50.949-46.258,50.949H589.573c-25.442,0-46.258-22.927-46.258-50.949l-20.761-1519.286
					c2.445-91.427,75.219-124.287,119.334-122.346c0,0,2019.665-59.68,2476.569-73.182c23.705-0.7,46.625,9.359,63.414,27.805
					c16.79,18.445,26.023,43.688,25.429,69.799L3170.469,2688.734z"/>
				<path style="opacity:0.19;fill:#FFFFFF;" d="M601,2646.061c2.718-128.594,16.528-1286.79,18.743-1385.339
					c5.255-233.802,141.84-148.973,355.343-160.04c213.503-11.068,2028.889-10.299,2075.272-14.441
					c104.258-9.311,102.39,149.92,91.96,522.536c-7.836,279.943-20.824,741.101-26.8,953.176
					c-1.779,63.147-48.638,113.25-105.998,113.423c-433.495,1.312-2045.306,48.601-2155.91,52.229
					C726.329,2731.78,599.923,2697.052,601,2646.061z"/>
			</g>
			
				<linearGradient id="SVGID_00000080916818887057069050000011008972937708352179_" gradientUnits="userSpaceOnUse" x1="1929.0916" y1="583.5107" x2="1862.7885" y2="1514.0428">
				<stop  offset="0" style="stop-color:#CB236D"/>
				<stop  offset="0.2399" style="stop-color:#C8236D"/>
				<stop  offset="0.4128" style="stop-color:#BF236D"/>
				<stop  offset="0.5647" style="stop-color:#AF236D"/>
				<stop  offset="0.7046" style="stop-color:#99236D"/>
				<stop  offset="0.8361" style="stop-color:#7C246D"/>
				<stop  offset="0.9597" style="stop-color:#59246D"/>
				<stop  offset="1" style="stop-color:#4C246D"/>
			</linearGradient>
			<path style="fill:url(#SVGID_00000080916818887057069050000011008972937708352179_);" d="M3145.387,1288.777H624.998v-177.405
				c0-14.013,11.36-25.374,25.374-25.374h2467.512c15.189,0,27.503,12.313,27.503,27.503V1288.777z"/>
			<g>
				
					<linearGradient id="SVGID_00000016066124686473473740000015002649512107981243_" gradientUnits="userSpaceOnUse" x1="2647.679" y1="796.0669" x2="2656.7163" y2="1494.1619">
					<stop  offset="0" style="stop-color:#A737D5"/>
					<stop  offset="1" style="stop-color:#EF497A"/>
				</linearGradient>
				
					<circle style="fill:url(#SVGID_00000016066124686473473740000015002649512107981243_);" cx="2652.746" cy="1187.493" r="43.182"/>
				
					<linearGradient id="SVGID_00000053542193143905265720000017778139260701885338_" gradientUnits="userSpaceOnUse" x1="2815.8318" y1="793.8907" x2="2824.8691" y2="1491.9857">
					<stop  offset="0" style="stop-color:#A737D5"/>
					<stop  offset="1" style="stop-color:#EF497A"/>
				</linearGradient>
				
					<circle style="fill:url(#SVGID_00000053542193143905265720000017778139260701885338_);" cx="2820.927" cy="1187.493" r="43.182"/>
				
					<linearGradient id="SVGID_00000121257690750948849050000005236616051854522541_" gradientUnits="userSpaceOnUse" x1="2983.9846" y1="791.7137" x2="2993.022" y2="1489.8087">
					<stop  offset="0" style="stop-color:#A737D5"/>
					<stop  offset="1" style="stop-color:#EF497A"/>
				</linearGradient>
				
					<circle style="fill:url(#SVGID_00000121257690750948849050000005236616051854522541_);" cx="2989.108" cy="1187.493" r="43.182"/>
			</g>
		</g>
		<g>
			<g>
				
					<linearGradient id="SVGID_00000031180592743389217490000003880136772480403850_" gradientUnits="userSpaceOnUse" x1="3018.9163" y1="2646.1431" x2="2653.9456" y2="4051.9539" gradientTransform="matrix(-1 0 0 1 3779.8208 0)">
					<stop  offset="0" style="stop-color:#CB236D"/>
					<stop  offset="1" style="stop-color:#4C246D"/>
				</linearGradient>
				<polygon style="fill:url(#SVGID_00000031180592743389217490000003880136772480403850_);" points="855.696,3190.729 
					880.169,3190.729 880.169,2926.067 855.696,2926.067 				"/>
				
					<linearGradient id="SVGID_00000143577721267255465150000011235390278902401208_" gradientUnits="userSpaceOnUse" x1="3056.4468" y1="2632.4978" x2="2677.373" y2="4092.6313" gradientTransform="matrix(-1 0 0 1 3779.8208 0)">
					<stop  offset="0" style="stop-color:#CB236D"/>
					<stop  offset="1" style="stop-color:#4C246D"/>
				</linearGradient>
				<path style="fill:url(#SVGID_00000143577721267255465150000011235390278902401208_);" d="M760.757,3195.832h214.35v-12.608
					c0-1.835-1.488-3.323-3.323-3.323H764.08c-1.835,0-3.323,1.488-3.323,3.323V3195.832z"/>
				
					<linearGradient id="SVGID_00000023251252829638037890000001282416834245895866_" gradientUnits="userSpaceOnUse" x1="1173.0547" y1="2498.8318" x2="732.8213" y2="3076.8064">
					<stop  offset="0" style="stop-color:#FDF53F"/>
					<stop  offset="1" style="stop-color:#D93C65"/>
				</linearGradient>
				<path style="fill:url(#SVGID_00000023251252829638037890000001282416834245895866_);" d="M728.945,2916.88
					c0,14.476,11.843,26.318,26.318,26.318H972.13c14.475,0,26.319-11.843,26.319-26.318v-23.797
					c0-14.475-11.844-26.319-26.319-26.319H755.264c-14.475,0-26.318,11.844-26.318,26.319V2916.88z"/>
			</g>
			<g>
				
					<linearGradient id="SVGID_00000119814847691740064610000002423223641870137743_" gradientUnits="userSpaceOnUse" x1="2644.8079" y1="2966.7224" x2="2818.8215" y2="2966.7224" gradientTransform="matrix(-1 0 0 1 3779.8208 0)">
					<stop  offset="0" style="stop-color:#F9B776"/>
					<stop  offset="1" style="stop-color:#F47960"/>
				</linearGradient>
				<path style="fill:url(#SVGID_00000119814847691740064610000002423223641870137743_);" d="M1048.606,2749.597
					c0,0,36.366,5.638,77.254,32.97c6.435,4.301,9.965,11.8,8.995,19.479c-4.896,38.781-25.026,164.303-91.406,286.902
					c-3.5,6.465-4.506,13.991-2.962,21.178l11.533,53.669l21.387,20.053h-55.088l-36.678-99.258l15.684-4.959
					c12.16-3.845,20.503-15.03,20.724-27.782l1.841-106.476c-1.57-47.438,29.087-80.168,29.087-80.168l-87.976-4.28
					L1048.606,2749.597z"/>
				
					<linearGradient id="SVGID_00000026130213024698767300000007278613726886043012_" gradientUnits="userSpaceOnUse" x1="2751.2798" y1="3080.1091" x2="2725.6853" y2="3472.5598" gradientTransform="matrix(-1 0 0 1 3779.8208 0)">
					<stop  offset="0" style="stop-color:#CB236D"/>
					<stop  offset="1" style="stop-color:#4C246D"/>
				</linearGradient>
				<path style="fill:url(#SVGID_00000026130213024698767300000007278613726886043012_);" d="M1094.916,3193.531
					c5.017,6.565-53.996,15.23-83.81,0.868c0,0-41.33-71.908-41.33-108.931c0,0,3.28-7.55,27.548-5.838
					c0,0,13.877,85.143,28.53,94.68c14.653,9.538,40.996,0.965,40.996,0.965S1087.514,3183.843,1094.916,3193.531z"/>
				
					<linearGradient id="SVGID_00000021098311808333384280000014847507337988018337_" gradientUnits="userSpaceOnUse" x1="2440.4873" y1="2978.6086" x2="2807.6902" y2="2978.6086" gradientTransform="matrix(-1 0 0 1 3779.8208 0)">
					<stop  offset="0" style="stop-color:#F9B776"/>
					<stop  offset="1" style="stop-color:#F47960"/>
				</linearGradient>
				<path style="fill:url(#SVGID_00000021098311808333384280000014847507337988018337_);" d="M972.13,2866.764
					c0.468-0.81,94.719-11.333,94.719-11.333s-3.084,28.657,6.556,68.107c9.64,39.45,148.022,210.366,148.022,210.366l-14.51,45.998
					c44.862,15.627,88.992,18.125,132.416,7.965l-89.922-53.962c0,0-84.157-286.791-135.706-337.954l-94.475-32.686L972.13,2866.764
					z"/>
				
					<linearGradient id="SVGID_00000080205788456919348340000014469668971367610286_" gradientUnits="userSpaceOnUse" x1="1074.7472" y1="2384.8879" x2="851.9407" y2="2919.6226">
					<stop  offset="0" style="stop-color:#CB236D"/>
					<stop  offset="1" style="stop-color:#4C246D"/>
				</linearGradient>
				<path style="fill:url(#SVGID_00000080205788456919348340000014469668971367610286_);" d="M760.757,2699.891
					c0,0-54.303,80.769-58.758,117.611c-4.456,36.843,14.875,51.814,71.852,54.282c56.977,2.469,209.084,2.429,209.084,2.429
					l129.821-110.949c0,0-94.608-33.759-119.205-43.304C968.954,2710.415,760.757,2699.891,760.757,2699.891z"/>
				
					<linearGradient id="SVGID_00000063596436915575365540000001639126750049717420_" gradientUnits="userSpaceOnUse" x1="2504.2949" y1="3064.0015" x2="2478.7004" y2="3456.4526" gradientTransform="matrix(-1 0 0 1 3779.8208 0)">
					<stop  offset="0" style="stop-color:#CB236D"/>
					<stop  offset="1" style="stop-color:#4C246D"/>
				</linearGradient>
				<path style="fill:url(#SVGID_00000063596436915575365540000001639126750049717420_);" d="M1212.4,3164.411
					c0,0-15.621,15.131-5.069,31.965c0,0,123.747,21.935,157.345,11.982c0,0-6.976-15.923-44.809-34.047l2.791,2.143
					c3.533,2.712,1.461,8.361-2.986,8.107C1294.744,3183.139,1243.151,3178.572,1212.4,3164.411z"/>
			</g>
			<g>
				
					<linearGradient id="SVGID_00000085244748143032467290000013808165744824368313_" gradientUnits="userSpaceOnUse" x1="1024.1769" y1="2357.9746" x2="595.2856" y2="2971.7322">
					<stop  offset="0" style="stop-color:#53D8FF"/>
					<stop  offset="1" style="stop-color:#3840F7"/>
				</linearGradient>
				<path style="fill:url(#SVGID_00000085244748143032467290000013808165744824368313_);" d="M907.613,2689.199
					c0,0,63.236-60.213,94.363-100.095c16.826-21.558,22.11-49.938,14.328-76.155c-14.211-47.878-39.466-97.467-41.77-105.185
					c-3.531-11.83-74.435-11.338-74.435-11.338s-139.524,90.552-194.344,243.942l61.566,19.167c0,0,36.43-61.118,72.424-99.975
					c0,0-62.284,82.279-64.477,115.962L907.613,2689.199z"/>
				
					<linearGradient id="SVGID_00000091693743940809363480000012503978993652352153_" gradientUnits="userSpaceOnUse" x1="2852.9336" y1="2474.6338" x2="2834.5667" y2="2356.7798" gradientTransform="matrix(-1 0 0 1 3779.8208 0)">
					<stop  offset="0" style="stop-color:#F9B776"/>
					<stop  offset="1" style="stop-color:#F47960"/>
				</linearGradient>
				<path style="fill:url(#SVGID_00000091693743940809363480000012503978993652352153_);" d="M983.109,2341.648
					c-0.74,2.459-19.247,63.81-20.694,65.083c-1.448,1.273-40.585,3.378-59.007-9.212l31.253-65.425L983.109,2341.648z"/>
				
					<linearGradient id="SVGID_00000071562103328569988360000004636803304302669494_" gradientUnits="userSpaceOnUse" x1="2773.5486" y1="2252.5273" x2="2935.7883" y2="2362.7278" gradientTransform="matrix(-1 0 0 1 3779.8208 0)">
					<stop  offset="0" style="stop-color:#F9B776"/>
					<stop  offset="1" style="stop-color:#F47960"/>
				</linearGradient>
				<path style="fill:url(#SVGID_00000071562103328569988360000004636803304302669494_);" d="M952.71,2212.789
					c0,0,33.409,14.107,56.126,62.385c22.716,48.277,5.752,70.568-15.556,73.628c-21.308,3.06-53.175,2.594-86.882-28.592
					C872.691,2289.022,909.279,2196.066,952.71,2212.789z"/>
				
					<linearGradient id="SVGID_00000015314771373431225490000017573756574834661003_" gradientUnits="userSpaceOnUse" x1="3056.6892" y1="2045.5043" x2="2784.5715" y2="2328.6167" gradientTransform="matrix(-1 0 0 1 3779.8208 0)">
					<stop  offset="0" style="stop-color:#2B3582"/>
					<stop  offset="1" style="stop-color:#150E42"/>
				</linearGradient>
				<path style="fill:url(#SVGID_00000015314771373431225490000017573756574834661003_);" d="M929.056,2294.435
					c0,0-25.206-70.632,37.415-71.467l14.736,10.299c0,0,22.976-39.16-14.736-57.854c-37.712-18.693-93.983-2.049-110.031,48.758
					c-16.049,50.807-6.655,83.615,20.045,107.923c26.7,24.309,37.703-3.254,37.703-3.254s-14.539-22.736-8.62-34.899
					c5.919-12.164,19.571,2.516,19.571,2.516L929.056,2294.435z"/>
				
					<linearGradient id="SVGID_00000134965581704240866580000010428049245888388007_" gradientUnits="userSpaceOnUse" x1="2783.2717" y1="2238.21" x2="2945.5132" y2="2348.4116" gradientTransform="matrix(-1 0 0 1 3779.8208 0)">
					<stop  offset="0" style="stop-color:#F9B776"/>
					<stop  offset="1" style="stop-color:#F47960"/>
				</linearGradient>
				<path style="fill:url(#SVGID_00000134965581704240866580000010428049245888388007_);" d="M922.033,2302.301
					c0,0-12.744-36.384-29.745-21.894c-17.001,14.49,13.818,33.609,25.882,39.802L922.033,2302.301z"/>
				
					<linearGradient id="SVGID_00000074405240581042706180000008526730592600092078_" gradientUnits="userSpaceOnUse" x1="2958.3767" y1="2678.6963" x2="3303.3193" y2="2678.6963" gradientTransform="matrix(-1 0 0 1 3779.8208 0)">
					<stop  offset="0" style="stop-color:#F9B776"/>
					<stop  offset="1" style="stop-color:#F47960"/>
				</linearGradient>
				<path style="fill:url(#SVGID_00000074405240581042706180000008526730592600092078_);" d="M1036.439,2693.67l-46.46-44.781
					l-64.272,27.151c0,0-63.975,9.912-100.591,0c-36.616-9.911-36.616-9.911-36.616-9.911l-82.744-25.76l-12.995,36.727
					c-3.3,9.325,0.016,19.677,8.079,25.406c7.159,5.087,15.55,10.678,20.898,13.017c10.896,4.767,268.612-3.297,268.612-3.297
					L1036.439,2693.67z"/>
				
					<linearGradient id="SVGID_00000119077365398405067250000014089710474938912925_" gradientUnits="userSpaceOnUse" x1="3177.6367" y1="2161.7539" x2="2905.5188" y2="2444.8662" gradientTransform="matrix(-1 0 0 1 3779.8208 0)">
					<stop  offset="0" style="stop-color:#2B3582"/>
					<stop  offset="1" style="stop-color:#150E42"/>
				</linearGradient>
				<path style="fill:url(#SVGID_00000119077365398405067250000014089710474938912925_);" d="M861.349,2232.133
					c8.052-8.225,2.819-22.12-8.554-23.893c-36.711-5.726-92.682,0.117-116.192,78.702
					c-26.483,88.522-43.722,132.781-61.414,140.548c-11.618,5.101-12.364,21.229-0.788,26.427c8.559,3.843,20.81,5.206,38.347,1.348
					C848.027,2425.502,814.122,2280.379,861.349,2232.133z"/>
			</g>
			<g>
				
					<linearGradient id="SVGID_00000129895516211660607880000015431573511409536947_" gradientUnits="userSpaceOnUse" x1="2692.468" y1="2891.8516" x2="2475.3237" y2="2951.3652" gradientTransform="matrix(-0.9988 -0.0494 -0.0494 0.9988 3821.2898 -55.0328)">
					<stop  offset="0" style="stop-color:#CB236D"/>
					<stop  offset="1" style="stop-color:#4C246D"/>
				</linearGradient>
				<path style="fill:url(#SVGID_00000129895516211660607880000015431573511409536947_);" d="M860.618,2714.781
					c0.206,0.01,0.412,0.016,0.62,0.014l269.509-0.294c6.662-0.005,12.057-5.412,12.05-12.074
					c-0.006-6.665-5.433-12.171-12.077-12.051l-269.509,0.294c-6.662,0.005-12.057,5.412-12.051,12.075
					C849.168,2709.2,854.244,2714.466,860.618,2714.781z"/>
				
					<linearGradient id="SVGID_00000049907399416138771440000006134002531565010619_" gradientUnits="userSpaceOnUse" x1="2714.5381" y1="2456.9146" x2="2560.4646" y2="2619.7607" gradientTransform="matrix(-1 0 0 1 3779.8208 0)">
					<stop  offset="0" style="stop-color:#CB236D"/>
					<stop  offset="1" style="stop-color:#4C246D"/>
				</linearGradient>
				<path style="fill:url(#SVGID_00000049907399416138771440000006134002531565010619_);" d="M1373.022,2470.084h-224.448
					c-16.557,0-31.628,9.556-38.691,24.531l-103.762,220.022h278.929c10.67,0,20.257-6.52,24.179-16.443l80.464-203.598
					C1394.341,2482.833,1385.672,2470.084,1373.022,2470.084z"/>
				
					<linearGradient id="SVGID_00000011717874561852491940000003358358432882173825_" gradientUnits="userSpaceOnUse" x1="2577.8889" y1="2543.4438" x2="2507.9802" y2="2648.7183" gradientTransform="matrix(-1 0 0 1 3779.8208 0)">
					<stop  offset="0" style="stop-color:#A737D5"/>
					<stop  offset="1" style="stop-color:#EF497A"/>
				</linearGradient>
				<path style="fill:url(#SVGID_00000011717874561852491940000003358358432882173825_);" d="M1214.896,2582.896
					c-4.864,15.111-1.271,29.787,8.026,32.779c9.296,2.992,20.775-6.832,25.639-21.943c4.864-15.112,1.271-29.788-8.025-32.779
					C1231.239,2557.96,1219.76,2567.785,1214.896,2582.896z"/>
			</g>
			<g>
				
					<linearGradient id="SVGID_00000135668768438110812750000005326547209111433886_" gradientUnits="userSpaceOnUse" x1="2147.5195" y1="2737.7422" x2="3296.0916" y2="2737.7422" gradientTransform="matrix(-1 0 0 1 3779.8208 0)">
					<stop  offset="0" style="stop-color:#9CFFFB"/>
					<stop  offset="1" style="stop-color:#9BFFFA"/>
				</linearGradient>
				<path style="fill:url(#SVGID_00000135668768438110812750000005326547209111433886_);" d="M483.932,2724.627
					c-0.631-3.055,0.228-6.216,2.34-8.616c2.113-2.401,5.26-3.791,8.579-3.791h1124.649c4.366,0,8.431,2.086,10.784,5.534
					c2.352,3.448,2.667,7.782,0.837,11.498l-12.187,24.726c-2.791,5.663-8.838,9.288-15.492,9.288H502.568
					c-6.19,0-11.51-4.114-12.685-9.811L483.932,2724.627z"/>
				<g>
					
						<linearGradient id="SVGID_00000101786845330358944470000012827646708519745203_" gradientUnits="userSpaceOnUse" x1="1582.2076" y1="5039.4673" x2="1110.822" y2="6337.167" gradientTransform="matrix(-1 0 0 1 3779.8208 0)">
						<stop  offset="0" style="stop-color:#53D8FF"/>
						<stop  offset="1" style="stop-color:#3840F7"/>
					</linearGradient>
					<path style="fill:url(#SVGID_00000101786845330358944470000012827646708519745203_);" d="M1556.466,3245.755
						c1.301,0,2.623-0.266,3.895-0.825c5.007-2.203,7.32-8.143,5.166-13.266l-206.991-492.326
						c-2.153-5.121-7.955-7.487-12.967-5.285c-5.007,2.204-7.32,8.144-5.166,13.267l206.99,492.325
						C1549,3243.465,1552.641,3245.755,1556.466,3245.755z"/>
					
						<linearGradient id="SVGID_00000081616131815379033400000012014870120023992224_" gradientUnits="userSpaceOnUse" x1="1605.3392" y1="5047.8696" x2="1133.9526" y2="6345.5723" gradientTransform="matrix(-1 0 0 1 3779.8208 0)">
						<stop  offset="0" style="stop-color:#53D8FF"/>
						<stop  offset="1" style="stop-color:#3840F7"/>
					</linearGradient>
					<path style="fill:url(#SVGID_00000081616131815379033400000012014870120023992224_);" d="M1323.281,3245.755
						c3.825,0,7.465-2.288,9.071-6.111l206.991-492.325c2.154-5.123-0.159-11.063-5.166-13.267
						c-5.004-2.204-10.811,0.161-12.966,5.285l-206.991,492.326c-2.154,5.123,0.159,11.063,5.166,13.266
						C1320.657,3245.488,1321.98,3245.755,1323.281,3245.755z"/>
					
						<linearGradient id="SVGID_00000173140904173401381280000015581090108898777525_" gradientUnits="userSpaceOnUse" x1="2302.2986" y1="5301.0386" x2="1830.9132" y2="6598.7378" gradientTransform="matrix(-1 0 0 1 3779.8208 0)">
						<stop  offset="0" style="stop-color:#53D8FF"/>
						<stop  offset="1" style="stop-color:#3840F7"/>
					</linearGradient>
					<path style="fill:url(#SVGID_00000173140904173401381280000015581090108898777525_);" d="M741.36,3245.755
						c1.301,0,2.623-0.266,3.895-0.825c5.007-2.203,7.321-8.143,5.166-13.266L543.43,2739.337
						c-2.154-5.121-7.953-7.487-12.966-5.285c-5.007,2.204-7.32,8.144-5.166,13.267l206.991,492.325
						C733.895,3243.465,737.535,3245.755,741.36,3245.755z"/>
					
						<linearGradient id="SVGID_00000015324484506279510520000002018976730660712594_" gradientUnits="userSpaceOnUse" x1="2325.4282" y1="5309.4419" x2="1854.0416" y2="6607.1445" gradientTransform="matrix(-1 0 0 1 3779.8208 0)">
						<stop  offset="0" style="stop-color:#53D8FF"/>
						<stop  offset="1" style="stop-color:#3840F7"/>
					</linearGradient>
					<path style="fill:url(#SVGID_00000015324484506279510520000002018976730660712594_);" d="M508.177,3245.755
						c3.825,0,7.465-2.288,9.072-6.111l206.99-492.325c2.154-5.123-0.159-11.063-5.166-13.267
						c-5.004-2.204-10.811,0.161-12.967,5.285l-206.991,492.326c-2.154,5.123,0.159,11.063,5.166,13.266
						C505.552,3245.488,506.876,3245.755,508.177,3245.755z"/>
				</g>
			</g>
		</g>
		<g>
			<g>
				
					<linearGradient id="SVGID_00000043438887837747378560000005044451208100201640_" gradientUnits="userSpaceOnUse" x1="1322.4166" y1="2238.3521" x2="3142.3945" y2="194.6917">
					<stop  offset="0" style="stop-color:#FDF53F"/>
					<stop  offset="0.6645" style="stop-color:#E57A58"/>
					<stop  offset="1" style="stop-color:#D93C65"/>
				</linearGradient>
				
					<circle style="fill:url(#SVGID_00000043438887837747378560000005044451208100201640_);" cx="1847.522" cy="1648.709" r="665.345"/>
				<g>
					<defs>
						<circle id="SVGID_00000152230718946184794560000015522090828341017789_" cx="1849.581" cy="1650.767" r="599.651"/>
					</defs>
					<use xlink:href="#SVGID_00000152230718946184794560000015522090828341017789_"  style="overflow:visible;fill:#FFFFFF;"/>
					<clipPath id="SVGID_00000008866526992250390530000001527072099779522966_">
						<use xlink:href="#SVGID_00000152230718946184794560000015522090828341017789_"  style="overflow:visible;"/>
					</clipPath>
					<g style="clip-path:url(#SVGID_00000008866526992250390530000001527072099779522966_);">
						
							<linearGradient id="SVGID_00000088830193884401899080000006513934514508030129_" gradientUnits="userSpaceOnUse" x1="1338.2207" y1="4787.2471" x2="2248.2227" y2="4330.3101" gradientTransform="matrix(0.8207 -0.5713 0.5713 0.8207 -3300.8633 211.3512)">
							<stop  offset="0" style="stop-color:#FDF53F"/>
							<stop  offset="0.6645" style="stop-color:#E57A58"/>
							<stop  offset="0.8121" style="stop-color:#E05F5E"/>
							<stop  offset="1" style="stop-color:#D93C65"/>
						</linearGradient>
						<path style="fill:url(#SVGID_00000088830193884401899080000006513934514508030129_);" d="M1159.001,2389.347
							c-5.314,5.412-3.907,14.42,2.741,18.072c30.541,16.775,107.338,47.229,172.073-24.292
							c82.893-91.584,284.799-518.913,309.704-628.641c24.905-109.728,119.061-278.779,170.792-298.725
							c51.731-19.944-109.663-8.607-154.594-7.843c-44.931,0.765-77.306-21.497-50.579-31.731c0,0-136.664-53.331-239.156,105.342
							c-61.944,95.898-261.358,539.01-426.664,587.633c-6.116,1.8,28.572,25.343,31.259,31.125
							c15.93,34.274,74.427,135.573,227.765,188.613C1202.341,2328.899,1182.438,2365.476,1159.001,2389.347z"/>
						
							<linearGradient id="SVGID_00000044859464257451686900000010016209569609809794_" gradientUnits="userSpaceOnUse" x1="934.5167" y1="2790.5305" x2="1128.1494" y2="2790.5305" gradientTransform="matrix(1 0 0 1 646.4113 0)">
							<stop  offset="0" style="stop-color:#53D8FF"/>
							<stop  offset="1" style="stop-color:#3840F7"/>
						</linearGradient>
						<path style="fill:url(#SVGID_00000044859464257451686900000010016209569609809794_);" d="M1769.093,2781.165
							c-33.171,2.867-90.742,7.525-136.129,9.522c-27.283,1.201-42.99-1.471-52.036-5.093c0.016,1.02,0.044,1.984,0.084,2.878
							c0.215,4.776,4.095,8.597,8.919,8.866c85.76,4.787,153.965,1.656,178.246,0.179c5.021-0.306,8.013-5.762,5.445-10.042
							C1772.338,2785.336,1770.782,2783.238,1769.093,2781.165z"/>
						
							<linearGradient id="SVGID_00000095317846854619336080000017664139474533926028_" gradientUnits="userSpaceOnUse" x1="934.5057" y1="2752.5811" x2="1122.6815" y2="2752.5811" gradientTransform="matrix(1 0 0 1 646.4113 0)">
							<stop  offset="0" style="stop-color:#2B3582"/>
							<stop  offset="1" style="stop-color:#150E42"/>
						</linearGradient>
						<path style="fill:url(#SVGID_00000095317846854619336080000017664139474533926028_);" d="M1632.964,2790.688
							c45.386-1.998,102.957-6.655,136.129-9.522c-32.613-40.013-136.129-66.982-136.129-66.982h-29.236
							c-20.108,28.986-23.02,56.582-22.8,71.412C1589.974,2789.217,1605.681,2791.889,1632.964,2790.688z"/>
						
							<linearGradient id="SVGID_00000068652541417584456180000009095099695456322995_" gradientUnits="userSpaceOnUse" x1="952.3935" y1="2699.5984" x2="1006.9359" y2="2699.5984" gradientTransform="matrix(1 0 0 1 646.4113 0)">
							<stop  offset="0" style="stop-color:#F9B776"/>
							<stop  offset="1" style="stop-color:#F47960"/>
						</linearGradient>
						<path style="fill:url(#SVGID_00000068652541417584456180000009095099695456322995_);" d="M1598.805,2666.454l2.736,54.14
							c0.296,5.863,4.685,10.789,10.556,11.629c5.842,0.835,13.666,0.942,21.962-1.82c5.104-1.699,8.894-5.999,9.835-11.245
							l9.454-52.704H1598.805z"/>
						<g>
							
								<linearGradient id="SVGID_00000181082494062445203170000005237865583778218142_" gradientUnits="userSpaceOnUse" x1="588.9082" y1="2838.5452" x2="663.1112" y2="2838.5452" gradientTransform="matrix(1 0 0 1 646.4113 0)">
								<stop  offset="0" style="stop-color:#53D8FF"/>
								<stop  offset="1" style="stop-color:#3840F7"/>
							</linearGradient>
							<path style="fill:url(#SVGID_00000181082494062445203170000005237865583778218142_);" d="M1259.482,2843.62
								c-14.386-2.593-20.894-12.251-23.623-22.576c-0.018,0.093-0.036,0.186-0.054,0.278c-2.117,10.892,2.79,22.18,12.599,27.548
								c11.856,6.489,24.819,7.594,34.882,7.058c10.797-0.575,20.708-6.349,26.155-15.591l0.082-0.139
								C1298.685,2847.129,1283.472,2847.945,1259.482,2843.62z"/>
							
								<linearGradient id="SVGID_00000109030304183410752030000007379164567764962699_" gradientUnits="userSpaceOnUse" x1="589.4479" y1="2764.7043" x2="698.3637" y2="2764.7043" gradientTransform="matrix(1 0 0 1 646.4113 0)">
								<stop  offset="0" style="stop-color:#2B3582"/>
								<stop  offset="1" style="stop-color:#150E42"/>
							</linearGradient>
							<path style="fill:url(#SVGID_00000109030304183410752030000007379164567764962699_);" d="M1327.306,2683.135h-24.11
								c-36.725-0.97-59.787,99.14-67.336,137.908c2.729,10.325,9.237,19.983,23.623,22.576c23.99,4.324,39.203,3.508,50.04-3.422
								c19.841-33.743,29.678-83.165,34.406-112.007C1349.306,2695.388,1327.306,2683.135,1327.306,2683.135z"/>
						</g>
						
							<linearGradient id="SVGID_00000089548984685080728150000001617784625540059548_" gradientUnits="userSpaceOnUse" x1="646.0607" y1="2671.1565" x2="711.2444" y2="2671.1565" gradientTransform="matrix(1 0 0 1 646.4113 0)">
							<stop  offset="0" style="stop-color:#F9B776"/>
							<stop  offset="1" style="stop-color:#F47960"/>
						</linearGradient>
						<path style="fill:url(#SVGID_00000089548984685080728150000001617784625540059548_);" d="M1306.294,2632.883l-13.388,53.249
							c-1.642,6.529,1.483,13.282,7.52,16.38c7.49,3.844,18.034,7.882,27.725,6.713c4.557-0.55,8.344-3.76,9.849-8.051
							l19.656-56.024L1306.294,2632.883z"/>
						
							<linearGradient id="SVGID_00000085242302588745911470000015835164207671505537_" gradientUnits="userSpaceOnUse" x1="1173.303" y1="1967.743" x2="616.7832" y2="2879.376" gradientTransform="matrix(1 0 0 1 646.4113 0)">
							<stop  offset="0" style="stop-color:#2B3582"/>
							<stop  offset="1" style="stop-color:#150E42"/>
						</linearGradient>
						<path style="fill:url(#SVGID_00000085242302588745911470000015835164207671505537_);" d="M1777.26,1931.561
							c0,0-119.644,747.874-117.673,751.984c0,0-33.044,15.02-69.068,1.914c0,0,10.819-399.792,36.171-553.082
							c0,0-204.191,357.336-269.034,535.389c0,0-33.82-4.033-61.815-22.457c0,0,219.856-643.188,278.511-728.857L1777.26,1931.561z"
							/>
						
							<linearGradient id="SVGID_00000115507105485667251470000004931328971301077433_" gradientUnits="userSpaceOnUse" x1="2165.2317" y1="1027.1581" x2="1650.8516" y2="2127.4861">
							<stop  offset="0" style="stop-color:#53D8FF"/>
							<stop  offset="1" style="stop-color:#3840F7"/>
						</linearGradient>
						<path style="fill:url(#SVGID_00000115507105485667251470000004931328971301077433_);" d="M1631.467,2127.933
							c-0.54,0-1.088-0.146-1.58-0.454c-1.395-0.874-1.819-2.714-0.945-4.109l44.71-71.415c0.435-0.696,1.136-1.179,1.94-1.343
							l32.905-6.622c1.609-0.335,3.186,0.722,3.512,2.336c0.325,1.613-0.721,3.186-2.335,3.512l-31.647,6.369l-44.029,70.326
							C1633.431,2127.438,1632.46,2127.933,1631.467,2127.933z"/>
						
							<linearGradient id="SVGID_00000004513853098208633860000004773911305432437134_" gradientUnits="userSpaceOnUse" x1="716.4722" y1="1992.989" x2="-32.9141" y2="2881.1506" gradientTransform="matrix(1 0 0 1 646.4113 0)">
							<stop  offset="0" style="stop-color:#FDF53F"/>
							<stop  offset="0.6645" style="stop-color:#E57A58"/>
							<stop  offset="1" style="stop-color:#D93C65"/>
						</linearGradient>
						<path style="fill:url(#SVGID_00000004513853098208633860000004773911305432437134_);" d="M2018.689,1617.515
							c-8.608-56.944,16.255-75.159,3.984-91.446c-52.935,23.916-113.803-81.381-201.487-111.765
							c-8.083-2.801-16.514-4.441-25.062-4.943c-46.679-2.737-200.5-7.731-327.783,34.321c-26.787,8.85-48.484,28.653-59.666,54.313
							c-34.431,79.015-90.176,258.962,64.576,349.808c11.89-29.518,25.613-53.245,37.347-70.678
							c-24.922-42.036-32.303-99.449,11.922-174.214c32.247,87.074,47.375,214.125,50.537,270.352
							c1.041,18.512-2.207,36.989-9.47,54.081l-0.792,1.864c-1.554,3.657,0.584,7.861,4.495,8.739
							c87.119,19.569,177.73,14.252,204.8,12.016c4.833-0.399,8.848-3.857,9.957-8.528c42.363-178.503,42.46-300.266,32.088-377.238
							C1853.762,1573.058,1922.331,1689.232,2018.689,1617.515z"/>
						<path style="fill:#EEAA4E;" d="M1814.306,1568.853c-1.673,0-3.129-1.239-3.354-2.944
							c-9.955-75.196-30.229-108.013-30.435-108.336c-0.998-1.58-0.526-3.673,1.052-4.673c1.578-1.006,3.67-0.536,4.673,1.044
							c0.864,1.36,21.25,34.178,31.428,111.075c0.246,1.856-1.059,3.559-2.914,3.804
							C1814.605,1568.843,1814.454,1568.853,1814.306,1568.853z"/>
						
							<linearGradient id="SVGID_00000099654035917437220010000012884447560749166212_" gradientUnits="userSpaceOnUse" x1="967.191" y1="1515.2059" x2="995.4345" y2="1366.9275" gradientTransform="matrix(1 0 0 1 646.4113 0)">
							<stop  offset="0" style="stop-color:#F9B776"/>
							<stop  offset="1" style="stop-color:#F47960"/>
						</linearGradient>
						<path style="fill:url(#SVGID_00000099654035917437220010000012884447560749166212_);" d="M1599.31,1305.377
							c0,0-8.813,93.185-16.573,120.749c-1.177,4.182,0.64,8.592,4.439,10.762c13.17,7.525,44.758,19.8,87.965-1.376
							c7-3.43,11.208-10.727,10.882-18.449l-3.807-90.047L1599.31,1305.377z"/>
						<g>
							
								<linearGradient id="SVGID_00000031901918420069934550000013437081165334761642_" gradientUnits="userSpaceOnUse" x1="1043.6139" y1="1243.1621" x2="882.4675" y2="1366.4637" gradientTransform="matrix(1 0 0 1 646.4113 0)">
								<stop  offset="0" style="stop-color:#F9B776"/>
								<stop  offset="1" style="stop-color:#F47960"/>
							</linearGradient>
							<path style="fill:url(#SVGID_00000031901918420069934550000013437081165334761642_);" d="M1684.116,1186.164
								c0,0,28.189,64.754,30.082,98.742c1.893,33.987,9.217,56.041-30.082,62.886c-39.299,6.844-72.404-12.733-90.339-46.588
								c0,0-28.101-52.167-21.797-73.532C1578.284,1206.307,1684.116,1186.164,1684.116,1186.164z"/>
							
								<linearGradient id="SVGID_00000075142514457667931480000013787532173049734061_" gradientUnits="userSpaceOnUse" x1="930.1738" y1="1145.5341" x2="1080.2565" y2="1338.7651" gradientTransform="matrix(1 0 0 1 646.4113 0)">
								<stop  offset="0" style="stop-color:#2B3582"/>
								<stop  offset="1" style="stop-color:#150E42"/>
							</linearGradient>
							<path style="fill:url(#SVGID_00000075142514457667931480000013787532173049734061_);" d="M1607.206,1276.861l2.237-0.986
								c2.848-1.256,4.066-4.645,2.636-7.41c-5.541-10.707-16.345-35.243-2.389-40.967c17.986-7.377,89.231-21.905,104.603-47.185
								c14.774-24.297,1.684-55.659-17.989-64.579c-1.316-0.597-2.869-0.123-3.544,1.155l-1.64,3.102
								c-1.122,2.123-4.258,1.802-4.926-0.505v0c-0.641-2.214-3.587-2.644-4.808-0.689c-4.725,7.563-17.482,19.825-51.595,26.121
								c-48.482,8.947-80.535,28.567-81.333,62.068c-0.05,2.128-2.315,3.312-4.133,2.204c-3.58-2.181-9.308-3.205-16.964,3.232
								c-13.314,11.196-7.866,40.237,21.322,64.126c1.386,1.135,1.375,3.3-0.126,4.277c-5.292,3.444-13.18,11.641,7.259,22.567
								c21.141,11.301,36.928,10.374,43.006,9.371c1.513-0.25,2.487-1.714,2.157-3.211l-6.488-29.445
								c-0.367-1.666,0.902-3.245,2.608-3.245H1607.206z"/>
							
								<linearGradient id="SVGID_00000054964381357645206030000001666283523055799228_" gradientUnits="userSpaceOnUse" x1="1023.6262" y1="1217.0383" x2="862.4788" y2="1340.3407" gradientTransform="matrix(1 0 0 1 646.4113 0)">
								<stop  offset="0" style="stop-color:#F9B776"/>
								<stop  offset="1" style="stop-color:#F47960"/>
							</linearGradient>
							<path style="fill:url(#SVGID_00000054964381357645206030000001666283523055799228_);" d="M1608.427,1283.075
								c0,0-10.754-41.364-29.299-29.766c-18.545,11.598,9.624,46.346,24.533,47.895L1608.427,1283.075z"/>
						</g>
						
							<linearGradient id="SVGID_00000047740223143231542820000013493567224866480264_" gradientUnits="userSpaceOnUse" x1="1087.5208" y1="1676.0791" x2="995.0508" y2="1814.7838" gradientTransform="matrix(1 0 0 1 646.4113 0)">
							<stop  offset="0" style="stop-color:#F9B776"/>
							<stop  offset="1" style="stop-color:#F47960"/>
						</linearGradient>
						<path style="fill:url(#SVGID_00000047740223143231542820000013493567224866480264_);" d="M1607.633,1911.444l127.208-2.769
							c0,0-110.928-31.356-117.812-22.816c0,0-68.753-45.18-106.432-108.733c-11.734,17.432-25.457,41.16-37.347,70.678
							C1507.028,1867.633,1551.388,1902.081,1607.633,1911.444z"/>
						
							<linearGradient id="SVGID_00000021805790638317765060000006119864260706698408_" gradientUnits="userSpaceOnUse" x1="-4374.938" y1="1698.4824" x2="-4465.5469" y2="1834.3954" gradientTransform="matrix(-1 0 0 1 -2825.4714 0)">
							<stop  offset="0" style="stop-color:#F9B776"/>
							<stop  offset="1" style="stop-color:#F47960"/>
						</linearGradient>
						<path style="fill:url(#SVGID_00000021805790638317765060000006119864260706698408_);" d="M1604.046,1889.417
							c0,0-2.624,50.685,63.908,43.324c36.158-4,94.532-37.713,94.532-37.713S1610.335,1894.624,1604.046,1889.417z"/>
						<g>
							
								<linearGradient id="SVGID_00000089533154729945949660000015032945622266174631_" gradientUnits="userSpaceOnUse" x1="-4587.9629" y1="1374.5383" x2="-5339.5044" y2="2289.7075" gradientTransform="matrix(-1 0 0 1 -2825.4714 0)">
								<stop  offset="0" style="stop-color:#53D8FF"/>
								<stop  offset="1" style="stop-color:#3840F7"/>
							</linearGradient>
							<path style="fill:url(#SVGID_00000089533154729945949660000015032945622266174631_);" d="M1918.273,2157.654h418.868
								c13.357,0,24.185-16.183,24.185-36.146v-604.476c0-19.925-10.788-36.093-24.12-36.146l-422.217-1.694
								c-13.432-0.054-24.321,16.263-24.249,36.339l3.35,606.17C1894.16,2141.588,1904.967,2157.654,1918.273,2157.654z"/>
							<path style="opacity:0.6;fill:#FFFFFF;" d="M1938.799,1525.458l374.535,3.447c13.538,0.124,24.451,16.613,24.388,36.847
								l-2.614,508.398c-0.062,19.929-10.76,36.137-24.092,36.501l-363.907,9.923c-13.591,0.371-24.795-15.843-24.985-36.157
								l-8.015-521.768C1913.917,1542.105,1925.052,1525.332,1938.799,1525.458z"/>
							<path style="opacity:0.6;fill:#FFFFFF;" d="M1973.514,1791.012v3.859c0,6.06,3.287,10.972,7.341,10.972h288.577
								c4.054,0,7.341-4.913,7.341-10.972v-3.859c0-6.06-3.287-10.973-7.341-10.973h-288.577
								C1976.8,1780.039,1973.514,1784.952,1973.514,1791.012z"/>
							<path style="opacity:0.6;fill:#FFFFFF;" d="M2005.711,1839.553L2005.711,1839.553c0.208,5.744,3.349,10.272,7.197,10.377
								l252.375,6.874c4.106,0.112,7.475-4.832,7.475-10.97v-0.896c0-5.992-3.217-10.876-7.225-10.971l-252.375-5.978
								C2008.902,1827.888,2005.481,1833.201,2005.711,1839.553z"/>
							<path style="fill:#FFFFFF;" d="M1960.453,2093.398c-5.173,0-10.072-2.105-14.191-6.103
								c-6.142-5.962-9.883-15.753-10.008-26.192l-8.187-355.051c0-0.025-0.002-0.05-0.002-0.074
								c-0.217-18.324,10.183-32.983,23.675-33.375l340.756-9.912c5.31-0.164,10.383,1.916,14.633,5.988
								c6.2,5.947,9.981,15.764,10.115,26.262l8.781,358.835c0.237,18.572-10.252,33.25-23.877,33.494l-341.353,6.124
								C1960.681,2093.398,1960.567,2093.398,1960.453,2093.398z M1941.619,1705.779l8.189,355.089
								c0.083,6.88,2.34,13.252,5.894,16.701c1.556,1.511,3.157,2.275,4.761,2.275c0.03,0,0.06,0,0.091,0l341.351-6.124
								c5.105-0.093,10.709-8.532,10.567-19.691l-8.781-358.835c-0.088-6.917-2.365-13.296-5.944-16.729
								c-1.589-1.524-3.257-2.293-4.855-2.224l-340.757,9.912C1947.07,1686.3,1941.502,1694.722,1941.619,1705.779z"/>
							<path style="fill:#FFFFFF;" d="M2311.021,1745.493h-371.756c-3.743,0-6.778-3.035-6.778-6.778s3.035-6.778,6.778-6.778
								h371.756c3.743,0,6.778,3.035,6.778,6.778S2314.764,1745.493,2311.021,1745.493z"/>
							<g>
								
									<linearGradient id="SVGID_00000041266169542992390610000010252572649202016134_" gradientUnits="userSpaceOnUse" x1="-1332.4357" y1="1548.796" x2="-1155.8578" y2="1794.5103" gradientTransform="matrix(1 0 0 1 3275.8489 0)">
									<stop  offset="0" style="stop-color:#CB236D"/>
									<stop  offset="1" style="stop-color:#4C246D"/>
								</linearGradient>
								<path style="fill:url(#SVGID_00000041266169542992390610000010252572649202016134_);" d="M1956.159,1551.859
									c0-6.875,5.212-12.608,12.051-13.313c3.297-0.34,6.855-0.557,10.278-0.557c10.336,0,15.698,1.251,20.866,5.006
									c5.558,3.935,10.043,12.696,10.043,25.571c0,10.193-3.12,19.849-11.116,25.034v0.358
									c8.19,3.934,13.358,14.663,13.358,29.683c0,11.803-3.413,21.101-8.191,27.18c-5.265,6.437-13.846,10.192-28.472,10.192
									c-2.295,0-4.412-0.07-6.351-0.193c-7.022-0.443-12.467-6.311-12.467-13.347V1551.859z M1974.393,1584.659h3.9
									c8.581,0,12.481-4.292,12.481-11.802c0-6.796-3.218-10.729-9.75-10.729c-3.51,0-5.363,0.357-6.63,0.715V1584.659z
									 M1974.393,1636.158c1.463,0.358,3.218,0.358,5.948,0.358c6.435,0,11.798-4.113,11.798-14.663
									c0-10.193-5.558-13.59-12.968-13.59h-4.778V1636.158z"/>
								
									<linearGradient id="SVGID_00000163072117805653930360000001385437707021993405_" gradientUnits="userSpaceOnUse" x1="-1290.0492" y1="1518.3358" x2="-1113.4713" y2="1764.05" gradientTransform="matrix(1 0 0 1 3275.8489 0)">
									<stop  offset="0" style="stop-color:#CB236D"/>
									<stop  offset="1" style="stop-color:#4C246D"/>
								</linearGradient>
								<path style="fill:url(#SVGID_00000163072117805653930360000001385437707021993405_);" d="M2021.49,1548.092
									c0-4.529,3.323-8.356,7.802-9.023c4.349-0.647,9.556-1.08,15.404-1.08c11.018,0,18.331,2.86,23.401,9.477
									c4.193,5.543,6.825,14.305,6.825,26.464c0,16.094-7.118,26.286-11.7,28.968v0.715c4.388,3.398,6.825,11.265,8.678,21.28
									c1.355,7.452,2.709,16.862,3.849,24.17c0.862,5.529-3.412,10.521-9.008,10.521h-0.587c-4.34,0-8.086-3.056-8.937-7.312
									c-0.932-4.66-2.063-11.253-3.356-20.226c-2.048-14.484-4.68-17.345-10.823-17.345h-3.315v35.766
									c0,5.035-4.082,9.117-9.117,9.117l0,0c-5.035,0-9.117-4.082-9.117-9.117V1548.092z M2039.724,1590.918h5.46
									c7.215,0,11.506-5.365,11.506-14.484c0-9.12-3.705-13.769-9.946-13.769c-4.095,0-6.045,0.358-7.02,0.715V1590.918z"/>
								
									<linearGradient id="SVGID_00000003790154630174801960000016084498602797407935_" gradientUnits="userSpaceOnUse" x1="-1241.8364" y1="1488.7859" x2="-1065.2583" y2="1734.5002" gradientTransform="matrix(1 0 0 1 3275.8489 0)">
									<stop  offset="0" style="stop-color:#CB236D"/>
									<stop  offset="1" style="stop-color:#4C246D"/>
								</linearGradient>
								<path style="fill:url(#SVGID_00000003790154630174801960000016084498602797407935_);" d="M2112.383,1635.242l-2.868,19.356
									c-0.424,2.864-2.883,4.985-5.778,4.985h-7.423c-3.625,0-6.375-3.268-5.754-6.839l18.893-108.84
									c0.486-2.798,2.914-4.842,5.755-4.842h15.371c2.822,0,5.24,2.017,5.746,4.793l19.851,108.841
									c0.654,3.586-2.1,6.888-5.746,6.888h-8.499c-2.867,0-5.31-2.081-5.766-4.912l-3.141-19.502
									c-0.456-2.831-2.899-4.912-5.766-4.912h-9.097C2115.266,1630.257,2112.808,1632.378,2112.383,1635.242z M2122.522,1605.58
									c3.605,0,6.35-3.234,5.763-6.791l-2.39-14.487c-0.919-5.337-1.958-11.887-2.928-17.831c-0.135-0.83-1.332-0.82-1.452,0.013
									c-0.748,5.208-1.942,13.458-2.64,17.997l-2.13,14.405C2116.223,1602.413,2118.957,1605.58,2122.522,1605.58
									L2122.522,1605.58z"/>
								
									<linearGradient id="SVGID_00000026863180800171980200000008419611982916642987_" gradientUnits="userSpaceOnUse" x1="-1193.0154" y1="1449.0521" x2="-1016.4376" y2="1694.7661" gradientTransform="matrix(1 0 0 1 3275.8489 0)">
									<stop  offset="0" style="stop-color:#CB236D"/>
									<stop  offset="1" style="stop-color:#4C246D"/>
								</linearGradient>
								<path style="fill:url(#SVGID_00000026863180800171980200000008419611982916642987_);" d="M2159.941,1653.735l0.138-108.84
									c0.004-3.223,2.618-5.833,5.841-5.833h12.973c2.559,0,4.82,1.665,5.578,4.109l9.548,30.76
									c3.484,11.146,6.902,24.392,9.86,37.582c0.203,0.905,1.538,0.742,1.513-0.186c-0.288-10.744-0.745-29.537-0.745-40.794
									v-25.631c0-3.226,2.615-5.841,5.841-5.841h5.375c3.229,0,5.845,2.619,5.841,5.848l-0.138,108.84
									c-0.004,3.223-2.618,5.833-5.841,5.833h-9.982c-2.59,0-4.871-1.706-5.603-4.191l-10.509-35.685
									c-3.64-12.11-7.648-25.972-11.13-40.183c-0.217-0.884-1.516-0.726-1.511,0.184c0.056,11.227,0.16,33.976,0.16,47.331
									l-0.125,26.731c-0.015,3.215-2.625,5.813-5.841,5.813h-5.402C2162.553,1659.583,2159.937,1656.964,2159.941,1653.735z"/>
								
									<linearGradient id="SVGID_00000042710769221035940220000004569575593747425184_" gradientUnits="userSpaceOnUse" x1="-1152.6279" y1="1417.3431" x2="-976.0505" y2="1663.0568" gradientTransform="matrix(1 0 0 1 3275.8489 0)">
									<stop  offset="0" style="stop-color:#CB236D"/>
									<stop  offset="1" style="stop-color:#4C246D"/>
								</linearGradient>
								<path style="fill:url(#SVGID_00000042710769221035940220000004569575593747425184_);" d="M2230.303,1545.301
									c0-2.813,2.006-5.215,4.769-5.743c5.475-1.046,11.85-1.569,18.34-1.569c13.846,0,22.329,3.755,29.544,12.159
									c7.703,8.941,13.066,23.603,13.066,45.598c0,25.034-5.655,40.233-12.091,49.174c-8.093,11.266-20.281,16.093-34.127,16.093
									c-6.26,0-11.032-0.442-14.602-1.042c-2.824-0.475-4.899-2.902-4.899-5.765V1545.301z M2248.732,1634.727
									c1.073,0.358,2.925,0.358,4.29,0.358c13.456,0.358,23.304-11.265,23.304-37.551c0-23.961-9.263-33.975-21.159-33.975
									c-3.413,0-5.461,0.537-6.435,0.895V1634.727z"/>
							</g>
						</g>
						
							<linearGradient id="SVGID_00000062887735840477875890000015742034894142062751_" gradientUnits="userSpaceOnUse" x1="-4974.9941" y1="1491.5266" x2="-4912.043" y2="1491.5266" gradientTransform="matrix(-1 0 0 1 -2825.4714 0)">
							<stop  offset="0" style="stop-color:#F9B776"/>
							<stop  offset="1" style="stop-color:#F47960"/>
						</linearGradient>
						<path style="fill:url(#SVGID_00000062887735840477875890000015742034894142062751_);" d="M2134.04,1503.193
							c-8.11,6.501-18.325,9.717-27.297,5.548c-5.245-2.438-25.467-19.855-18.859-29.071c1.105-1.542,2.687-2.324,4.221-3.004
							c14.922-6.614,29.527-3.635,44.983-3.048c4.397,0.167,11.187-0.432,12.306,7.207
							C2150.865,1490.859,2139.296,1498.98,2134.04,1503.193z"/>
					</g>
				</g>
			</g>
			<g>
				<g>
					<path style="fill:#FFFFFF;" d="M1396.021,1093.47c5.374-27.213,11.162-54.44,17.37-81.655
						c1.702-7.455,7.034-13.735,14.237-16.711c26.28-10.868,52.799-21.219,79.544-31.034c18.395-6.727,21.941-31.01,5.484-41.199
						c-23.885-14.663-48.23-28.926-73.032-42.763c-6.795-3.794-11.064-10.562-11.325-18.164
						c-0.972-27.702-1.774-55.432-2.406-83.188c-0.341-19.178-25.215-28.042-41.828-14.677
						c-23.972,19.29-47.442,38.962-70.408,59.004c-6.298,5.508-14.857,8.033-22.98,6.839c-29.636-4.395-59.585-8.181-89.824-11.332
						c-20.954-2.17-37.8,19.099-28.403,35.593c13.483,23.919,26.807,47.927,39.969,72.005c3.611,6.594,3.379,14.717-0.524,21.691
						c-14.259,25.466-27.951,51.068-41.081,76.769c-9.01,17.785,6.335,36.431,25.56,31.945c27.96-6.492,55.922-12.366,83.869-17.635
						c7.667-1.447,15.38,0.948,20.595,6.344c19.032,19.706,37.7,39.657,55.994,59.831
						C1369.465,1119.004,1392.283,1112.226,1396.021,1093.47z"/>
					
						<linearGradient id="SVGID_00000036954037413110355080000011263149335704636333_" gradientUnits="userSpaceOnUse" x1="1480.6758" y1="915.9888" x2="1168.7747" y2="1387.8387" gradientTransform="matrix(0.9568 3.000000e-04 3.000000e-04 -1 -50.2934 1933.9353)">
						<stop  offset="0" style="stop-color:#FDF53F"/>
						<stop  offset="1" style="stop-color:#D93C65"/>
					</linearGradient>
					<path style="fill:url(#SVGID_00000036954037413110355080000011263149335704636333_);" d="M1398.304,772.026
						c-1.574,0.396-3.045,1.137-4.399,2.227c-23.891,19.178-47.283,38.738-70.17,58.671c-4.944,4.302-10.898,7.572-17.246,9.452
						c-6.36,1.889-13.061,2.401-19.432,1.461c-29.525-4.339-59.357-8.065-89.484-11.167c-1.699-0.175-3.359,0.002-4.888,0.545
						c-2.823,0.992-5.288,3.168-6.536,5.844c-0.859,1.817-1.514,4.612,0.186,7.672c13.335,24.015,26.511,48.111,39.529,72.275
						c5.717,10.628,5.269,23.638-1.005,34.78c-14.279,25.369-27.994,50.863-41.142,76.469c-2.425,4.726-0.23,8.331,0.822,9.633
						c1.06,1.318,4.068,4.262,9.267,3.044c28.122-6.524,56.25-12.426,84.361-17.723c12.369-2.348,24.793,1.542,33.116,10.259
						c18.95,19.813,37.528,39.866,55.736,60.148c3.359,3.754,7.495,3.023,9.105,2.55c1.616-0.482,5.48-2.126,6.454-7.183
						c5.257-27.262,10.931-54.526,17.023-81.793c2.664-12.004,11.24-22.108,22.877-26.918c26.438-10.938,53.11-21.354,80.014-31.234
						c4.974-1.831,6.032-5.963,6.265-7.672c0.221-1.7,0.297-5.948-4.13-8.648c-23.866-14.566-48.191-28.731-72.973-42.47
						c-10.894-6.023-17.8-16.848-18.305-29.029c-1.138-27.702-2.105-55.432-2.901-83.178c-0.097-3.529-2.069-5.56-3.692-6.629
						C1404.341,771.828,1401.19,771.307,1398.304,772.026z"/>
					<path style="fill:#FFFFFF;" d="M1244.095,933.643c-0.899,0.314-1.579,1.116-1.61,2.064c-0.276,7.968-2.594,15.961-6.668,23.163
						c-5.438,9.617-10.797,19.255-16.07,28.911c-0.577,1.062-0.178,2.31,0.879,2.8c1.069,0.491,2.392,0.021,2.972-1.027
						c5.276-9.645,10.636-19.269,16.075-28.874c4.415-7.814,6.946-16.483,7.262-25.133c0.043-1.165-0.922-2.064-2.149-2.031
						C1244.539,933.534,1244.318,933.567,1244.095,933.643z"/>
					<path style="fill:#FFFFFF;" d="M1271.111,854.07c-0.801,0.254-1.452,0.878-1.654,1.684c-0.284,1.151,0.478,2.231,1.708,2.404
						c3.946,0.545,7.885,1.113,11.821,1.681c9.083,1.309,18.643,0.591,27.687-2.094c9.051-2.688,17.521-7.332,24.572-13.455
						c0.946-0.815,1.053-2.147,0.226-2.979c-0.826-0.808-2.263-0.813-3.22,0.009c-6.503,5.646-14.329,9.936-22.67,12.414
						c-8.347,2.478-17.158,3.159-25.542,1.927c-3.939-0.573-7.883-1.137-11.835-1.688
						C1271.833,853.916,1271.461,853.954,1271.111,854.07z"/>
					<path style="fill:#FFFFFF;" d="M1376.234,806.597c-1.764,0.464-3.491,1.148-5.114,2.099c-1.116,0.638-1.502,1.961-0.882,2.918
						c0.622,0.98,2.021,1.232,3.128,0.603c4.255-2.448,9.39-2.742,13.727-0.776c4.35,1.973,6.937,5.732,7.122,10.297
						c0.597,14.366,1.236,28.727,1.925,43.079c0.858,17.459,10.875,32.835,26.463,41.432c12.829,7.057,25.536,14.23,38.121,21.52
						c4.384,2.525,6.642,7.071,6.058,12.055c-0.588,5.005-3.826,9.104-8.687,10.996c-13.921,5.425-27.778,10.996-41.569,16.705
						c-16.794,6.943-29.113,21.537-32.848,38.77c-3.089,14.156-6.064,28.312-8.927,42.469c-1.002,4.945-4.476,8.727-9.308,10.171
						c-4.83,1.428-9.695,0.133-13.039-3.521c-9.571-10.46-19.24-20.857-29.009-31.188c-11.862-12.568-29.723-18.213-47.583-14.833
						c-14.668,2.758-29.34,5.683-44.009,8.774c-2.622,0.531-5.243,0.373-7.583-0.517c-1.094-0.419-2.38,0.135-2.863,1.22
						c-0.491,1.099,0.006,2.297,1.09,2.718c3.116,1.195,6.586,1.423,10.046,0.692c14.647-3.086,29.29-6.007,43.932-8.76
						c16.414-3.089,32.858,2.068,43.8,13.634c9.784,10.313,19.466,20.696,29.049,31.135c4.362,4.756,10.963,6.521,17.262,4.656
						c6.299-1.859,11.008-7.02,12.323-13.455c2.88-14.149,5.874-28.301,8.979-42.45c3.459-15.866,14.802-29.277,30.245-35.668
						c13.769-5.697,27.601-11.259,41.494-16.672c6.326-2.467,10.736-8.029,11.509-14.548c0.779-6.528-2.274-12.668-8.003-15.991
						c-12.587-7.304-25.298-14.491-38.129-21.569c-14.367-7.909-23.584-22.121-24.322-38.206
						c-0.664-14.354-1.279-28.706-1.849-43.076c-0.234-5.979-3.742-11.075-9.429-13.667
						C1385.27,805.798,1380.614,805.444,1376.234,806.597z"/>
				</g>
				<g>
					<path style="fill:#FFFFFF;" d="M1677.567,937.413c9.982-25.704,20.378-51.342,31.182-76.895
						c2.958-7.02,9.263-12.13,16.813-13.681c27.555-5.618,55.282-10.691,83.159-15.198c19.179-3.084,26.897-26.277,12.568-39.443
						c-20.803-19.003-42.116-37.705-63.933-56.072c-5.972-5.04-8.961-12.512-7.893-20.032c3.889-27.425,7.947-54.829,12.18-82.231
						c3.004-18.926-19.737-32.406-38.303-22.48c-26.777,14.341-53.111,29.149-78.995,44.41c-7.096,4.153-15.882,5.043-23.594,2.271
						c-28.12-10.054-56.626-19.575-85.506-28.549c-20.017-6.216-40.083,11.401-33.804,29.435
						c8.963,26.127,17.758,52.297,26.387,78.513c2.364,7.188,0.742,15.111-4.275,21.204c-18.285,22.238-36.026,44.71-53.223,67.386
						c-11.833,15.71-0.15,37.007,19.302,36.364c28.286-0.911,56.498-1.237,84.615-0.989c7.709,0.063,14.814,3.92,18.947,10.229
						c15.11,23.053,29.822,46.274,44.137,69.639C1647.231,957.381,1670.645,955.121,1677.567,937.413z"/>
					
						<linearGradient id="SVGID_00000170971615766312878020000010492357844882179740_" gradientUnits="userSpaceOnUse" x1="1812.3069" y1="1087.0925" x2="1502.3331" y2="1556.0266" gradientTransform="matrix(0.9568 3.000000e-04 3.000000e-04 -1 -50.2934 1933.9353)">
						<stop  offset="0" style="stop-color:#FDF53F"/>
						<stop  offset="1" style="stop-color:#D93C65"/>
					</linearGradient>
					<path style="fill:url(#SVGID_00000170971615766312878020000010492357844882179740_);" d="M1735.861,621.939
						c-1.6,0.089-3.171,0.526-4.687,1.339c-26.68,14.247-52.923,28.963-78.716,44.128c-5.572,3.27-11.937,5.315-18.46,5.956
						c-6.523,0.62-13.157-0.172-19.196-2.327c-28.018-9.975-56.42-19.426-85.194-28.325c-1.636-0.508-3.265-0.643-4.85-0.419
						c-2.919,0.419-5.687,2.092-7.373,4.472c-1.146,1.619-2.27,4.227-1.15,7.572c8.807,26.186,17.446,52.416,25.916,78.685
						c3.718,11.559,1.019,24.239-7.014,33.972c-18.289,22.138-36.039,44.512-53.247,67.088c-3.18,4.174-1.66,8.124-0.867,9.621
						c0.798,1.512,3.222,4.972,8.476,4.795c28.454-0.911,56.832-1.237,85.114-0.982c12.447,0.126,23.868,6.33,30.46,16.508
						c15.012,23.144,29.626,46.444,43.842,69.893c2.628,4.327,6.771,4.434,8.433,4.269c1.664-0.168,5.715-1.058,7.541-5.811
						c9.874-25.774,20.158-51.473,30.858-77.095c4.689-11.273,14.813-19.565,27.025-22.043c27.72-5.658,55.607-10.763,83.648-15.306
						c5.188-0.841,6.953-4.707,7.47-6.338c0.514-1.623,1.309-5.792-2.529-9.293c-20.797-18.907-42.105-37.512-63.913-55.776
						c-9.58-8.044-14.451-19.988-12.814-32.057c3.723-27.451,7.621-54.887,11.689-82.314c0.52-3.505-1.046-5.848-2.45-7.222
						C1741.802,622.91,1738.796,621.792,1735.861,621.939z"/>
					<path style="fill:#FFFFFF;" d="M1557.352,750.942c-0.933,0.124-1.726,0.794-1.924,1.717
						c-1.657,7.763-5.303,15.179-10.509,21.458c-6.961,8.392-13.842,16.814-20.646,25.273c-0.744,0.922-0.575,2.222,0.37,2.921
						c0.954,0.68,2.315,0.517,3.066-0.429c6.806-8.445,13.688-16.858,20.648-25.238c5.653-6.799,9.617-14.862,11.429-23.277
						c0.247-1.134-0.544-2.22-1.738-2.415C1557.821,750.914,1557.569,750.919,1557.352,750.942z"/>
					<path style="fill:#FFFFFF;" d="M1597.485,678.002c-0.827,0.093-1.571,0.596-1.903,1.337c-0.479,1.085,0.076,2.292,1.246,2.69
						c3.749,1.307,7.489,2.62,11.225,3.945c8.623,3.046,18.069,4.197,27.348,3.298c9.294-0.906,18.359-3.813,26.304-8.471
						c1.066-0.627,1.401-1.908,0.741-2.886c-0.67-0.976-2.069-1.241-3.143-0.613c-7.331,4.288-15.699,6.995-24.269,7.819
						c-8.567,0.82-17.281-0.214-25.228-3.046c-3.738-1.328-7.484-2.65-11.237-3.955
						C1598.207,678.002,1597.842,677.964,1597.485,678.002z"/>
					<path style="fill:#FFFFFF;" d="M1708.273,651.665c-1.794,0.112-3.608,0.48-5.358,1.076c-1.193,0.417-1.813,1.614-1.372,2.695
						c0.442,1.095,1.75,1.612,2.949,1.199c4.578-1.591,9.655-0.888,13.539,1.882c3.9,2.781,5.772,6.955,5.156,11.494
						c-1.922,14.235-3.803,28.466-5.638,42.706c-2.219,17.326,4.885,34.384,18.612,45.822c11.299,9.409,22.459,18.907,33.487,28.489
						c3.852,3.335,5.256,8.208,3.815,13.017c-1.446,4.789-5.342,8.212-10.411,9.135c-14.551,2.651-29.058,5.455-43.518,8.413
						c-17.607,3.599-32.177,15.57-38.818,31.767c-5.479,13.315-10.847,26.652-16.104,40.009c-1.839,4.656-5.888,7.707-10.846,8.196
						c-4.959,0.473-9.479-1.758-12.097-5.983c-7.506-12.127-15.119-24.215-22.841-36.259c-9.37-14.661-25.794-23.637-43.759-23.802
						c-14.758-0.139-29.537-0.116-44.341,0.061c-2.652,0.035-5.159-0.645-7.286-1.982c-0.99-0.615-2.33-0.335-2.994,0.641
						c-0.666,0.969-0.403,2.259,0.589,2.881c2.822,1.772,6.154,2.676,9.647,2.634c14.777-0.177,29.534-0.196,44.264-0.064
						c16.513,0.14,31.633,8.412,40.284,21.893c7.735,12.027,15.365,24.106,22.886,36.217c3.427,5.513,9.555,8.527,16.015,7.914
						c6.447-0.624,11.96-4.761,14.357-10.842c5.274-13.343,10.66-26.675,16.156-39.981c6.145-14.915,19.547-25.928,35.736-29.221
						c14.437-2.947,28.918-5.746,43.443-8.395c6.61-1.223,11.896-5.802,13.79-12.086c1.902-6.254-0.008-12.882-5.029-17.258
						c-11.029-9.598-22.189-19.11-33.489-28.538c-12.645-10.541-19.152-26.272-17.084-42.235
						c1.858-14.233,3.763-28.464,5.713-42.694c0.798-5.904-1.722-11.638-6.824-15.246
						C1717.228,652.617,1712.751,651.393,1708.273,651.665z"/>
				</g>
				<g>
					<path style="fill:#FFFFFF;" d="M2062.136,941.292c14.332-23.359,29.058-46.566,44.181-69.61
						c4.142-6.31,11.242-10.157,18.955-10.22c28.115-0.231,56.328,0.104,84.614,1.04c19.452,0.659,31.141-20.638,19.328-36.353
						c-17.181-22.683-34.908-45.167-53.176-67.417c-5.003-6.097-6.627-14.021-4.258-21.206
						c8.648-26.209,17.464-52.374,26.449-78.493c6.304-18.032-13.763-35.644-33.782-29.453
						c-28.886,8.953-57.402,18.456-85.53,28.493c-7.716,2.76-16.499,1.894-23.593-2.287c-25.872-15.278-52.197-30.096-78.961-44.456
						c-18.55-9.929-41.331,3.534-38.321,22.455c4.209,27.404,8.249,54.812,12.115,82.24c1.057,7.525-1.927,14.988-7.908,20.026
						c-21.834,18.356-43.158,37.045-63.974,56.034c-14.338,13.167-6.637,36.355,12.541,39.447
						c27.876,4.527,55.598,9.618,83.149,15.254c7.56,1.539,13.86,6.682,16.806,13.688c10.79,25.561,21.167,51.2,31.131,76.917
						C2028.81,955.095,2052.225,957.359,2062.136,941.292z"/>
					
						<linearGradient id="SVGID_00000070812101665227263000000009138402364462648726_" gradientUnits="userSpaceOnUse" x1="2244.0825" y1="1105.1738" x2="1924.9812" y2="1587.9165" gradientTransform="matrix(0.9568 3.000000e-04 3.000000e-04 -1 -50.2934 1933.9353)">
						<stop  offset="0" style="stop-color:#FDF53F"/>
						<stop  offset="1" style="stop-color:#D93C65"/>
					</linearGradient>
					<path style="fill:url(#SVGID_00000070812101665227263000000009138402364462648726_);" d="M2174.923,642.361
						c-1.585-0.212-3.221-0.105-4.85,0.415c-28.78,8.883-57.193,18.317-85.217,28.274c-6.045,2.15-12.677,2.951-19.196,2.315
						c-6.516-0.631-12.896-2.704-18.457-5.964c-25.779-15.181-52.012-29.914-78.683-44.177c-1.51-0.818-3.085-1.269-4.685-1.341
						c-2.945-0.14-5.944,0.969-8.016,2.984c-1.414,1.365-2.972,3.727-2.456,7.222c4.047,27.43,7.921,54.875,11.626,82.319
						c1.619,12.083-3.255,24.022-12.836,32.051c-21.824,18.256-43.146,36.847-63.957,55.738c-3.842,3.489-3.046,7.663-2.535,9.291
						c0.517,1.621,2.273,5.511,7.464,6.342c28.041,4.562,55.925,9.681,83.642,15.354c12.194,2.487,22.322,10.802,27.01,22.063
						c10.683,25.627,20.951,51.335,30.806,77.113c1.825,4.761,5.876,5.65,7.539,5.811c1.66,0.168,5.798,0.074,8.436-4.262
						c14.23-23.44,28.858-46.736,43.886-69.868c6.602-10.18,18.021-16.385,30.472-16.486c28.284-0.238,56.659,0.102,85.111,1.033
						c5.261,0.179,7.684-3.291,8.48-4.793c0.788-1.509,2.319-5.427-0.861-9.622c-17.191-22.592-34.923-44.969-53.197-67.118
						c-8.036-9.736-10.71-22.415-6.988-33.972c8.49-26.265,17.148-52.491,25.977-78.672c1.115-3.335,0.003-5.944-1.146-7.572
						C2180.607,644.457,2177.85,642.794,2174.923,642.361z"/>
					<path style="fill:#FFFFFF;" d="M1976.762,734.937c-0.943-0.047-1.839,0.447-2.188,1.316
						c-2.987,7.304-7.863,13.905-14.076,19.085c-8.301,6.913-16.529,13.872-24.682,20.883c-0.891,0.773-0.961,2.087-0.149,2.942
						c0.812,0.869,2.198,0.939,3.082,0.168c8.155-6.994,16.38-13.944,24.681-20.85c6.74-5.606,12.046-12.756,15.298-20.694
						c0.439-1.074-0.129-2.303-1.282-2.704C1977.221,735.007,1976.989,734.942,1976.762,734.937z"/>
					<path style="fill:#FFFFFF;" d="M2028.965,670.927c-0.818-0.075-1.642,0.261-2.105,0.95c-0.668,0.96-0.316,2.273,0.752,2.883
						c3.453,2.001,6.898,4.013,10.335,6.028c7.947,4.653,17.014,7.592,26.296,8.487c9.291,0.918,18.724-0.256,27.354-3.284
						c1.156-0.408,1.721-1.623,1.236-2.693c-0.483-1.085-1.823-1.626-2.985-1.204c-7.958,2.811-16.669,3.869-25.235,3.031
						c-8.566-0.827-16.936-3.528-24.259-7.832c-3.439-2.019-6.89-4.031-10.346-6.039
						C2029.68,671.062,2029.319,670.954,2028.965,670.927z"/>
					<path style="fill:#FFFFFF;" d="M2142.536,666.285c-1.8-0.23-3.629-0.216-5.464,0.03c-1.258,0.182-2.06,1.239-1.824,2.387
						c0.249,1.141,1.436,1.919,2.694,1.742c4.779-0.683,9.653,0.994,12.997,4.448c3.355,3.489,4.46,7.951,3.059,12.288
						c-4.397,13.625-8.747,27.255-13.053,40.901c-5.231,16.609-1.236,34.738,10.277,48.615
						c9.472,11.417,18.802,22.899,27.983,34.437c3.21,4.013,3.74,9.086,1.472,13.53c-2.272,4.444-6.698,7.052-11.864,6.98
						c-14.803-0.188-29.582-0.211-44.34-0.09c-17.965,0.14-34.393,9.14-43.778,23.78c-7.729,12.035-15.35,24.118-22.863,36.243
						c-2.62,4.225-7.144,6.461-12.102,5.977c-4.967-0.487-9.005-3.533-10.84-8.203c-5.249-13.359-10.608-26.7-16.079-40.02
						c-6.632-16.199-21.183-28.184-38.794-31.787c-14.458-2.967-28.966-5.78-43.516-8.44c-2.597-0.475-4.957-1.64-6.797-3.344
						c-0.865-0.792-2.226-0.778-3.048,0.056c-0.821,0.82-0.781,2.147,0.073,2.944c2.462,2.289,5.569,3.822,8.997,4.441
						c14.526,2.657,29.005,5.466,43.438,8.421c16.199,3.298,29.578,14.337,35.716,29.241c5.485,13.306,10.865,26.642,16.129,39.99
						c2.403,6.065,7.888,10.224,14.351,10.851c6.458,0.631,12.584-2.392,16.02-7.905c7.532-12.107,15.167-24.181,22.911-36.203
						c8.652-13.474,23.777-21.733,40.299-21.868c14.73-0.124,29.485-0.101,44.262,0.09c6.733,0.088,12.741-3.452,15.714-9.23
						c2.966-5.792,2.255-12.668-1.925-17.929c-9.181-11.554-18.507-23.051-27.979-34.486c-10.607-12.817-14.248-29.488-9.405-44.802
						c4.331-13.632,8.708-27.262,13.127-40.871c1.836-5.66,0.339-11.734-4.04-16.299
						C2151.189,668.926,2146.993,666.877,2142.536,666.285z"/>
				</g>
				<g>
					<path style="fill:#FFFFFF;" d="M2342.196,1098.446c18.306-20.163,36.985-40.1,56.033-59.793
						c5.225-5.394,12.931-7.779,20.6-6.333c27.945,5.287,55.903,11.174,83.856,17.683c19.22,4.502,34.584-14.14,25.583-31.925
						c-13.11-25.71-26.785-51.321-41.026-76.794c-3.905-6.987-4.119-15.078-0.509-21.691c13.183-24.067,26.525-48.056,40.028-71.974
						c9.41-16.49-7.417-37.768-28.377-35.607c-30.244,3.133-60.194,6.897-89.836,11.274c-8.127,1.207-16.68-1.36-22.978-6.852
						c-22.951-20.053-46.407-39.747-70.364-59.048c-16.609-13.373-41.472-4.527-41.844,14.653
						c-0.653,27.749-1.476,55.483-2.471,83.185c-0.269,7.597-4.543,14.361-11.338,18.155
						c-24.811,13.814-49.168,28.068-73.065,42.716c-16.475,10.16-12.946,34.475,5.456,41.197
						c26.74,9.835,53.254,20.204,79.526,31.087c7.207,2.981,12.535,9.26,14.228,16.72c6.19,27.222,11.964,54.444,17.317,81.664
						C2306.743,1105.518,2329.551,1112.309,2342.196,1098.446z"/>
					
						<linearGradient id="SVGID_00000150804606659874446360000018063849935648465295_" gradientUnits="userSpaceOnUse" x1="2589.6597" y1="929.0894" x2="2255.7573" y2="1434.2235" gradientTransform="matrix(0.9568 3.000000e-04 3.000000e-04 -1 -50.2934 1933.9353)">
						<stop  offset="0" style="stop-color:#FDF53F"/>
						<stop  offset="1" style="stop-color:#D93C65"/>
					</linearGradient>
					<path style="fill:url(#SVGID_00000150804606659874446360000018063849935648465295_);" d="M2506.541,826.638
						c-1.541-0.519-3.177-0.729-4.888-0.543c-30.131,3.079-59.968,6.788-89.498,11.106c-6.375,0.941-13.078,0.415-19.431-1.469
						c-6.346-1.898-12.311-5.154-17.24-9.46c-22.872-19.944-46.25-39.521-70.127-58.715c-1.365-1.083-2.836-1.833-4.399-2.224
						c-2.886-0.713-6.044-0.205-8.453,1.379c-1.623,1.055-3.592,3.081-3.698,6.626c-0.818,27.746-1.806,55.467-2.963,83.169
						c-0.519,12.197-7.432,22.991-18.33,29.018c-24.79,13.723-49.127,27.875-73.005,42.425c-4.414,2.706-4.356,6.936-4.139,8.646
						c0.227,1.696,1.29,5.86,6.261,7.674c26.9,9.896,53.57,20.33,79.998,31.281c11.629,4.83,20.2,14.938,22.858,26.938
						c6.074,27.269,11.732,54.537,16.971,81.797c0.973,5.045,4.834,6.703,6.45,7.188c1.623,0.491,5.733,1.199,9.108-2.548
						c18.22-20.275,36.813-40.31,55.776-60.112c8.335-8.718,20.747-12.575,33.122-10.239c28.11,5.312,56.233,11.232,84.349,17.774
						c5.205,1.197,8.218-1.71,9.27-3.039c1.049-1.307,3.257-4.898,0.829-9.631c-13.131-25.613-26.824-51.12-41.086-76.491
						c-6.27-11.175-6.702-24.125-0.979-34.78c13.035-24.155,26.23-48.238,39.584-72.246c1.702-3.051,1.038-5.865,0.191-7.672
						C2511.81,829.813,2509.368,827.637,2506.541,826.638z"/>
					<path style="fill:#FFFFFF;" d="M2293.884,878.973c-0.909-0.228-1.894,0.093-2.398,0.871
						c-4.241,6.608-10.22,12.142-17.277,16.029c-9.427,5.189-18.784,10.439-28.077,15.75c-1.018,0.58-1.31,1.87-0.664,2.865
						c0.647,1.011,1.991,1.328,3.019,0.759c9.293-5.301,18.648-10.542,28.07-15.717c7.656-4.213,14.156-10.204,18.771-17.375
						c0.618-0.967,0.271-2.257-0.793-2.909C2294.324,879.12,2294.108,879.041,2293.884,878.973z"/>
					<path style="fill:#FFFFFF;" d="M2356.801,826.191c-0.808-0.226-1.677-0.053-2.251,0.519c-0.827,0.82-0.715,2.161,0.237,2.984
						c3.067,2.639,6.127,5.285,9.178,7.937c7.043,6.135,15.524,10.76,24.562,13.466c9.038,2.702,18.6,3.424,27.688,2.11
						c1.226-0.17,1.988-1.26,1.697-2.408c-0.29-1.174-1.526-1.924-2.745-1.765c-8.396,1.213-17.198,0.538-25.545-1.944
						c-8.351-2.469-16.16-6.787-22.66-12.428c-3.052-2.66-6.114-5.31-9.186-7.951
						C2357.481,826.454,2357.158,826.282,2356.801,826.191z"/>
					<path style="fill:#FFFFFF;" d="M2470.2,843.804c-1.754-0.582-3.565-0.932-5.428-1.043c-1.269-0.075-2.27,0.815-2.228,1.991
						c0.03,1.174,1.095,2.175,2.367,2.241c4.861,0.27,9.405,2.865,12.117,6.924c2.723,4.071,3.031,8.688,0.88,12.682
						c-6.752,12.533-13.463,25.082-20.129,37.655c-8.094,15.293-7.312,33.916,1.674,49.817
						c7.399,13.089,14.653,26.211,21.749,39.368c2.477,4.591,2.129,9.677-0.909,13.595c-3.042,3.941-7.886,5.59-13.008,4.526
						c-14.67-3.098-29.338-6.027-44.002-8.799c-17.847-3.372-35.726,2.236-47.597,14.804c-9.778,10.33-19.451,20.717-29.028,31.168
						c-3.346,3.645-8.211,4.968-13.043,3.515c-4.827-1.442-8.314-5.224-9.3-10.173c-2.854-14.158-5.82-28.319-8.899-42.478
						c-3.725-17.219-16.028-31.827-32.821-38.786c-13.79-5.72-27.644-11.3-41.561-16.729c-2.488-0.992-4.609-2.562-6.131-4.604
						c-0.71-0.95-2.076-1.183-3.024-0.533c-0.953,0.641-1.153,1.968-0.445,2.909c2.03,2.706,4.836,4.812,8.115,6.107
						c13.892,5.422,27.722,10.988,41.487,16.697c15.432,6.398,26.772,19.836,30.219,35.683c3.096,14.149,6.08,28.301,8.952,42.454
						c1.311,6.447,6.015,11.575,12.315,13.462c6.299,1.87,12.884,0.119,17.265-4.644c9.591-10.434,19.281-20.808,29.069-31.117
						c10.955-11.548,27.395-16.718,43.814-13.607c14.638,2.76,29.279,5.689,43.924,8.785c6.667,1.407,13.257-0.867,17.227-5.981
						c3.976-5.11,4.459-12.013,1.23-18.011c-7.095-13.173-14.342-26.314-21.739-39.417c-8.286-14.657-8.959-31.804-1.477-45.895
						c6.689-12.556,13.424-25.091,20.197-37.61c2.809-5.196,2.408-11.48-1.152-16.821
						C2478.332,848.11,2474.521,845.255,2470.2,843.804z"/>
				</g>
			</g>
		</g>
		<g>
			
				<linearGradient id="SVGID_00000089567712192037147890000007797937905394597535_" gradientUnits="userSpaceOnUse" x1="2541.6213" y1="1471.7188" x2="1649.4325" y2="2730.502" gradientTransform="matrix(-0.9849 -0.1731 -0.1731 0.9849 5026.7104 669.1506)">
				<stop  offset="0" style="stop-color:#2B3582"/>
				<stop  offset="1" style="stop-color:#150E42"/>
			</linearGradient>
			<path style="fill:url(#SVGID_00000089567712192037147890000007797937905394597535_);" d="M2602.135,2060.158
				c4.302-4.184,4.104-11.153-0.428-15.086L2066.233,1567.3c-1.502-1.34-3.661-1.647-5.477-0.778l0,0
				c-3.186,1.525-3.823,5.787-1.222,8.177l528.52,485.66C2592.057,2064.037,2598.238,2063.949,2602.135,2060.158L2602.135,2060.158z
				"/>
			
				<linearGradient id="SVGID_00000180347036141846195110000004776940615667725447_" gradientUnits="userSpaceOnUse" x1="1617.4872" y1="3200.1929" x2="1719.2538" y2="3200.1929" gradientTransform="matrix(-1 0 0 1 4634.4971 0)">
				<stop  offset="0" style="stop-color:#CB236D"/>
				<stop  offset="1" style="stop-color:#4C246D"/>
			</linearGradient>
			<path style="fill:url(#SVGID_00000180347036141846195110000004776940615667725447_);" d="M2915.245,3236.428
				c-0.012-0.757,0.039-1.525,0.233-2.299c11.461-45.442,68.35-73.745,68.35-73.745l22.543,1.767
				c12.961,40.052,11.296,64.615,9.214,75.557c-0.058,0.306-0.151,0.598-0.232,0.895
				C2996.758,3240.264,2958.482,3241.35,2915.245,3236.428z"/>
			
				<linearGradient id="SVGID_00000075136936727251666510000006132869675819736501_" gradientUnits="userSpaceOnUse" x1="1872.2549" y1="3080.1375" x2="1502.0248" y2="3370.8433" gradientTransform="matrix(-1 0 0 1 4634.4971 0)">
				<stop  offset="0" style="stop-color:#2B3582"/>
				<stop  offset="1" style="stop-color:#150E42"/>
			</linearGradient>
			<path style="fill:url(#SVGID_00000075136936727251666510000006132869675819736501_);" d="M3015.354,3238.604
				c-1.004,3.653-3.701,6.498-7.154,7.224c-26.453,5.563-68.497,1.086-86.15-1.222c-3.895-0.509-6.741-4.11-6.805-8.177
				C2958.482,3241.35,2996.758,3240.264,3015.354,3238.604z"/>
			
				<linearGradient id="SVGID_00000070833964112493616720000013483127465451385504_" gradientUnits="userSpaceOnUse" x1="1481.025" y1="2501.9578" x2="1616.7424" y2="2501.9578" gradientTransform="matrix(-1 0 0 1 4634.4971 0)">
				<stop  offset="0" style="stop-color:#F9B776"/>
				<stop  offset="1" style="stop-color:#F47960"/>
			</linearGradient>
			<path style="fill:url(#SVGID_00000070833964112493616720000013483127465451385504_);" d="M3104.623,2432.011
				c13.923,14.861,34.423,27.702,48.849,35.71c-21.543,26.629-50.695,53.296-89.285,79.398l-11.044,24.785l-35.388-42.413
				C3017.754,2529.491,3081.252,2497.892,3104.623,2432.011z"/>
			
				<linearGradient id="SVGID_00000007424436150087070260000012527209447948439212_" gradientUnits="userSpaceOnUse" x1="1645.7876" y1="3084.3357" x2="1626.3483" y2="3253.9888" gradientTransform="matrix(-1 0 0 1 4634.4971 0)">
				<stop  offset="0" style="stop-color:#F9B776"/>
				<stop  offset="1" style="stop-color:#F47960"/>
			</linearGradient>
			<path style="fill:url(#SVGID_00000007424436150087070260000012527209447948439212_);" d="M3015.436,3128.574l-9.548,45.962
				c-0.699,3.368-3.287,5.89-6.422,6.185c-3.837,0.36-9.299,0.571-14.792-0.236c-4.926-0.724-8.355-5.729-7.482-11.1l6.637-40.811
				H3015.436z"/>
			
				<linearGradient id="SVGID_00000027587179782684247590000006148717948119566730_" gradientUnits="userSpaceOnUse" x1="1938.0238" y1="3163.8977" x2="1567.7933" y2="3454.6035" gradientTransform="matrix(-1 0 0 1 4634.4971 0)">
				<stop  offset="0" style="stop-color:#2B3582"/>
				<stop  offset="1" style="stop-color:#150E42"/>
			</linearGradient>
			<path style="fill:url(#SVGID_00000027587179782684247590000006148717948119566730_);" d="M2817.615,3238.142
				c24.896-0.697,37.774-3.629,44.432-6.35c0.015,2.476,0.001,4.995-0.079,7.605c-0.086,2.789-2.151,5.015-4.691,4.999l-136.7-0.883
				c-4.362-0.028-6.912-5.088-5.021-9.088C2733.478,3235.906,2779.128,3239.219,2817.615,3238.142z"/>
			
				<linearGradient id="SVGID_00000143605530073187941400000008978756015881850014_" gradientUnits="userSpaceOnUse" x1="1772.4504" y1="3202.8999" x2="1918.9424" y2="3202.8999" gradientTransform="matrix(-1 0 0 1 4634.4971 0)">
				<stop  offset="0" style="stop-color:#CB236D"/>
				<stop  offset="1" style="stop-color:#4C246D"/>
			</linearGradient>
			<path style="fill:url(#SVGID_00000143605530073187941400000008978756015881850014_);" d="M2715.554,3234.425
				c0.165-0.348,0.306-0.703,0.542-1.031c12.072-16.868,42.82-50.458,103.579-65.028l29.148-0.92c0,0,12.978,22.558,13.224,64.345
				c-6.657,2.721-19.535,5.653-44.432,6.35C2779.128,3239.219,2733.478,3235.906,2715.554,3234.425z"/>
			
				<linearGradient id="SVGID_00000158748463641368034900000002418291619449890209_" gradientUnits="userSpaceOnUse" x1="1804.134" y1="3102.4797" x2="1784.6947" y2="3272.1331" gradientTransform="matrix(-1 0 0 1 4634.4971 0)">
				<stop  offset="0" style="stop-color:#F9B776"/>
				<stop  offset="1" style="stop-color:#F47960"/>
			</linearGradient>
			<path style="fill:url(#SVGID_00000158748463641368034900000002418291619449890209_);" d="M2854.227,3123.273
				c-0.324,2.172-4.319,35.194-5.865,47.997c-0.367,3.043-2.571,5.397-5.35,5.729c-4.962,0.593-12.995,1.132-20.021-0.309
				c-3.791-0.776-6.534-4.418-6.534-8.652v-51.834L2854.227,3123.273z"/>
			
				<linearGradient id="SVGID_00000133501357240788559560000008121719618566803859_" gradientUnits="userSpaceOnUse" x1="2954.7874" y1="3156.207" x2="2916.927" y2="2557.7705">
				<stop  offset="0" style="stop-color:#2B3582"/>
				<stop  offset="1" style="stop-color:#150E42"/>
			</linearGradient>
			<path style="fill:url(#SVGID_00000133501357240788559560000008121719618566803859_);" d="M2877.612,2520.655
				c0,0-70.302,267.172-69.031,603.382c0.023,6.13,4.327,11.42,10.325,12.683c8.839,1.862,21.833,4.073,32.589,3.771
				c5.742-0.161,10.542-4.419,11.508-10.082c9.857-57.807,66.427-383.465,98.658-436.335c0,0,21.205,290.046,14.427,440.524
				c-0.169,3.741,2.571,6.987,6.291,7.417c5.644,0.652,14.673,1.147,26.164-0.073c4.362-0.463,7.881-3.76,8.504-8.103
				c7.021-48.924,47.435-340.137,45.717-549.917c-0.097-11.83-31.285-63.267-31.285-63.267H2877.612z"/>
			
				<linearGradient id="SVGID_00000152984769531308187930000008862468180228508327_" gradientUnits="userSpaceOnUse" x1="2835.1023" y1="2069.0066" x2="3311.4102" y2="2853.0828">
				<stop  offset="0" style="stop-color:#53D8FF"/>
				<stop  offset="1" style="stop-color:#3840F7"/>
			</linearGradient>
			<path style="fill:url(#SVGID_00000152984769531308187930000008862468180228508327_);" d="M2769.8,2160.811
				c12.312-31.465,33.077-53.008,53.962-77.9c78.263,14.191,206.542,26.853,260.037,33.593c16.7,2.104,31.976,10.337,42.982,23.074
				c43.647,50.51,139.423,188.797,26.691,328.144c-14.426-8.008-34.926-20.85-48.848-35.71
				c12.472-35.158,13.493-80.087-12.645-135.181c-0.893,4.366-1.997,8.689-3.339,12.944
				c-36.026,114.13-37.947,209.106-37.867,230.995c0.011,2.973-1.773,5.649-4.533,6.754c-47.414,19-138.683,7.691-169.32,3.126
				c-5.618-0.837-9.398-6.067-8.62-11.694c15.037-108.936-62.133-288.142-82.515-333.027c-2.982-6.565-8.236-11.84-14.807-14.812
				c-3.297-1.493-6.526-3.014-9.72-4.55C2763.688,2177.879,2766.486,2169.28,2769.8,2160.811z"/>
			
				<linearGradient id="SVGID_00000080922256346418952930000008656696429080770460_" gradientUnits="userSpaceOnUse" x1="1689.0485" y1="1985.1088" x2="1609.3027" y2="2329.7241" gradientTransform="matrix(-1 0 0 1 4634.4971 0)">
				<stop  offset="0" style="stop-color:#F9B776"/>
				<stop  offset="1" style="stop-color:#F47960"/>
			</linearGradient>
			<path style="fill:url(#SVGID_00000080922256346418952930000008656696429080770460_);" d="M3001.849,2011.699l5.582,97.392
				c0.164,2.871-1.708,5.463-4.497,6.166c-12.36,3.118-46.522,9.322-76.254-7.597c-3.852-2.192-5.636-6.812-4.425-11.076
				l24.864-87.509L3001.849,2011.699z"/>
			<g>
				
					<linearGradient id="SVGID_00000183941651152017530010000006773484468233018258_" gradientUnits="userSpaceOnUse" x1="-218.083" y1="652.2556" x2="-349.7637" y2="826.4584" gradientTransform="matrix(-0.6854 -0.7281 -0.7281 0.6854 3283.4978 1318.7853)">
					<stop  offset="0" style="stop-color:#F9B776"/>
					<stop  offset="1" style="stop-color:#F47960"/>
				</linearGradient>
				<path style="fill:url(#SVGID_00000183941651152017530010000006773484468233018258_);" d="M2940.908,1905.291
					c-1.264,1.19-53.347,103.47-53.347,103.47l59.032,28.498l63.767-89.606C3010.359,1947.652,2962.069,1885.37,2940.908,1905.291z"
					/>
				
					<linearGradient id="SVGID_00000037678790657543821060000004166817258159725236_" gradientUnits="userSpaceOnUse" x1="-318.6497" y1="694.0906" x2="-161.3551" y2="694.0906" gradientTransform="matrix(-0.6854 -0.7281 -0.7281 0.6854 3283.4978 1318.7853)">
					<stop  offset="0" style="stop-color:#2B3582"/>
					<stop  offset="1" style="stop-color:#150E42"/>
				</linearGradient>
				<path style="fill:url(#SVGID_00000037678790657543821060000004166817258159725236_);" d="M2984.24,1950.133
					c1.053,2.724,0.795,5.765-0.708,8.27l-29.443,49.079c-0.447,0.745-0.978,1.418-1.614,2.01
					c-3.504,3.262-15.496,12.751-24.767-0.168c-7.901-11.011-15.314-21.021-23.258-25.149c-4.639-2.411-10.347-0.485-12.703,4.182
					c-4.851,9.614-14.247,29.213-20.149,47.797c-1.48,4.658,0.925,9.659,5.454,11.494c11.954,4.842,35.578,13.601,56.542,16.494
					c3.444,0.476,6.853-0.977,8.903-3.785c9.019-12.356,34.44-46.886,43.116-55.529c8.061-8.03,22.937-5.002,29.641-3.076
					c2.544,0.731,5.254,0.379,7.522-0.987c6.801-4.096,18.67-14.298,7.812-31.57c-2.7-4.294-1.323-10.015,2.914-12.802
					c7.593-4.995,15.833-14.371,7.983-29.554c-7.947-15.371-22.139-16.751-31.804-15.569c-4.277,0.523-8.618-1.72-10.26-5.704
					c-0.73-1.772-2.172-3.282-4.859-3.827c-5.065-1.028-8.391-5.661-7.396-10.733c1.705-8.698,0.421-19.997-13.467-27.633
					c-25.471-14.004-47.782,8.815-53.455,28.077c-5.673,19.263,22.805,32.876,40.719,35.147
					C2974.122,1928.265,2981.337,1942.626,2984.24,1950.133z"/>
				
					<linearGradient id="SVGID_00000139977964477619657550000016328470734034414980_" gradientUnits="userSpaceOnUse" x1="-410.9437" y1="790.2115" x2="-305.3247" y2="681.8492" gradientTransform="matrix(-0.6854 -0.7281 -0.7281 0.6854 3283.4978 1318.7853)">
					<stop  offset="0" style="stop-color:#F9B776"/>
					<stop  offset="1" style="stop-color:#F47960"/>
				</linearGradient>
				<path style="fill:url(#SVGID_00000139977964477619657550000016328470734034414980_);" d="M2974.554,2022.851
					c0,0,11.326-33.14,25.824-31.923c14.498,1.216,25.908,15.66,7.941,31.895C2985.97,2043.019,2974.554,2022.851,2974.554,2022.851
					z"/>
			</g>
			
				<linearGradient id="SVGID_00000126281465874614224690000013019277027285797286_" gradientUnits="userSpaceOnUse" x1="3713.4827" y1="1693.4136" x2="2872.6587" y2="2429.8208">
				<stop  offset="0" style="stop-color:#53D8FF"/>
				<stop  offset="1" style="stop-color:#3840F7"/>
			</linearGradient>
			<path style="fill:url(#SVGID_00000126281465874614224690000013019277027285797286_);" d="M3096.76,2288.294
				c19.109-52.298,12.177-115.448,12.104-116.08l-5.266,0.602c0.07,0.62,6.855,62.56-11.82,113.659L3096.76,2288.294z"/>
			
				<linearGradient id="SVGID_00000096750482790023744840000010667047793792918971_" gradientUnits="userSpaceOnUse" x1="2982.74" y1="2638.7688" x2="3104.8699" y2="3005.1592">
				<stop  offset="0" style="stop-color:#2B3582"/>
				<stop  offset="1" style="stop-color:#150E42"/>
			</linearGradient>
			<path style="fill:url(#SVGID_00000096750482790023744840000010667047793792918971_);" d="M2964.246,2687.263
				c1.177,0,2.254-0.791,2.562-1.986c5.83-22.485,49.485-47.195,49.926-47.442c1.276-0.716,1.732-2.332,1.015-3.609
				c-0.717-1.276-2.325-1.733-3.608-1.015c-1.877,1.052-46.068,26.068-52.463,50.735c-0.367,1.417,0.484,2.865,1.9,3.231
				C2963.8,2687.236,2964.025,2687.263,2964.246,2687.263z"/>
			<g>
				
					<linearGradient id="SVGID_00000051343100708121537780000011348367525537340833_" gradientUnits="userSpaceOnUse" x1="2700.8674" y1="2150.5513" x2="3177.1736" y2="2934.6248">
					<stop  offset="0" style="stop-color:#53D8FF"/>
					<stop  offset="1" style="stop-color:#3840F7"/>
				</linearGradient>
				<path style="fill:url(#SVGID_00000051343100708121537780000011348367525537340833_);" d="M2590.77,2113.129
					c74.416,27.197,232.992-30.218,232.992-30.218l10.911,129.562c-126.986,40.149-209.619,28.459-263.354-5.235
					C2567.977,2168.941,2579.488,2135.609,2590.77,2113.129z"/>
				
					<linearGradient id="SVGID_00000035508806607768027540000017780404493752128956_" gradientUnits="userSpaceOnUse" x1="2168.9651" y1="1862.0735" x2="2088.6572" y2="2124.5227" gradientTransform="matrix(-1 0 0 1 4634.4971 0)">
					<stop  offset="0" style="stop-color:#F9B776"/>
					<stop  offset="1" style="stop-color:#F47960"/>
				</linearGradient>
				<path style="fill:url(#SVGID_00000035508806607768027540000017780404493752128956_);" d="M2472.29,1979.414l31.142-6.168
					c0,0,8.493,99.09,77.856,135.72c2.972,1.57,6.149,2.945,9.481,4.163c-11.282,22.48-22.793,55.812-19.451,94.108
					C2462.125,2138.767,2472.29,1979.414,2472.29,1979.414z"/>
			</g>
			
				<linearGradient id="SVGID_00000050653822189779235490000008717220936378622101_" gradientUnits="userSpaceOnUse" x1="2200.2339" y1="1871.6417" x2="2119.9258" y2="2134.0918" gradientTransform="matrix(-1 0 0 1 4634.4971 0)">
				<stop  offset="0" style="stop-color:#F9B776"/>
				<stop  offset="1" style="stop-color:#F47960"/>
			</linearGradient>
			<path style="fill:url(#SVGID_00000050653822189779235490000008717220936378622101_);" d="M2501.852,1981.883l1.58-8.637
				c0,0,6.496-21.097-10.688-41.866c-24.837-30.02-43.016-18.982-43.016-18.982s1.29,6.422,1.202,12.115
				c-0.071,4.595-5.578,6.92-8.961,3.811l-40.537-37.249c0,0-11.349,59.158,75.582,99.821L2501.852,1981.883z"/>
		</g>
	</g>
</g>
</svg>
