<?xml version="1.0" encoding="utf-8"?>
<!-- Generator: Adobe Illustrator 19.0.0, SVG Export Plug-In . SVG Version: 6.00 Build 0)  -->
<svg version="1.1" id="Layer_1" xmlns="http://www.w3.org/2000/svg" xmlns:xlink="http://www.w3.org/1999/xlink" x="0px" y="0px"
	 viewBox="0 0 500 500" style="enable-background:new 0 0 500 500;" xml:space="preserve">
<style type="text/css">
	.st0{fill:#D94F00;}
	.st1{fill:#FFFFFF;}
	.st2{fill:#454F52;}
</style>
<g id="XMLID_68_">
	<rect id="XMLID_70_" x="159.8" y="64" class="st0" width="272.7" height="275.7"/>
	<rect id="XMLID_71_" x="314.9" y="117.6" class="st1" width="69.9" height="70"/>
	<polygon id="XMLID_72_" class="st1" points="230.4,222.9 230.4,229.7 242.5,229.7 242.5,266 250.8,266 250.8,229.5 262,229.5 
		262,222.6 	"/>
	<path id="XMLID_73_" class="st1" d="M224.2,231.4v-6.8c-6.7-3-14.3-3.9-22.2,0c-12.9,5.8-13.3,34.2-0.5,39.8
		c7.4,3.8,22.8,2,24.3-1.3v-22.6h-15.2v6h6.7v11.9C195.3,269.1,191.1,217.3,224.2,231.4"/>
	<path id="XMLID_77_" class="st1" d="M275.5,246.1h7.9c6.6,0.3,8.3,12.6-0.3,12.6h-7.7V246.1z M275.5,228.7h7.9
		c6.6,1.2,4.2,11-0.3,11.2h-7.7V228.7z M267.3,222v43.6h21.8c11.2-4,11.6-21.2,0-23.1c10.7-1.2,11.2-20.8-7.2-20.8L267.3,222z"/>
	<path id="XMLID_80_" class="st1" d="M305.8,234.3v6.5c5.8-1.7,18.5-6.2,17.3,3.5c-11.1-0.8-18.7,1.2-20,8.2
		c-2.1,15,13.9,16.4,20.7,9.1v3.5h7.7v-26.3C329.6,230.3,317,229.2,305.8,234.3z M312.3,251.1c1.7-2.2,7.3-2.1,11-1.1v5.7
		C317.2,262.3,307.4,259.3,312.3,251.1"/>
	<path id="XMLID_81_" class="st1" d="M347.5,241.9c2-2.2,12.7-6.3,14.3,0v23.2h8.6v-24.6c-1.9-10.3-11.6-12.1-23.5-5.1v-3.9h-8.1
		v33.7h8.6L347.5,241.9z"/>
	<polygon id="XMLID_82_" class="st1" points="397.2,231.3 386,246.4 397.9,264.9 408.3,264.7 395.2,246.9 407,231.6 	"/>
	<rect id="XMLID_83_" x="376.7" y="220.3" class="st1" width="8.5" height="44.6"/>
	<path id="XMLID_111_" class="st2" d="M84,395.7V382h-7.7l0.2,3.2H80v8.2c0,0-2.1,0.5-3.7,0.5c-2.3,0-4.8-1.3-4.8-9.3
		c0-7.8,3.3-9.2,6.2-9.2c2.7,0,5.5,1.2,5.5,1.2v-3.3c0,0-2.3-1.3-5.5-1.3c-4.4,0-10.1,1.8-10.1,12.7c0,11,4.3,12.4,8.6,12.4
		C79.5,397.1,83.2,396,84,395.7z M104.3,396.7v-18.4h-4v13.8c0,0-2.2,1.6-4.2,1.6c-1.6,0-2.3-0.7-2.3-2.6v-12.8h-4v13.4
		c0,4.1,2.2,5.4,5.1,5.4c3.1,0,5.5-2.5,5.5-2.5l0.5,2.2H104.3z M123.4,396.7v-12.8c0-5.1-2.9-6-6.4-6c-3.2,0-6.1,1-6.1,1v3.2
		c0.3-0.1,3.3-1,5.4-1c1.9,0,3.1,0.2,3.1,2.4v1.7h-3.1c-2.9,0-7,0.9-7,5.9c0,5,3.1,5.8,5.3,5.8c3.2,0,4.9-2.3,4.9-2.3l0.5,1.9H123.4
		z M119.4,392.6c0,0-1.6,1.4-3.5,1.4c-1.4,0-2.6-0.5-2.6-3c0-2.7,1.5-3.3,4.3-3.4l1.8,0V392.6L119.4,392.6z M138.5,382.2v-4
		c0,0-0.9-0.2-1.8-0.2c-2.6,0-3.7,2.5-3.7,2.5l-0.5-2.2h-3.1v18.4h4v-13.8c0,0,1-1.1,2.6-1.1C137.1,381.8,138.5,382.2,138.5,382.2z
		 M153.8,396.7v-12.8c0-5.1-2.9-6-6.4-6c-3.2,0-6.1,1-6.1,1v3.2c0.3-0.1,3.3-1,5.4-1c1.9,0,3.1,0.2,3.1,2.4v1.7h-3.1
		c-2.9,0-7,0.9-7,5.9c0,5,3.1,5.8,5.3,5.8c3.2,0,4.9-2.3,4.9-2.3l0.5,1.9H153.8z M149.8,392.6c0,0-1.6,1.4-3.5,1.4
		c-1.4,0-2.6-0.5-2.6-3c0-2.7,1.5-3.3,4.3-3.4l1.8,0V392.6L149.8,392.6z M174.9,396.7v-13.3c0-4.2-2.1-5.5-5.2-5.5
		c-3.3,0-6.1,2.5-6.1,2.5l-0.7-2.1h-3.2v18.4h4V383c0,0,2.3-1.6,4.6-1.6c1.5,0,2.5,0.2,2.5,2.2v13.2H174.9z M189.9,396.4v-3.2
		c0,0-2.2,0.6-3.2,0.6c-0.9,0-1.5-0.2-1.5-1.5v-11.2h3.8l0.4-2.8h-4.2v-5.6l-3.7,1.4l-0.2,4.1h-3.1v2.8h3.1v11.2c0,4,2,4.8,4.6,4.8
		C187.9,397.1,189.9,396.4,189.9,396.4z M206.5,378.3h-4.3l-3.3,13.9l-4.1-13.9h-4.6l7,18.1l-0.2,1c-0.5,2.2-1.3,3.1-2.6,3.1
		c-1,0-3.3-0.5-3.3-0.5v3.1c0,0,1.9,0.6,3.6,0.6c2.2,0,4.4-0.7,5.5-4.5L206.5,378.3z M232,372.4h-15.8v3.5h5.9v20.8h4v-20.8h5.5
		L232,372.4z M242,382.2v-4c0,0-0.9-0.2-1.8-0.2c-2.6,0-3.7,2.5-3.7,2.5l-0.5-2.2h-3.1v18.4h4v-13.8c0,0,1-1.1,2.6-1.1
		C240.7,381.8,242,382.2,242,382.2z M259.8,396.7v-18.4h-4v13.8c0,0-2.2,1.6-4.2,1.6c-1.6,0-2.3-0.7-2.3-2.6v-12.8h-4v13.4
		c0,4.1,2.2,5.4,5.1,5.4c3.1,0,5.5-2.5,5.5-2.5l0.5,2.2H259.8z M276.1,391.4c0-3.2-1.8-4.5-3.8-5.3l-1.8-0.7
		c-1.2-0.5-2.4-0.8-2.4-2.4c0-1.5,1.1-2,3-2c1.7,0,4.3,0.8,4.3,0.8v-3.2c0,0-2-0.8-4.5-0.8c-3.5,0-6.5,1.5-6.5,5.4
		c0,3.3,2.3,4.5,3.9,5.1l1.6,0.7c1.4,0.6,2.4,0.9,2.4,2.5c0,1.9-1.5,2.2-3.2,2.2c-1.5,0-4.5-0.9-4.5-0.9v3.3c0,0,2.5,0.8,4.6,0.8
		C272.5,397.1,276.1,396.3,276.1,391.4z M289.8,396.4v-3.2c0,0-2.2,0.6-3.2,0.6c-0.9,0-1.5-0.2-1.5-1.5v-11.2h3.8l0.4-2.8h-4.2v-5.6
		l-3.7,1.4l-0.2,4.1H278v2.8h3.1v11.2c0,4,2,4.8,4.6,4.8C287.8,397.1,289.8,396.4,289.8,396.4z M318.4,389.8c0-4.2-2.6-5.3-5-5.7
		c2.1-0.5,4.3-1.9,4.3-5.4c0-5.4-3.4-6.3-9.2-6.3h-5.2v24.3h5C314.6,396.7,318.4,396.1,318.4,389.8z M313.8,378.9
		c0,3.3-1.6,3.9-5.1,3.9h-1.4v-7.3h1.3C312,375.4,313.8,375.8,313.8,378.9z M314.5,389.7c0,3.6-2,4-5.7,4h-1.5v-8h1.4
		C312.4,385.7,314.5,386.3,314.5,389.7z M336,396.7v-12.8c0-5.1-2.9-6-6.4-6c-3.2,0-6.1,1-6.1,1v3.2c0.3-0.1,3.3-1,5.4-1
		c1.9,0,3.1,0.2,3.1,2.4v1.7h-3.1c-2.9,0-7,0.9-7,5.9c0,5,3.1,5.8,5.3,5.8c3.2,0,4.9-2.3,4.9-2.3l0.5,1.9H336z M332,392.6
		c0,0-1.6,1.4-3.5,1.4c-1.4,0-2.6-0.5-2.6-3c0-2.7,1.5-3.3,4.3-3.4l1.8,0L332,392.6L332,392.6z M357.1,396.7v-13.3
		c0-4.2-2.1-5.5-5.2-5.5c-3.3,0-6.1,2.5-6.1,2.5l-0.7-2.1H342v18.4h4V383c0,0,2.3-1.6,4.6-1.6c1.5,0,2.5,0.2,2.5,2.2v13.2H357.1z
		 M378,396.7l-6.2-10.7l5.5-7.8h-4.7l-4.8,7.9l5.7,10.9L378,396.7L378,396.7z M367.2,396.7v-25h-4v25H367.2z M406.4,387.4
		c0-8.6-4-9.5-6.9-9.5c-2.5,0-4.1,1.6-4.6,2.2l-0.6-1.8h-3.1v25h4v-7.1c0.3,0.2,1.8,0.8,3.4,0.8
		C401.2,397.1,406.4,396.3,406.4,387.4z M402.5,387.4c0,5.9-2.1,6.7-4,6.7c-1.4,0-2.9-0.5-3.2-0.6v-11.1c0.3-0.3,2-1.4,3.6-1.4
		C401,381,402.5,381.6,402.5,387.4z M415.5,396.7v-25h-4v25H415.5z M432.5,396.4V393c0,0-2.3,0.8-3.9,0.8c-2.1,0-4.1-0.7-4.1-6.2
		c0-5.9,2.3-6.5,4.4-6.5c1.5,0,3.6,0.7,3.6,0.7v-3.2c0,0-1.6-0.7-3.7-0.7c-3,0-8.3,0.9-8.3,9.7c0,8.7,4.7,9.5,7.9,9.5
		C430.5,397.1,432.5,396.4,432.5,396.4"/>
	<path id="XMLID_121_" class="st2" d="M349.8,432.5l-1.8-5.1c-0.4-1.2-1-2.3-1.8-2.8c2-0.7,3.4-2,3.4-4.7c0-4.3-2.8-5-6.4-5h-4.2
		v17.6h2.9v-7.2l1.8-0.2c0.7,0.6,1.3,1.8,1.8,3.3l1.2,4H349.8z M346.6,420c0,2.6-1.6,3.1-4.9,3.3v-5.9h1.1
		C345.4,417.3,346.6,417.6,346.6,420z M361.2,432.2v-2.4c0,0-1.8,0.6-3.2,0.6c-1.9,0-3.2-1.4-3.2-6.6c0-5.7,1.7-6.7,3.5-6.7
		c1.3,0,2.9,0.6,2.9,0.6v-2.4c0,0-1.3-0.6-3.1-0.6c-2.3,0-6.2,0.9-6.2,9.1c0,8.2,3.3,9.1,6,9.1C359.8,432.8,361.2,432.2,361.2,432.2
		z M375.6,432.5v-14.1h-2.2l-3.9,1.8v2.5l3.3-1.4v11.2H375.6z M389.4,429.4c0-3.9-2.7-4.9-4.5-4.9c-1.5,0-2.5,0.6-2.5,0.6l0.2-4.1
		h6.1l0.3-2.5h-9l-0.3,8.8l1.5,0.5c0,0,1.3-1,2.9-1c1.5,0,2.5,0.5,2.5,2.6c0,1.8-0.8,2.7-2,3.3c-1.3,0.7-3.1,0.8-4.7,0.9v2.3
		c2.2,0,4.4-0.4,6.2-1.3C388,433.7,389.4,432,389.4,429.4z M401,422.6c0-3.2-2.2-4.4-5.1-4.4c-2.1,0-4,0.8-4,0.8v2.3
		c0,0,2-0.7,3.7-0.7c1.6,0,2.5,0.6,2.5,2.2c0,2.1-1.7,3.2-3.6,4.8l-2.7,2.4v2.6h8.7l0.3-2.5h-5.9l1.6-1.2
		C398.7,427.3,401,425.6,401,422.6z M412.9,430c0-2.5-1.7-3.4-3.5-3.8c1.5-0.5,3.1-1.4,3.1-3.8c0-3.4-2.7-4.2-5.3-4.2
		c-1.9,0-4,0.7-4,0.7v2.2c0,0,2.1-0.6,3.9-0.6c1.5,0,2.5,0.6,2.5,2.1c0,2-1.4,2.6-2.9,2.6H405v2.2h1.8c1.8,0,3.3,0.5,3.3,2.5
		c0,1.8-0.9,2.6-2,3.1c-1.4,0.6-3.3,0.7-4.8,0.7v2.3c2.1-0.1,4.5-0.3,6.4-1.1C411.6,434,412.9,432.5,412.9,430z M424.6,422.6
		c0-3.2-2.2-4.4-5.1-4.4c-2.1,0-4,0.8-4,0.8v2.3c0,0,2-0.7,3.7-0.7c1.6,0,2.5,0.6,2.5,2.2c0,2.1-1.7,3.2-3.6,4.8l-2.7,2.4v2.6h8.7
		l0.3-2.5h-5.9l1.6-1.2C422.3,427.3,424.6,425.6,424.6,422.6z M432.5,432.5v-14.1h-2.2l-3.9,1.8v2.5l3.3-1.4v11.2H432.5z"/>
	<rect id="XMLID_122_" x="314.9" y="117.6" class="st1" width="69.9" height="70"/>
</g>
</svg>
