<svg xmlns="http://www.w3.org/2000/svg" width="125" height="32" viewBox="0 0 125 32" fill="none"><path d="M0 31.0432H31.6987V0H0V31.0432ZM27.2448 26.5893H22.0312V15.1492L10.591 26.5893H4.4688V21.7183L16.5345 9.6526H4.4688V4.4539H27.2448V26.5893Z" fill="#1AE5FF"></path><path d="M43.0422 8.35657H44.7404V21.7481H53.1566V23.3121H43.0422V8.35657Z" fill="black"></path><path d="M55.0931 17.8304V17.7857C55.0931 14.598 57.3275 12.0359 60.3961 12.0359C63.6583 12.0359 65.5501 14.6427 65.5501 17.8602C65.5501 18.039 65.5501 18.2177 65.5352 18.3965H56.7764C57.0147 20.7947 58.698 22.1354 60.6642 22.1354C61.99 22.1503 63.271 21.5842 64.1499 20.5713L65.1777 21.4948C64.0605 22.8504 62.3773 23.6101 60.6344 23.5654C57.5659 23.5654 55.0931 21.2416 55.0931 17.8304ZM63.8669 17.1899C63.703 15.1789 62.5411 13.4361 60.3365 13.4361C58.4149 13.4361 56.9551 15.0449 56.7466 17.1899H63.8669Z" fill="black"></path><path d="M66.7865 12.2743H68.6038L72.3278 21.4353L76.0667 12.2743H77.8393L73.0279 23.4016H71.583L66.7865 12.2743Z" fill="black"></path><path d="M80.4609 8.04382H82.3378V9.86113H80.4609V8.04382ZM80.5652 12.2743H82.2038V23.3122H80.5652V12.2743Z" fill="black"></path><path d="M86.613 20.3925V13.734H85.0787V12.2742H86.613V8.9375H88.2516V12.2742H91.7521V13.734H88.2516V20.1691C88.2516 21.5097 88.9964 22.0013 90.1136 22.0013C90.6647 22.0013 91.2159 21.8672 91.7224 21.614V23.0291C91.1116 23.3419 90.4264 23.5058 89.7412 23.4909C87.9537 23.5058 86.613 22.6269 86.613 20.3925Z" fill="black"></path><path d="M93.8228 20.1096V20.0649C93.8228 17.7411 95.7443 16.5047 98.5448 16.5047C99.6918 16.4898 100.839 16.6537 101.941 16.9665V16.5941C101.941 14.6129 100.72 13.5851 98.6491 13.5851C97.4872 13.6 96.3402 13.8681 95.2975 14.3895L94.8059 13.0489C96.0572 12.4381 97.4276 12.1253 98.8278 12.1253C100.139 12.0359 101.42 12.4679 102.388 13.3468C103.192 14.2256 103.595 15.3875 103.52 16.5792V23.3271H101.941V21.6587C101.003 22.8951 99.513 23.6101 97.9489 23.5654C95.8933 23.5505 93.8228 22.3737 93.8228 20.1096ZM101.956 19.2605V18.188C100.898 17.8752 99.8109 17.7262 98.7086 17.7262C96.6381 17.7262 95.4762 18.62 95.4762 20.0053V20.05C95.4762 21.4353 96.7573 22.2546 98.2469 22.2546C100.303 22.2397 101.956 21.0033 101.956 19.2605Z" fill="black"></path><path d="M107.497 20.3925V13.734H105.963V12.2742H107.497V8.9375H109.136V12.2742H112.636V13.734H109.136V20.1691C109.136 21.5097 109.881 22.0013 110.998 22.0013C111.549 22.0013 112.1 21.8672 112.607 21.614V23.0291C111.996 23.3419 111.311 23.5058 110.625 23.4909C108.838 23.5058 107.497 22.6269 107.497 20.3925Z" fill="black"></path><path d="M114.543 17.8304V17.7857C114.543 14.598 116.777 12.0359 119.846 12.0359C123.108 12.0359 125 14.6427 125 17.8602C125 18.039 125 18.2177 124.985 18.3965H116.226C116.465 20.7947 118.148 22.1354 120.114 22.1354C121.44 22.1503 122.721 21.5842 123.6 20.5713L124.628 21.4948C123.51 22.8504 121.827 23.6101 120.084 23.5654C117.016 23.5654 114.543 21.2416 114.543 17.8304ZM123.317 17.1899C123.153 15.1789 121.991 13.4361 119.786 13.4361C117.865 13.4361 116.405 15.0449 116.196 17.1899H123.317Z" fill="black"></path></svg>