<svg xmlns="http://www.w3.org/2000/svg" xmlns:xlink="http://www.w3.org/1999/xlink" id="Layer_1" x="0px" y="0px" viewBox="0 0 76.6 37.8" style="enable-background:new 0 0 76.6 37.8;" xml:space="preserve"><style type="text/css">	.st0{fill-rule:evenodd;clip-rule:evenodd;fill:#45B175;}	.st1{fill:none;stroke:#45B175;stroke-width:0.5;stroke-miterlimit:10;}</style><g>	<path class="st0" d="M21.3,27.2v-3.7h1.2c1,0,1.8,0.8,1.9,1.8c0,1-0.8,1.9-1.9,1.9H21.3z M15.6,24.5h-1.7v2.2h1.5   c-0.4,0.5-0.9,0.8-1.6,0.8c-1.1,0-2-0.9-2-2c0-1.1,0.9-2,2-2c0.6,0,1.2,0.3,1.6,0.7l1.5-1.5c-0.8-0.9-1.9-1.4-3.1-1.4   c-2.3,0-4.2,1.9-4.2,4.2c0,2.3,1.9,4.2,4.2,4.2c1.8,0,3.4-1.1,3.9-2.8c0.2-0.4,0.2-0.9,0.2-1.4c0-0.3,0-0.6-0.1-0.9H15.6z    M3.4,21.4H1.2v8h2.2v-4.2l2.7,4.2h2.2v-8H6.2v4.2L3.4,21.4z M19.1,21.4v8h3.4h0c2.2,0,4-1.8,4-4c0-2.2-1.8-4-4-4h0H19.1z"></path>	<path class="st0" d="M7.8,12l0.2,0.2l1.3-0.9c0.2-0.2,0.4-0.4,0.5-0.7l1.5-6.1c0,0,0-0.1,0-0.1c0,0-0.1,0-0.1,0l-0.7,0.3l-2.7,7   C7.7,11.8,7.7,11.9,7.8,12"></path>	<path class="st0" d="M17.2,10.2l-1.5-6.3l-1.3-0.6c-0.3-0.2-0.7-0.2-1,0l-1.3,0.6l-1.5,6.3c0,0.2,0,0.4,0.1,0.5   c0.1,0.1,0.3,0.2,0.5,0.2h5.5c0.2,0,0.4-0.1,0.5-0.2C17.2,10.5,17.2,10.4,17.2,10.2"></path>	<path class="st0" d="M17.2,4.7l-0.7-0.3c0,0-0.1,0-0.1,0c0,0,0,0.1,0,0.1l1.5,6.1c0.1,0.3,0.2,0.5,0.5,0.7l1.3,0.9l0.2-0.2   c0.1-0.1,0.1-0.2,0.1-0.3L17.2,4.7z"></path>	<path class="st0" d="M17.7,11.5h-7.6l-1.5,1c0,0,0,0,0,0.1c0,0,0,0.1,0,0.1l4.6,4.6c0,0,0,0.1,0,0.1c0,0,0,0.1-0.1,0.1   c-0.7,0-1.4,0.1-2,0.2c-0.9,0.2-1.8,0.4-2.7,0.7c-0.2,0.1-0.3,0.3-0.2,0.5c0.1,0.2,0.3,0.3,0.5,0.2c0.8-0.3,1.7-0.5,2.6-0.7   c0.9-0.2,1.8-0.2,2.7-0.2c0.9,0,1.8,0.1,2.7,0.2c0.9,0.2,1.7,0.4,2.6,0.7c0.2,0.1,0.5,0,0.5-0.2c0.1-0.2,0-0.5-0.3-0.5   c-0.9-0.3-1.8-0.6-2.7-0.7c-0.7-0.1-1.3-0.2-2-0.2c0,0-0.1,0-0.1-0.1c0,0,0-0.1,0-0.1l4.6-4.6c0,0,0,0,0-0.1c0,0,0-0.1,0-0.1   L17.7,11.5z"></path>	<path class="st0" d="M66.5,3.9L67.3,7c-1.3,0.3-2.2,1.5-2.2,2.9c0,0.3,0,0.5,0.1,0.8c0.3,1.3,1.5,2.2,2.9,2.2c0.3,0,0.5,0,0.8-0.1   l-0.7-2.5c-0.1-0.2,0.1-0.5,0.3-0.5l4.7-1.3c0.3-0.1,0.5,0,0.7,0.1c0.2,0.2,0.3,0.4,0.4,0.6c0.3,3-1.6,5.8-4.6,6.6   c-3.3,0.9-6.7-1.1-7.6-4.4C61.2,8.2,63.2,4.8,66.5,3.9"></path>	<path class="st0" d="M73.9,28h-4.2l-1.2,2.3c-0.1,0.2-0.2,0.2-0.4,0.2c-0.2,0-0.3-0.1-0.4-0.2L66.6,28h-4.3c-0.2,0-0.4-0.2-0.4-0.4   l0-8.7c0-0.2,0.1-0.4,0.3-0.6c0.2-0.2,0.4-0.3,0.6-0.3h10.7c0.5,0,0.9,0.4,0.9,0.9l0,8.7c0,0.1,0,0.2-0.1,0.3   C74.2,27.9,74,28,73.9,28 M66.1,19.7l2,2l2-2h1.3v1.3l-2,2l2,2v1.3h-1.3l-2-2l-2,2h-1.3v-1.3l2-2l-2-2v-1.3H66.1z"></path>	<path class="st0" d="M54.3,29.6h-5.8c-0.5,0-0.9-0.4-0.9-0.9v-9.9c0-0.5,0.4-0.9,0.9-0.9h5.8c3.2,0,5.8,2.6,5.8,5.8   C60.1,27,57.5,29.6,54.3,29.6"></path>	<path class="st0" d="M51.8,5.3h7.4c0.5,0,0.9,0.4,0.9,0.9v7.4c0,0.4-0.2,0.7-0.5,0.8c-0.3,0.1-0.7,0.1-0.9-0.2l-7.4-7.4   C51,6.6,50.9,6.2,51,5.9C51.2,5.6,51.5,5.3,51.8,5.3"></path>	<path class="st0" d="M55.9,16.1h-7.4c-0.5,0-0.9-0.4-0.9-0.9V7.9c0-0.4,0.2-0.7,0.5-0.8c0.3-0.1,0.7-0.1,0.9,0.2l7.4,7.4   c0.3,0.3,0.3,0.6,0.2,0.9C56.6,15.9,56.3,16.1,55.9,16.1"></path>	<path class="st0" d="M69.6,4.3L69,6.6C69,6.8,69.1,7,69.3,7.1c0.3,0.1,0.5,0.2,0.7,0.4c0.2,0.1,0.4,0.1,0.6,0l1.7-1.7   c0.1-0.1,0.1-0.2,0.1-0.3c0-0.1-0.1-0.2-0.2-0.3c-0.6-0.5-1.3-0.9-2-1.2c-0.1,0-0.2,0-0.3,0C69.7,4.1,69.7,4.2,69.6,4.3"></path>	<line class="st1" x1="37.2" y1="0.3" x2="37.2" y2="37.5"></line></g></svg>