<?xml version="1.0" encoding="utf-8"?>
<!-- Generator: Adobe Illustrator 24.3.0, SVG Export Plug-In . SVG Version: 6.00 Build 0)  -->
<svg version="1.1" id="Layer_1" xmlns="http://www.w3.org/2000/svg" xmlns:xlink="http://www.w3.org/1999/xlink" x="0px" y="0px"
	 viewBox="0 0 229.2 46.6" style="enable-background:new 0 0 229.2 46.6;" xml:space="preserve">
<style type="text/css">
	.st0{fill:#FFFFFF;}
</style>
<g>
	<path class="st0" d="M172.3,19c-4.5-2.8-9.9-2.8-14.3-0.4c-0.4,0.2-1.1,0.6-1.5,0.8c-1.2,0.7-2.5,1.1-3.9,1c-0.7,0-1.5-0.2-2.2-0.4
		c-0.4-0.2-0.9-0.4-1.3-0.6c-0.2-0.1-0.3-0.2-0.4-0.3c-0.7-0.5-1.2-1.1-1.7-1.8c-0.4-0.6-0.7-1.3-0.9-2c-0.2-0.8-0.3-1.7-0.2-2.6
		c0.1-1,0.4-2.1,1-3c0.4-0.7,1-1.3,1.6-1.8c-0.1,0,0,0,0.2-0.2c2.2-1.5,4.7-2.7,7.2-3.6c-0.5,0-1-0.1-1.6-0.1
		c-1.2,0-2.3,0.1-3.4,0.3c-1.8,0.3-3.5,1.1-4.8,2.5c-0.4,0.4-0.7,0.9-1,1.3c-0.5,0.8-0.9,1.7-1.2,2.7c-0.1,0.4-0.2,0.7-0.3,1.1
		c-0.1,0.6-0.1,1.2-0.1,1.8c0,4.5,2.9,8.4,6.8,10c1.9,0.7,4,0.2,5.5-1.2c4.1-3.7,10.3-4.4,15.2-1.3c2.1,1.3,3.6,3.1,4.6,5.1
		c0-0.3,0-0.5,0-0.7C175.8,24.3,175.4,20.9,172.3,19z M174.3,33.4c0.8-2,0.8-4.2-0.2-6.1c-0.9-1.8-2.2-3.4-4-4.4
		c-4.2-2.5-9-2.2-12.1,1.3c-1.4,1.6-1.5,3.5-1.3,4.5c0.1,0.6,0.3,1.3,0.3,2c0,0.4,0.1,0.9,0.1,1.4c0,0.2,0,0.4,0,0.6
		c0,0.7-0.1,1.4-0.3,2c-0.2,0.9-0.4,1.7-0.8,2.5c-0.3,0.7-0.7,1.4-1.1,2.1c-0.5,0.7-1,1.3-1.6,1.9c-0.7,0.7-1.5,1.3-2.4,1.8
		c-1.8,1.1-4,1.7-6.3,1.8c1,0.5,2.9,1.7,6.7,0.1c4.9-2,7.7-6.9,8-11.8c0-0.4,0.1-1.2,0.1-1.7c0-1.4,0.5-2.7,1.2-3.8
		c0.4-0.6,0.9-1.1,1.5-1.6c0.4-0.3,0.8-0.5,1.2-0.8c0.2-0.1,0.3-0.1,0.5-0.2c0.8-0.3,1.6-0.4,2.4-0.5c0.8,0,1.5,0.1,2.2,0.3
		c0.8,0.3,1.6,0.6,2.3,1.2c0.8,0.6,1.5,1.5,2,2.5c0.4,0.7,0.6,1.5,0.6,2.3c0-0.1,0,0,0,0.3c0.1,1.8,0,3.6-0.3,5.3
		C173.5,35.2,173.9,34.3,174.3,33.4z M167.4,42.5c1.8-1.4,3-3.4,3.5-5.6c0-0.2,0.1-0.3,0.1-0.5c0.3-1.6,0.4-3.2,0.4-4.8
		c0-0.4,0-0.8,0-1.3c-0.1-0.5-0.2-0.9-0.4-1.4c-0.4-0.9-1.1-1.6-2-2.2c-0.7-0.4-1.4-0.6-2.2-0.7s-1.6,0-2.4,0.4
		c-0.1,0-0.2,0.1-0.3,0.1c-0.6,0.3-1,0.6-1.5,1c-0.9,0.9-1.5,2.3-1.5,3.6v-0.1c0.1,1.5-0.1,3-0.4,4.4c-1.1,4.6-4.1,8.6-8.7,10.8
		c-0.3,0.1-0.5,0.2-0.8,0.3c0.4,0.1,1,0.1,1.6,0.1c1.1,0.1,2.7-0.3,3-0.6c3.2-2.3,5.4-5.6,6.5-9.3c0.2-0.7,0.4-1.4,0.5-2
		c0.2-1.2,0.3-2.5,0.3-3.7c0,0,0,0.1,0,0.1c-0.1-1.2,0.6-2.3,1.6-2.9c0,0,0.1-0.1,0.1-0.1c0.7-0.4,1.5-0.4,2.3-0.2
		c0.8,0.3,1.5,0.8,1.9,1.6c0.2,0.3,0.3,0.7,0.3,1.1c0,0,0.1,0.6,0.1,1.1c0,1.1-0.1,2.2-0.3,3.4l0,0c0,0,0,0,0,0
		c-0.1,0.8-0.3,1.6-0.5,2.4c-0.5,1.8-1.2,3.6-2.1,5.3C166.9,42.9,167.2,42.7,167.4,42.5z M160.5,46.1c1.7-0.5,3.1-1.6,4-3.1
		c0.9-1.5,1.6-3.1,2.1-4.8c0.2-0.6,0.4-1.3,0.5-2c0.1-0.7,0.3-1.4,0.3-2.1c0-0.3,0.1-0.6,0.1-0.9c0-0.1,0-0.2,0-0.2s0,0,0,0
		c0-0.6,0.1-1.2,0-1.8c0-0.2-0.1-0.4-0.1-0.6c-0.3-0.6-1-0.8-1.6-0.6c-0.4,0.2-0.7,0.6-0.7,1c0,0.9,0,1.9-0.1,2.9
		c-0.1,0.7-0.2,1.3-0.3,2c-0.1,0.6-0.3,1.3-0.5,1.8c-1,3.2-2.9,6.2-5.4,8.6C159.4,46.4,159.9,46.2,160.5,46.1z M134.1,18.8
		c-0.8,2.5-0.5,5.2,0.8,7.4c1.1,1.9,2.5,3.6,4.1,5.1c0.5,0.4,1,0.9,1.6,1.3c0.6,0.4,1.1,0.8,1.8,1.2c0.3,0.2,0.5,0.3,0.8,0.5
		c0.1,0.1,0.2,0.1,0.2,0.1s0,0,0,0c0.5,0.3,1.1,0.6,1.6,0.8c0.2,0.1,0.4,0.1,0.6,0.1c0.6,0,1.2-0.5,1.2-1.2c0-0.4-0.3-0.9-0.6-1.1
		c-0.9-0.4-1.7-0.8-2.5-1.3c-0.6-0.4-1.1-0.7-1.6-1.1c-0.5-0.4-1-0.8-1.5-1.2c-3.1-2.9-5.2-6.7-6-11
		C134.2,18.5,134.1,18.6,134.1,18.8z M137.5,12.5c-1.1,1.5-1.6,3.4-1.3,5.2c0.7,4.1,2.7,7.8,5.6,10.4c0.5,0.5,1.1,0.9,1.6,1.3
		c1,0.7,2.1,1.4,3.2,1.9c0,0,0,0-0.1-0.1c1.1,0.4,1.8,1.5,1.9,2.7c0,0.1,0,0.1,0,0.1c0,0.8-0.3,1.5-0.8,2.1c-0.6,0.6-1.4,1-2.3,1
		c-0.4,0-0.8-0.1-1.1-0.2c0,0-0.6-0.2-1-0.4c-1-0.5-2-1.1-2.9-1.7c-0.7-0.5-1.3-0.9-2-1.5c-2.1-1.8-3.9-4-5.3-6.4
		c0,0.2,0,0.4,0.1,0.6c0.3,2.7,1.6,5.2,3.6,7c0.6,0.6,1.3,1.1,2,1.6c1.3,0.9,2.7,1.8,4.1,2.4c0.4,0.2,0.8,0.3,1.1,0.5
		c0.4,0.1,1,0.2,1.5,0.2c1,0,2-0.3,2.8-0.8c0.6-0.4,1.2-1,1.6-1.7c0.4-0.7,0.6-1.5,0.7-2.3c0-0.1,0-0.2,0-0.3c0-0.6-0.1-1.2-0.3-1.8
		c-0.5-1.3-1.4-2.3-2.6-2.8l0.1,0c-1.4-0.6-2.6-1.3-3.8-2.3c-3.7-2.9-6-7.5-6-12.5c0-1.1,0.1-2.1,0.3-3.2
		C137.9,11.9,137.7,12.2,137.5,12.5z M139.8,14.8c0,5.3,2.9,9.9,7.2,12.3c0.4,0.2,1.1,0.6,1.5,0.8c1.2,0.6,2.2,1.6,2.9,2.8
		c0.4,0.6,0.6,1.3,0.8,2c0.1,0.5,0.1,0.9,0.1,1.4c0,0.2,0,0.4,0,0.5c-0.1,0.8-0.3,1.6-0.6,2.3c-0.3,0.7-0.7,1.3-1.2,1.8
		c-0.6,0.6-1.3,1.2-2.1,1.6c-0.9,0.5-2,0.7-3.1,0.7c-0.8,0-1.6-0.1-2.3-0.4c0,0,0,0-0.3-0.1c-2.4-1.1-4.7-2.4-6.7-4.1
		c2.3,4.2,7,6,8.4,6c1,0,2-0.1,2.9-0.4c1.1-0.3,2.2-0.8,3.1-1.4c0.7-0.5,1.4-1.1,2-1.7c0.5-0.6,1-1.2,1.4-1.9c0.4-0.8,0.8-1.5,1-2.4
		c0.2-0.6,0.3-1.3,0.3-2c0-0.3,0-0.6,0-0.8c0-0.4,0-0.8-0.1-1.1c0-0.3-0.1-0.5-0.1-0.8c-0.4-2-2-3.1-3.2-3.6
		c-0.4-0.1-0.8-0.2-1.2-0.4c-0.1,0-0.2-0.1-0.3-0.1h0h0c-0.5-0.2-1-0.4-1.4-0.6c-0.4-0.2-0.8-0.4-1.2-0.7c-0.2-0.1-0.3-0.2-0.5-0.3
		c-0.6-0.4-1.1-0.8-1.6-1.3c-0.6-0.6-1.2-1.3-1.7-2c-0.4-0.6-0.8-1.3-1.1-2.1c-0.3-0.8-0.6-1.6-0.8-2.4c-0.2-1-0.3-2-0.3-3
		c0-1.2,0.2-2.4,0.6-3.5c0.3-1,0.8-2,1.3-2.9C139.6,9.5,139.8,13,139.8,14.8z M170.9,11.9c-0.5-0.6-1.1-1.2-1.6-1.8
		c-0.8-0.8-1.9-1.3-3-1.3c-2.5-0.2-5.1,0-7.5,0.7c-0.6,0.2-1.3,0.4-1.9,0.6c-0.7,0.3-1.3,0.5-2,0.8c-0.3,0.1-0.6,0.3-0.8,0.4
		c-0.1,0.1-0.1,0.1-0.1,0.1s0,0,0,0c-0.5,0.3-1.1,0.6-1.5,0.9c-0.1,0.1-0.3,0.3-0.4,0.4c-0.3,0.6-0.2,1.3,0.4,1.6
		c0.4,0.3,0.9,0.3,1.2,0c0.8-0.5,1.6-1,2.5-1.5c0.6-0.3,1.2-0.6,1.8-0.8c0.6-0.2,1.2-0.4,1.8-0.6C163.3,10.7,167.2,10.8,170.9,11.9z
		 M151.8,18.4c-0.6-0.1-1.1-0.3-1.6-0.7c-0.1-0.1-0.2-0.1-0.3-0.2c-0.7-0.5-1.2-1.1-1.6-1.8c-0.4-0.7-0.6-1.5-0.6-2.2
		c0-1,0.2-1.9,0.8-2.8c0.3-0.4,0.6-0.8,1-1.1c0.3-0.3,0.7-0.5,1-0.7c1.3-0.9,2.8-1.6,4.2-2.2c0.7-0.3,1.5-0.6,2.2-0.8
		c2.4-0.7,5-0.5,7.2,0.6c0.1,0.1,0.3,0.1,0.4,0.2c-2.5,0-5.1,0.4-7.5,1.1c-0.8,0.3-1.5,0.5-2.3,0.9c-1,0.4-2,1-3,1.6
		c-0.4,0.3-0.9,0.6-0.9,0.6c-0.3,0.2-0.5,0.5-0.8,0.8c-0.5,0.8-0.6,1.7-0.4,2.5c0.2,0.7,0.7,1.4,1.3,1.8c0,0,0.1,0.1,0.1,0.1
		c1.1,0.6,2.4,0.5,3.3-0.2c-0.1,0.1-0.1,0.1-0.1,0.1c1-0.7,2.2-1.3,3.3-1.8c0.6-0.3,1.3-0.5,2-0.7c3.4-0.9,7-0.8,10.5,0.2
		c2.3,0.7,3.6,3.2,4.1,4.3c-0.4-0.3-0.8-0.6-1.2-0.8c-4.3-2.7-9.4-3.1-13.8-1.5c-1.4,0.5-2.7,1.1-3.9,2l0.1-0.1
		C154.5,18.5,153.1,18.7,151.8,18.4z"/>
	<path class="st0" d="M5.9,31.8c1.5,0.8,2.8,1.5,4.3,2.2c1.5,0.6,3.1,1.2,4.7,1.7c1.6,0.4,3.3,0.8,5.1,1c1.8,0.3,3.7,0.4,5.7,0.4
		c2.4,0,4.5-0.2,6.2-0.5c1.7-0.3,3.1-0.8,4.2-1.3c1.1-0.6,1.9-1.2,2.3-2c0.5-0.8,0.8-1.6,0.8-2.5c0-1.5-0.6-2.6-1.8-3.5
		c-1.2-0.9-3.1-1.3-5.7-1.3c-1.1,0-2.3,0.1-3.5,0.2c-1.2,0.1-2.5,0.3-3.8,0.5c-1.3,0.2-2.5,0.3-3.7,0.5c-1.2,0.1-2.4,0.2-3.5,0.2
		c-1.8,0-3.5-0.2-5.2-0.7c-1.6-0.5-3.1-1.2-4.4-2.1c-1.3-0.9-2.3-2.1-3-3.5c-0.8-1.4-1.1-3-1.1-4.9c0-1.1,0.1-2.2,0.4-3.3
		c0.3-1.1,0.8-2.1,1.5-3.1c0.7-1,1.5-1.9,2.6-2.8c1.1-0.9,2.3-1.6,3.8-2.2c1.5-0.6,3.2-1.1,5.2-1.5c2-0.4,4.2-0.5,6.7-0.5
		c1.8,0,3.6,0.1,5.4,0.3c1.8,0.2,3.6,0.5,5.3,0.8c1.7,0.4,3.4,0.8,5,1.3C41,5.8,42.5,6.4,43.8,7l-3.6,6.6c-1.1-0.5-2.4-0.9-3.7-1.4
		c-1.3-0.4-2.7-0.8-4.1-1.1c-1.4-0.3-2.9-0.6-4.4-0.7c-1.5-0.2-3.1-0.3-4.7-0.3c-2.3,0-4.1,0.2-5.6,0.5c-1.5,0.3-2.6,0.8-3.5,1.3
		c-0.9,0.5-1.5,1.1-1.8,1.7c-0.3,0.6-0.5,1.2-0.5,1.9c0,1.2,0.5,2.2,1.6,3c1.1,0.8,2.7,1.1,5,1.1c0.9,0,1.9-0.1,3.1-0.2
		c1.2-0.1,2.4-0.3,3.7-0.4c1.3-0.2,2.6-0.3,3.9-0.4s2.7-0.2,3.9-0.2c2.4,0,4.5,0.3,6.3,0.8c1.8,0.5,3.4,1.3,4.6,2.3
		c1.2,1,2.2,2.2,2.8,3.6c0.6,1.4,1,3,1,4.7c0,2.3-0.5,4.4-1.6,6.2c-1.1,1.8-2.6,3.4-4.6,4.6c-2,1.2-4.4,2.2-7.2,2.8
		c-2.8,0.6-6,0.9-9.4,0.9c-2.3,0-4.5-0.1-6.7-0.4c-2.2-0.3-4.3-0.7-6.3-1.2s-3.9-1.2-5.7-1.9c-1.8-0.8-2.6-1.1-4.2-2L5.9,31.8z"/>
	<path class="st0" d="M111.8,26c1.6,0,2.9-0.2,4.1-0.5c1.2-0.4,2.2-0.9,2.9-1.5c0.8-0.6,1.4-1.5,1.8-2.4c0.4-0.9,0.4-2.7-0.1-3.6
		c-0.4-0.8-1-1.5-1.7-2.1c-1.6-1.2-3.9-1.9-7-1.9H99.3v12H111.8z M91.3,7h20.6c3.1,0,5.8,0.3,8.1,1c2.3,0.6,4.2,1.6,5.7,2.8
		c1.5,1.2,2.6,2.3,3.3,4c0.3,0.8,0.6,2.3,0.7,3.7c0.1,1.7,0.1,3.4-0.1,4.2c-0.4,1.3-0.9,2.6-1.7,3.7c-0.8,1.1-1.7,2.2-2.8,3
		c-1.1,0.9-2.5,1.6-4,2.2l8.8,12.9h-10l-7.6-11.5h-0.2l-12.4,0v11.5h-8.2V7z"/>
	<polygon class="st0" points="50.7,7 46.9,14.2 64.6,14.2 64.6,44.6 72.8,44.6 72.8,14.2 83.4,14.2 87.2,7 	"/>
	<polygon class="st0" points="202.4,22.3 184.4,6.8 179.4,6.8 179.4,44.6 187.7,44.6 187.7,21.7 202.4,33 217.1,21.7 217.1,44.6 
		225.3,44.6 225.3,6.8 220.3,6.8 	"/>
</g>
</svg>
